<?xml version="1.0" encoding="UTF-8"?>
<svg width="34px" height="15px" viewBox="0 0 34 15" version="1.1" xmlns="http://www.w3.org/2000/svg" xmlns:xlink="http://www.w3.org/1999/xlink">
    <!-- Generator: Sketch 46.1 (44463) - http://www.bohemiancoding.com/sketch -->
    <title>logo-footer</title>
    <desc>Created with Sketch.</desc>
    <defs></defs>
    <g id="Desktop" stroke="none" stroke-width="1" fill="none" fill-rule="evenodd">
        <g id="01-MAIN" transform="translate(-250.000000, -1355.000000)" fill="#A4A4A4">
            <path d="M256.768,1362.256 C255.861329,1362.10667 255.160002,1361.752 254.664,1361.192 C254.167998,1360.632 253.92,1359.952 253.92,1359.152 C253.92,1358.69333 254.010666,1358.26934 254.192,1357.88 C254.373334,1357.49066 254.629332,1357.16267 254.96,1356.896 C255.290668,1356.61867 255.687998,1356.40267 256.152,1356.248 C256.616002,1356.09333 257.130664,1356.016 257.696,1356.016 C258.826672,1356.016 259.73333,1356.30666 260.416,1356.888 C261.09867,1357.46934 261.44,1358.224 261.44,1359.152 C261.44,1359.96267 261.194669,1360.65066 260.704,1361.216 C260.213331,1361.78134 259.504005,1362.13333 258.576,1362.272 L258.576,1363.904 C258.960002,1363.904 259.293332,1363.90133 259.576,1363.896 C259.858668,1363.89067 260.101332,1363.88267 260.304,1363.872 C260.624002,1363.86133 260.887999,1363.84533 261.096,1363.824 C261.304001,1363.80267 261.456,1363.77067 261.552,1363.728 C261.594667,1363.71733 261.650666,1363.696 261.72,1363.664 C261.789334,1363.632 261.856,1363.60533 261.92,1363.584 C261.994667,1363.56267 262.066666,1363.54133 262.136,1363.52 C262.205334,1363.49867 262.272,1363.48267 262.336,1363.472 C262.677335,1363.45067 263.026665,1363.448 263.384,1363.464 C263.741335,1363.48 264.069332,1363.52 264.368,1363.584 C264.581334,1363.63733 264.751999,1363.71467 264.88,1363.816 C265.008001,1363.91733 265.061333,1364.048 265.04,1364.208 C265.018667,1364.41067 264.933334,1364.56 264.784,1364.656 C264.634666,1364.752 264.432001,1364.8 264.176,1364.8 C263.994666,1364.8 263.786668,1364.79733 263.552,1364.792 C263.317332,1364.78667 263.061335,1364.784 262.784,1364.784 C262.517332,1364.77333 262.232002,1364.76533 261.928,1364.76 C261.623998,1364.75467 261.317335,1364.752 261.008,1364.752 C260.495997,1364.752 259.93067,1364.75733 259.312,1364.768 L257.456,1364.8 C256.847997,1364.81067 256.272003,1364.82667 255.728,1364.848 C255.183997,1364.86933 254.736002,1364.89067 254.384,1364.912 C254.288,1364.92267 254.2,1364.93867 254.12,1364.96 C254.04,1364.98133 253.962667,1365.00267 253.888,1365.024 C253.813333,1365.04533 253.744,1365.06933 253.68,1365.096 C253.616,1365.12267 253.552,1365.14667 253.488,1365.168 C253.327999,1365.232 253.152001,1365.28267 252.96,1365.32 C252.767999,1365.35733 252.544001,1365.328 252.288,1365.232 C252.085332,1365.168 251.840001,1365.07467 251.552,1364.952 C251.263999,1364.82933 250.976001,1364.688 250.688,1364.528 C250.303998,1364.304 250.149333,1364.10133 250.224,1363.92 C250.298667,1363.73867 250.543998,1363.67467 250.96,1363.728 C251.312002,1363.78133 251.749331,1363.824 252.272,1363.856 C252.794669,1363.888 253.41333,1363.904 254.128,1363.904 C254.565336,1363.904 255.002664,1363.90667 255.44,1363.912 C255.877336,1363.91733 256.319998,1363.92 256.768,1363.92 L256.768,1362.256 Z M257.696,1357.072 C257.087997,1357.072 256.605335,1357.26133 256.248,1357.64 C255.890665,1358.01867 255.712,1358.51733 255.712,1359.136 C255.712,1359.712 255.887998,1360.208 256.24,1360.624 C256.592002,1361.04 257.07733,1361.248 257.696,1361.248 C258.31467,1361.248 258.794665,1361.04 259.136,1360.624 C259.477335,1360.208 259.648,1359.712 259.648,1359.136 C259.648,1358.51733 259.474668,1358.01867 259.128,1357.64 C258.781332,1357.26133 258.304003,1357.072 257.696,1357.072 Z M255.712,1367.68 L255.712,1368.544 C255.712,1368.736 255.775999,1368.86933 255.904,1368.944 C256.032001,1369.01867 256.165333,1369.056 256.304,1369.056 L259.072,1369.024 C259.253334,1369.024 259.450666,1369.008 259.664,1368.976 C259.877334,1368.944 260.079999,1368.864 260.272,1368.736 C260.304,1368.704 260.354666,1368.67733 260.424,1368.656 C260.493334,1368.63467 260.56,1368.61867 260.624,1368.608 C260.858668,1368.58667 261.159998,1368.57867 261.528,1368.584 C261.896002,1368.58933 262.170666,1368.60267 262.352,1368.624 C262.608001,1368.66667 262.791999,1368.75733 262.904,1368.896 C263.016001,1369.03467 263.072,1369.168 263.072,1369.296 C263.061333,1369.456 262.981334,1369.59467 262.832,1369.712 C262.682666,1369.82933 262.480001,1369.888 262.224,1369.888 L255.536,1369.952 C255.333332,1369.952 255.136001,1369.93867 254.944,1369.912 C254.751999,1369.88533 254.581334,1369.824 254.432,1369.728 C254.271999,1369.64267 254.146667,1369.52533 254.056,1369.376 C253.965333,1369.22667 253.92,1369.02933 253.92,1368.784 L253.92,1367.824 C253.92,1367.696 253.904,1367.56533 253.872,1367.432 C253.84,1367.29867 253.770667,1367.2 253.664,1367.136 C253.525333,1367.06133 253.370668,1367 253.2,1366.952 C253.029332,1366.904 252.832001,1366.864 252.608,1366.832 C252.522666,1366.82133 252.466667,1366.78133 252.44,1366.712 C252.413333,1366.64267 252.405333,1366.57067 252.416,1366.496 C252.437333,1366.41067 252.477333,1366.336 252.536,1366.272 C252.594667,1366.208 252.677333,1366.16533 252.784,1366.144 C252.901334,1366.13333 253.093332,1366.128 253.36,1366.128 C253.626668,1366.128 253.903999,1366.13333 254.192,1366.144 C254.490668,1366.15467 254.775999,1366.17067 255.048,1366.192 C255.320001,1366.21333 255.519999,1366.24 255.648,1366.272 C255.712,1366.304 255.762666,1366.368 255.8,1366.464 C255.837334,1366.56 255.84,1366.656 255.808,1366.752 C255.765333,1366.88 255.738667,1367.03467 255.728,1367.216 C255.717333,1367.39733 255.712,1367.552 255.712,1367.68 Z M276.048,1361.424 C275.823999,1361.43467 275.597334,1361.46933 275.368,1361.528 C275.138666,1361.58667 274.960001,1361.64267 274.832,1361.696 C274.736,1361.73867 274.637334,1361.768 274.536,1361.784 C274.434666,1361.8 274.304001,1361.78133 274.144,1361.728 C274.015999,1361.696 273.840001,1361.616 273.616,1361.488 C273.391999,1361.36 273.173334,1361.20533 272.96,1361.024 C272.767999,1360.864 272.696,1360.72533 272.744,1360.608 C272.792,1360.49067 272.943999,1360.44267 273.2,1360.464 C273.360001,1360.48533 273.631998,1360.50133 274.016,1360.512 C274.400002,1360.52267 274.778665,1360.528 275.152,1360.528 L276.048,1360.528 L276.048,1357.552 C276.048,1357.31733 276.021334,1357.11467 275.968,1356.944 C275.914666,1356.77333 275.824001,1356.64 275.696,1356.544 C275.525332,1356.416 275.328001,1356.312 275.104,1356.232 C274.879999,1356.152 274.650668,1356.09067 274.416,1356.048 C274.330666,1356.03733 274.272,1355.99467 274.24,1355.92 C274.208,1355.84533 274.208,1355.76533 274.24,1355.68 C274.261333,1355.60533 274.306666,1355.53333 274.376,1355.464 C274.445334,1355.39467 274.538666,1355.36 274.656,1355.36 C274.858668,1355.36 275.093332,1355.37333 275.36,1355.4 C275.626668,1355.42667 275.898665,1355.456 276.176,1355.488 C276.464001,1355.53067 276.738665,1355.576 277,1355.624 C277.261335,1355.672 277.493332,1355.71733 277.696,1355.76 C277.792,1355.792 277.856,1355.86133 277.888,1355.968 C277.92,1356.07467 277.92,1356.18133 277.888,1356.288 C277.824,1356.448 277.784,1356.61333 277.768,1356.784 C277.752,1356.95467 277.744,1357.12 277.744,1357.28 L277.744,1364.032 C277.744,1365.10934 277.640001,1365.912 277.432,1366.44 C277.223999,1366.968 276.992001,1367.23733 276.736,1367.248 C276.511999,1367.26933 276.341334,1367.088 276.224,1366.704 C276.106666,1366.32 276.048,1365.69067 276.048,1364.816 L276.048,1361.424 Z M271.504,1361.296 C271.6,1361.392 271.693333,1361.47733 271.784,1361.552 C271.874667,1361.62667 271.968,1361.696 272.064,1361.76 C272.149334,1361.83467 272.232,1361.90133 272.312,1361.96 C272.392,1362.01867 272.469333,1362.07467 272.544,1362.128 C272.618667,1362.17067 272.696,1362.20267 272.776,1362.224 C272.856,1362.24533 272.928,1362.256 272.992,1362.256 C273.002667,1362.26667 273.024,1362.27467 273.056,1362.28 C273.088,1362.28533 273.12,1362.29333 273.152,1362.304 C273.194667,1362.32533 273.234666,1362.344 273.272,1362.36 C273.309334,1362.376 273.344,1362.4 273.376,1362.432 C273.482667,1362.54933 273.589333,1362.67733 273.696,1362.816 C273.802667,1362.95467 273.898666,1363.09333 273.984,1363.232 C274.08,1363.37067 274.16,1363.496 274.224,1363.608 C274.288,1363.72 274.330667,1363.79733 274.352,1363.84 C274.426667,1364.04267 274.448,1364.22933 274.416,1364.4 C274.384,1364.57067 274.314667,1364.69333 274.208,1364.768 C274.090666,1364.84267 273.949334,1364.85867 273.784,1364.816 C273.618666,1364.77333 273.445334,1364.63467 273.264,1364.4 C273.125333,1364.26133 272.962668,1364.096 272.776,1363.904 C272.589332,1363.712 272.389334,1363.50933 272.176,1363.296 C271.962666,1363.09333 271.744001,1362.888 271.52,1362.68 C271.295999,1362.472 271.088001,1362.27733 270.896,1362.096 C270.287997,1362.66134 269.637337,1363.18933 268.944,1363.68 C268.250663,1364.17067 267.536004,1364.58133 266.8,1364.912 C266.543999,1365.06133 266.338667,1365.14133 266.184,1365.152 C266.029333,1365.16267 265.92,1365.136 265.856,1365.072 C265.792,1365.01867 265.765333,1364.94933 265.776,1364.864 C265.786667,1364.77867 265.834666,1364.70933 265.92,1364.656 C267.136006,1363.856 268.218662,1362.91201 269.168,1361.824 C270.117338,1360.73599 270.863997,1359.63734 271.408,1358.528 C271.055998,1358.56 270.757335,1358.58667 270.512,1358.608 C270.266665,1358.62933 270.037334,1358.65067 269.824,1358.672 C269.653332,1358.69333 269.458668,1358.73333 269.24,1358.792 C269.021332,1358.85067 268.864,1358.912 268.768,1358.976 C268.693333,1359.04 268.605334,1359.06933 268.504,1359.064 C268.402666,1359.05867 268.277334,1359.02933 268.128,1358.976 C267.989333,1358.93333 267.829334,1358.85867 267.648,1358.752 C267.466666,1358.64533 267.248001,1358.50133 266.992,1358.32 C266.682665,1358.096 266.56,1357.91467 266.624,1357.776 C266.688,1357.63733 266.874665,1357.57867 267.184,1357.6 C267.237334,1357.61067 267.330666,1357.62133 267.464,1357.632 C267.597334,1357.64267 267.749332,1357.65333 267.92,1357.664 C268.090668,1357.67467 268.271999,1357.68267 268.464,1357.688 C268.656001,1357.69333 268.842666,1357.696 269.024,1357.696 C269.461336,1357.696 269.847998,1357.69333 270.184,1357.688 C270.520002,1357.68267 270.805332,1357.65333 271.04,1357.6 C271.061333,1357.6 271.088,1357.59733 271.12,1357.592 C271.152,1357.58667 271.189333,1357.57867 271.232,1357.568 C271.264,1357.55733 271.296,1357.54933 271.328,1357.544 C271.36,1357.53867 271.392,1357.53067 271.424,1357.52 C271.445333,1357.49867 271.477333,1357.47467 271.52,1357.448 C271.562667,1357.42133 271.626666,1357.408 271.712,1357.408 C271.978668,1357.408 272.253332,1357.41333 272.536,1357.424 C272.818668,1357.43467 273.066666,1357.44533 273.28,1357.456 C273.472001,1357.47733 273.581333,1357.58667 273.608,1357.784 C273.634667,1357.98133 273.616,1358.144 273.552,1358.272 C273.52,1358.34667 273.485334,1358.41333 273.448,1358.472 C273.410666,1358.53067 273.376,1358.58667 273.344,1358.64 C273.312,1358.69333 273.28,1358.74933 273.248,1358.808 C273.216,1358.86667 273.184,1358.92267 273.152,1358.976 C272.927999,1359.38134 272.680001,1359.77866 272.408,1360.168 C272.135999,1360.55734 271.834668,1360.93333 271.504,1361.296 Z M272.384,1367.088 L272.384,1368.544 C272.384,1368.736 272.447999,1368.86933 272.576,1368.944 C272.704001,1369.01867 272.842666,1369.056 272.992,1369.056 L275.152,1369.024 C275.333334,1369.024 275.530666,1369.01333 275.744,1368.992 C275.957334,1368.97067 276.159999,1368.896 276.352,1368.768 C276.384,1368.736 276.432,1368.70933 276.496,1368.688 C276.56,1368.66667 276.629333,1368.65067 276.704,1368.64 C276.938668,1368.61867 277.213332,1368.61067 277.528,1368.616 C277.842668,1368.62133 278.085332,1368.63467 278.256,1368.656 C278.522668,1368.69867 278.709333,1368.784 278.816,1368.912 C278.922667,1369.04 278.976,1369.168 278.976,1369.296 C278.965333,1369.456 278.885334,1369.59467 278.736,1369.712 C278.586666,1369.82933 278.384001,1369.888 278.128,1369.888 L272.208,1369.952 C272.005332,1369.952 271.808001,1369.93867 271.616,1369.912 C271.423999,1369.88533 271.253334,1369.824 271.104,1369.728 C270.943999,1369.64267 270.818667,1369.52533 270.728,1369.376 C270.637333,1369.22667 270.592,1369.02933 270.592,1368.784 L270.592,1367.232 C270.592,1367.104 270.576,1366.97333 270.544,1366.84 C270.512,1366.70667 270.442667,1366.608 270.336,1366.544 C270.207999,1366.46933 270.056001,1366.408 269.88,1366.36 C269.703999,1366.312 269.504001,1366.272 269.28,1366.24 C269.194666,1366.22933 269.138667,1366.18933 269.112,1366.12 C269.085333,1366.05067 269.077333,1365.97867 269.088,1365.904 C269.109333,1365.81867 269.149333,1365.744 269.208,1365.68 C269.266667,1365.616 269.349333,1365.57333 269.456,1365.552 C269.573334,1365.54133 269.765332,1365.536 270.032,1365.536 C270.298668,1365.536 270.575999,1365.54133 270.864,1365.552 C271.162668,1365.56267 271.447999,1365.57867 271.72,1365.6 C271.992001,1365.62133 272.191999,1365.648 272.32,1365.68 C272.394667,1365.712 272.450666,1365.776 272.488,1365.872 C272.525334,1365.968 272.528,1366.064 272.496,1366.16 C272.442666,1366.288 272.410667,1366.44267 272.4,1366.624 C272.389333,1366.80533 272.384,1366.96 272.384,1367.088 Z M283.168,1367.952 C283.168,1368.25067 283.066668,1368.50133 282.864,1368.704 C282.661332,1368.90667 282.400002,1369.008 282.08,1369.008 C281.738665,1369.008 281.464001,1368.90667 281.256,1368.704 C281.047999,1368.50133 280.944,1368.25067 280.944,1367.952 C280.944,1367.664 281.039999,1367.41067 281.232,1367.192 C281.424001,1366.97333 281.706665,1366.864 282.08,1366.864 C282.432002,1366.864 282.701332,1366.97333 282.888,1367.192 C283.074668,1367.41067 283.168,1367.664 283.168,1367.952 Z" id="logo-footer"></path>
        </g>
    </g>
</svg>