<?xml version="1.0" encoding="UTF-8"?>
<svg width="83px" height="37px" viewBox="0 0 83 37" version="1.1" xmlns="http://www.w3.org/2000/svg" xmlns:xlink="http://www.w3.org/1999/xlink">
    <!-- Generator: Sketch 46.1 (44463) - http://www.bohemiancoding.com/sketch -->
    <title>text-ideation</title>
    <desc>Created with Sketch.</desc>
    <defs></defs>
    <g id="Desktop" stroke="none" stroke-width="1" fill="none" fill-rule="evenodd">
        <g id="01-MAIN" transform="translate(-250.000000, -119.000000)" fill="#212630">
            <g id="Header" transform="translate(250.000000, 119.000000)">
                <path d="M16.92,17.64 C14.653322,17.2666648 12.9000062,16.380007 11.66,14.98 C10.4199938,13.579993 9.8,11.88001 9.8,9.88 C9.8,8.7333276 10.0266644,7.6733382 10.48,6.7 C10.9333356,5.7266618 11.5733292,4.90667 12.4,4.24 C13.2266708,3.5466632 14.2199942,3.0066686 15.38,2.62 C16.5400058,2.2333314 17.8266596,2.04 19.24,2.04 C22.0666808,2.04 24.3333248,2.7666594 26.04,4.22 C27.7466752,5.6733406 28.6,7.5599884 28.6,9.88 C28.6,11.9066768 27.9866728,13.6266596 26.76,15.04 C25.5333272,16.4533404 23.7600116,17.3333316 21.44,17.68 L21.44,21.76 C22.4000048,21.76 23.2333298,21.7533334 23.94,21.74 C24.6466702,21.7266666 25.2533308,21.7066668 25.76,21.68 C26.560004,21.6533332 27.2199974,21.6133336 27.74,21.56 C28.2600026,21.5066664 28.6399988,21.4266672 28.88,21.32 C28.9866672,21.2933332 29.1266658,21.2400004 29.3,21.16 C29.4733342,21.0799996 29.6399992,21.0133336 29.8,20.96 C29.9866676,20.9066664 30.1666658,20.8533336 30.34,20.8 C30.5133342,20.7466664 30.6799992,20.7066668 30.84,20.68 C31.6933376,20.6266664 32.5666622,20.6199998 33.46,20.66 C34.3533378,20.7000002 35.1733296,20.7999992 35.92,20.96 C36.453336,21.093334 36.8799984,21.2866654 37.2,21.54 C37.5200016,21.7933346 37.6533336,22.119998 37.6,22.52 C37.5466664,23.0266692 37.3333352,23.3999988 36.96,23.64 C36.5866648,23.8800012 36.0800032,24 35.44,24 C34.9866644,24 34.4666696,23.9933334 33.88,23.98 C33.2933304,23.9666666 32.6533368,23.96 31.96,23.96 C31.29333,23.9333332 30.5800038,23.9133334 29.82,23.9 C29.0599962,23.8866666 28.2933372,23.88 27.52,23.88 C26.2399936,23.88 24.8266744,23.8933332 23.28,23.92 L18.64,24 C17.1199924,24.0266668 15.6800068,24.0666664 14.32,24.12 C12.9599932,24.1733336 11.8400044,24.2266664 10.96,24.28 C10.7199988,24.3066668 10.500001,24.3466664 10.3,24.4 C10.099999,24.4533336 9.9066676,24.5066664 9.72,24.56 C9.5333324,24.6133336 9.3600008,24.673333 9.2,24.74 C9.0399992,24.806667 8.8800008,24.8666664 8.72,24.92 C8.319998,25.0800008 7.8800024,25.2066662 7.4,25.3 C6.9199976,25.3933338 6.3600032,25.3200012 5.72,25.08 C5.2133308,24.9199992 4.6000036,24.6866682 3.88,24.38 C3.1599964,24.0733318 2.4400036,23.720002 1.72,23.32 C0.7599952,22.7599972 0.3733324,22.2533356 0.56,21.8 C0.7466676,21.3466644 1.3599948,21.186666 2.4,21.32 C3.2800044,21.453334 4.3733268,21.5599996 5.68,21.64 C6.9866732,21.7200004 8.5333244,21.76 10.32,21.76 C11.4133388,21.76 12.5066612,21.7666666 13.6,21.78 C14.6933388,21.7933334 15.7999944,21.8 16.92,21.8 L16.92,17.64 Z M19.24,4.68 C17.7199924,4.68 16.5133378,5.1533286 15.62,6.1 C14.7266622,7.0466714 14.28,8.2933256 14.28,9.84 C14.28,11.2800072 14.7199956,12.5199948 15.6,13.56 C16.4800044,14.6000052 17.6933256,15.12 19.24,15.12 C20.7866744,15.12 21.9866624,14.6000052 22.84,13.56 C23.6933376,12.5199948 24.12,11.2800072 24.12,9.84 C24.12,8.2933256 23.686671,7.0466714 22.82,6.1 C21.953329,5.1533286 20.7600076,4.68 19.24,4.68 Z M14.28,31.2 L14.28,33.36 C14.28,33.8400024 14.4399984,34.1733324 14.76,34.36 C15.0800016,34.5466676 15.4133316,34.64 15.76,34.64 L22.68,34.56 C23.1333356,34.56 23.626664,34.5200004 24.16,34.44 C24.693336,34.3599996 25.1999976,34.1600016 25.68,33.84 C25.7600004,33.7599996 25.8866658,33.6933336 26.06,33.64 C26.2333342,33.5866664 26.3999992,33.5466668 26.56,33.52 C27.1466696,33.4666664 27.8999954,33.4466666 28.82,33.46 C29.7400046,33.4733334 30.4266644,33.5066664 30.88,33.56 C31.5200032,33.6666672 31.9799986,33.8933316 32.26,34.24 C32.5400014,34.5866684 32.68,34.9199984 32.68,35.24 C32.6533332,35.640002 32.4533352,35.9866652 32.08,36.28 C31.7066648,36.5733348 31.2000032,36.72 30.56,36.72 L13.84,36.88 C13.3333308,36.88 12.8400024,36.846667 12.36,36.78 C11.8799976,36.713333 11.4533352,36.5600012 11.08,36.32 C10.679998,36.1066656 10.3666678,35.8133352 10.14,35.44 C9.9133322,35.0666648 9.8,34.5733364 9.8,33.96 L9.8,31.56 C9.8,31.2399984 9.7600004,30.913335 9.68,30.58 C9.5999996,30.246665 9.426668,30.0000008 9.16,29.84 C8.8133316,29.6533324 8.4266688,29.5000006 8,29.38 C7.5733312,29.2599994 7.0800028,29.1600004 6.52,29.08 C6.3066656,29.0533332 6.166667,28.9533342 6.1,28.78 C6.033333,28.6066658 6.0133332,28.4266676 6.04,28.24 C6.0933336,28.0266656 6.1933326,27.8400008 6.34,27.68 C6.4866674,27.5199992 6.693332,27.4133336 6.96,27.36 C7.2533348,27.3333332 7.73333,27.32 8.4,27.32 C9.06667,27.32 9.7599964,27.3333332 10.48,27.36 C11.2266704,27.3866668 11.9399966,27.4266664 12.62,27.48 C13.3000034,27.5333336 13.7999984,27.5999996 14.12,27.68 C14.2800008,27.7600004 14.4066662,27.9199988 14.5,28.16 C14.5933338,28.4000012 14.6000004,28.6399988 14.52,28.88 C14.4133328,29.2000016 14.3466668,29.5866644 14.32,30.04 C14.2933332,30.4933356 14.28,30.8799984 14.28,31.2 Z M65.12,15.56 C64.5599972,15.5866668 63.9933362,15.6733326 63.42,15.82 C62.8466638,15.9666674 62.4000016,16.106666 62.08,16.24 C61.8399988,16.3466672 61.5933346,16.4199998 61.34,16.46 C61.0866654,16.5000002 60.760002,16.453334 60.36,16.32 C60.0399984,16.2399996 59.6000028,16.0400016 59.04,15.72 C58.4799972,15.3999984 57.933336,15.0133356 57.4,14.56 C56.9199976,14.159998 56.7399994,13.8133348 56.86,13.52 C56.9800006,13.2266652 57.3599968,13.1066664 58,13.16 C58.400002,13.2133336 59.0799952,13.2533332 60.04,13.28 C61.0000048,13.3066668 61.946662,13.32 62.88,13.32 L65.12,13.32 L65.12,5.88 C65.12,5.2933304 65.053334,4.7866688 64.92,4.36 C64.786666,3.9333312 64.5600016,3.6000012 64.24,3.36 C63.8133312,3.0399984 63.3200028,2.780001 62.76,2.58 C62.1999972,2.379999 61.6266696,2.2266672 61.04,2.12 C60.8266656,2.0933332 60.6800004,1.9866676 60.6,1.8 C60.5199996,1.6133324 60.5199996,1.4133344 60.6,1.2 C60.6533336,1.0133324 60.7666658,0.8333342 60.94,0.66 C61.1133342,0.4866658 61.3466652,0.4 61.64,0.4 C62.1466692,0.4 62.73333,0.433333 63.4,0.5 C64.06667,0.566667 64.7466632,0.6399996 65.44,0.72 C66.1600036,0.8266672 66.8466634,0.9399994 67.5,1.06 C68.1533366,1.1800006 68.7333308,1.2933328 69.24,1.4 C69.4800012,1.4800004 69.6399996,1.653332 69.72,1.92 C69.8000004,2.186668 69.8000004,2.453332 69.72,2.72 C69.5599992,3.120002 69.4600002,3.5333312 69.42,3.96 C69.3799998,4.3866688 69.36,4.799998 69.36,5.2 L69.36,22.08 C69.36,24.7733468 69.1000026,26.7799934 68.58,28.1 C68.0599974,29.4200066 67.4800032,30.0933332 66.84,30.12 C66.2799972,30.1733336 65.8533348,29.7200048 65.56,28.76 C65.2666652,27.7999952 65.12,26.2266776 65.12,24.04 L65.12,15.56 Z M53.76,15.24 C54.0000012,15.4800012 54.2333322,15.6933324 54.46,15.88 C54.6866678,16.0666676 54.9199988,16.2399992 55.16,16.4 C55.3733344,16.5866676 55.579999,16.7533326 55.78,16.9 C55.980001,17.0466674 56.1733324,17.186666 56.36,17.32 C56.5466676,17.4266672 56.739999,17.5066664 56.94,17.56 C57.140001,17.6133336 57.3199992,17.64 57.48,17.64 C57.5066668,17.6666668 57.5599996,17.6866666 57.64,17.7 C57.7200004,17.7133334 57.7999996,17.7333332 57.88,17.76 C57.9866672,17.8133336 58.0866662,17.8599998 58.18,17.9 C58.2733338,17.9400002 58.3599996,17.9999996 58.44,18.08 C58.706668,18.3733348 58.973332,18.6933316 59.24,19.04 C59.506668,19.3866684 59.7466656,19.7333316 59.96,20.08 C60.2000012,20.4266684 60.3999992,20.7399986 60.56,21.02 C60.7200008,21.3000014 60.8266664,21.4933328 60.88,21.6 C61.0666676,22.1066692 61.1200004,22.5733312 61.04,23 C60.9599996,23.4266688 60.786668,23.7333324 60.52,23.92 C60.2266652,24.1066676 59.8733354,24.1466672 59.46,24.04 C59.0466646,23.9333328 58.6133356,23.5866696 58.16,23 C57.8133316,22.6533316 57.406669,22.2400024 56.94,21.76 C56.473331,21.2799976 55.973336,20.773336 55.44,20.24 C54.906664,19.7333308 54.3600028,19.2200026 53.8,18.7 C53.2399972,18.1799974 52.7200024,17.6933356 52.24,17.24 C50.7199924,18.6533404 49.093342,19.9733272 47.36,21.2 C45.626658,22.4266728 43.8400092,23.4533292 42,24.28 C41.3599968,24.6533352 40.8466686,24.8533332 40.46,24.88 C40.0733314,24.9066668 39.8000008,24.8400008 39.64,24.68 C39.4799992,24.546666 39.4133332,24.3733344 39.44,24.16 C39.4666668,23.9466656 39.5866656,23.773334 39.8,23.64 C42.8400152,21.63999 45.5466548,19.2800136 47.92,16.56 C50.2933452,13.8399864 52.1599932,11.0933472 53.52,8.32 C52.6399956,8.4000004 51.8933364,8.4666664 51.28,8.52 C50.6666636,8.5733336 50.093336,8.6266664 49.56,8.68 C49.1333312,8.7333336 48.6466694,8.8333326 48.1,8.98 C47.5533306,9.1266674 47.1600012,9.2799992 46.92,9.44 C46.7333324,9.6000008 46.5133346,9.6733334 46.26,9.66 C46.0066654,9.6466666 45.6933352,9.573334 45.32,9.44 C44.9733316,9.3333328 44.5733356,9.146668 44.12,8.88 C43.6666644,8.613332 43.1200032,8.2533356 42.48,7.8 C41.7066628,7.2399972 41.3999992,6.7866684 41.56,6.44 C41.7200008,6.0933316 42.1866628,5.9466664 42.96,6 C43.093334,6.0266668 43.326665,6.0533332 43.66,6.08 C43.993335,6.1066668 44.3733312,6.1333332 44.8,6.16 C45.2266688,6.1866668 45.6799976,6.2066666 46.16,6.22 C46.6400024,6.2333334 47.1066644,6.24 47.56,6.24 C48.6533388,6.24 49.6199958,6.2333334 50.46,6.22 C51.3000042,6.2066666 52.0133304,6.133334 52.6,6 C52.6533336,6 52.7199996,5.9933334 52.8,5.98 C52.8800004,5.9666666 52.9733328,5.9466668 53.08,5.92 C53.1600004,5.8933332 53.2399996,5.8733334 53.32,5.86 C53.4000004,5.8466666 53.4799996,5.8266668 53.56,5.8 C53.6133336,5.7466664 53.6933328,5.686667 53.8,5.62 C53.9066672,5.553333 54.0666656,5.52 54.28,5.52 C54.94667,5.52 55.6333298,5.5333332 56.34,5.56 C57.0466702,5.5866668 57.666664,5.6133332 58.2,5.64 C58.6800024,5.6933336 58.953333,5.9666642 59.02,6.46 C59.086667,6.9533358 59.0400008,7.3599984 58.88,7.68 C58.7999996,7.8666676 58.7133338,8.0333326 58.62,8.18 C58.5266662,8.3266674 58.4400004,8.466666 58.36,8.6 C58.2799996,8.733334 58.2000004,8.8733326 58.12,9.02 C58.0399996,9.1666674 57.9600004,9.306666 57.88,9.44 C57.3199972,10.4533384 56.7000034,11.4466618 56.02,12.42 C55.3399966,13.3933382 54.5866708,14.3333288 53.76,15.24 Z M55.96,29.72 L55.96,33.36 C55.96,33.8400024 56.1199984,34.1733324 56.44,34.36 C56.7600016,34.5466676 57.1066648,34.64 57.48,34.64 L62.88,34.56 C63.3333356,34.56 63.826664,34.5333336 64.36,34.48 C64.893336,34.4266664 65.3999976,34.2400016 65.88,33.92 C65.9600004,33.8399996 66.0799992,33.7733336 66.24,33.72 C66.4000008,33.6666664 66.5733324,33.6266668 66.76,33.6 C67.3466696,33.5466664 68.0333294,33.5266666 68.82,33.54 C69.6066706,33.5533334 70.2133312,33.5866664 70.64,33.64 C71.30667,33.7466672 71.773332,33.9599984 72.04,34.28 C72.306668,34.6000016 72.44,34.9199984 72.44,35.24 C72.4133332,35.640002 72.2133352,35.9866652 71.84,36.28 C71.4666648,36.5733348 70.9600032,36.72 70.32,36.72 L55.52,36.88 C55.0133308,36.88 54.5200024,36.846667 54.04,36.78 C53.5599976,36.713333 53.1333352,36.5600012 52.76,36.32 C52.359998,36.1066656 52.0466678,35.8133352 51.82,35.44 C51.5933322,35.0666648 51.48,34.5733364 51.48,33.96 L51.48,30.08 C51.48,29.7599984 51.4400004,29.433335 51.36,29.1 C51.2799996,28.766665 51.106668,28.5200008 50.84,28.36 C50.5199984,28.1733324 50.1400022,28.0200006 49.7,27.9 C49.2599978,27.7799994 48.7600028,27.6800004 48.2,27.6 C47.9866656,27.5733332 47.846667,27.4733342 47.78,27.3 C47.713333,27.1266658 47.6933332,26.9466676 47.72,26.76 C47.7733336,26.5466656 47.8733326,26.3600008 48.02,26.2 C48.1666674,26.0399992 48.373332,25.9333336 48.64,25.88 C48.9333348,25.8533332 49.41333,25.84 50.08,25.84 C50.74667,25.84 51.4399964,25.8533332 52.16,25.88 C52.9066704,25.9066668 53.6199966,25.9466664 54.3,26 C54.9800034,26.0533336 55.4799984,26.1199996 55.8,26.2 C55.9866676,26.2800004 56.1266662,26.4399988 56.22,26.68 C56.3133338,26.9200012 56.3200004,27.1599988 56.24,27.4 C56.106666,27.7200016 56.0266668,28.1066644 56,28.56 C55.9733332,29.0133356 55.96,29.3999984 55.96,29.72 Z M82.92,31.88 C82.92,32.6266704 82.6666692,33.2533308 82.16,33.76 C81.6533308,34.2666692 81.000004,34.52 80.2,34.52 C79.3466624,34.52 78.6600026,34.2666692 78.14,33.76 C77.6199974,33.2533308 77.36,32.6266704 77.36,31.88 C77.36,31.1599964 77.5999976,30.5266694 78.08,29.98 C78.5600024,29.4333306 79.266662,29.16 80.2,29.16 C81.0800044,29.16 81.753331,29.4333306 82.22,29.98 C82.686669,30.5266694 82.92,31.1599964 82.92,31.88 Z" id="text-ideation"></path>
            </g>
        </g>
    </g>
</svg>