<?xml version="1.0" encoding="UTF-8"?>
<svg width="112px" height="19px" viewBox="0 0 112 19" version="1.1" xmlns="http://www.w3.org/2000/svg" xmlns:xlink="http://www.w3.org/1999/xlink">
    <!-- Generator: Sketch 46.1 (44463) - http://www.bohemiancoding.com/sketch -->
    <title>text-about-3</title>
    <desc>Created with Sketch.</desc>
    <defs></defs>
    <g id="Desktop" stroke="none" stroke-width="1" fill="none" fill-rule="evenodd">
        <g id="01-MAIN" transform="translate(-889.000000, -637.000000)" fill="#212630">
            <g id="Sub" transform="translate(250.000000, 616.000000)">
                <path d="M644.98,30.48 L648.68,30.48 L646.88,25.24 L646.84,25.24 L644.98,30.48 Z M645.28,21.72 L648.5,21.72 L653.84,36 L650.58,36 L649.5,32.82 L644.16,32.82 L643.04,36 L639.88,36 L645.28,21.72 Z M654.28,25.66 L654.28,36 L657.12,36 L657.12,30.58 C657.12,29.5266614 657.293332,28.7700023 657.64,28.31 C657.986668,27.8499977 658.546663,27.62 659.32,27.62 C660.000003,27.62 660.473332,27.8299979 660.74,28.25 C661.006668,28.6700021 661.14,29.3066624 661.14,30.16 L661.14,36 L663.98,36 L663.98,29.64 C663.98,28.9999968 663.923334,28.4166693 663.81,27.89 C663.696666,27.3633307 663.500001,26.9166685 663.22,26.55 C662.939999,26.1833315 662.556669,25.8966677 662.07,25.69 C661.583331,25.4833323 660.960004,25.38 660.2,25.38 C659.599997,25.38 659.013336,25.5166653 658.44,25.79 C657.866664,26.0633347 657.400002,26.499997 657.04,27.1 L656.98,27.1 L656.98,25.66 L654.28,25.66 Z M672.98,30.8 C672.98,30.3733312 672.94,29.9633353 672.86,29.57 C672.78,29.1766647 672.643334,28.8300015 672.45,28.53 C672.256666,28.2299985 672.006668,27.9866676 671.7,27.8 C671.393332,27.6133324 671.006669,27.52 670.54,27.52 C670.073331,27.52 669.680002,27.6133324 669.36,27.8 C669.039998,27.9866676 668.783334,28.2333318 668.59,28.54 C668.396666,28.8466682 668.256667,29.1966647 668.17,29.59 C668.083333,29.9833353 668.04,30.3933312 668.04,30.82 C668.04,31.220002 668.086666,31.619998 668.18,32.02 C668.273334,32.420002 668.423332,32.7766651 668.63,33.09 C668.836668,33.4033349 669.096665,33.6566657 669.41,33.85 C669.723335,34.0433343 670.099998,34.14 670.54,34.14 C671.006669,34.14 671.396665,34.0466676 671.71,33.86 C672.023335,33.6733324 672.273332,33.4233349 672.46,33.11 C672.646668,32.7966651 672.78,32.440002 672.86,32.04 C672.94,31.639998 672.98,31.2266688 672.98,30.8 Z M673.02,34.68 L672.98,34.68 C672.646665,35.2400028 672.210003,35.6433321 671.67,35.89 C671.129997,36.1366679 670.520003,36.26 669.84,36.26 C669.066663,36.26 668.38667,36.1100015 667.8,35.81 C667.21333,35.5099985 666.730002,35.1033359 666.35,34.59 C665.969998,34.0766641 665.683334,33.48667 665.49,32.82 C665.296666,32.15333 665.2,31.4600036 665.2,30.74 C665.2,30.0466632 665.296666,29.3766699 665.49,28.73 C665.683334,28.0833301 665.969998,27.5133358 666.35,27.02 C666.730002,26.5266642 667.206664,26.1300015 667.78,25.83 C668.353336,25.5299985 669.019996,25.38 669.78,25.38 C670.393336,25.38 670.976664,25.5099987 671.53,25.77 C672.083336,26.0300013 672.519998,26.4133308 672.84,26.92 L672.88,26.92 L672.88,21.72 L675.72,21.72 L675.72,36 L673.02,36 L673.02,34.68 Z M685.86,27.5 L689.04,27.5 C689.600003,27.5 690.059998,27.366668 690.42,27.1 C690.780002,26.833332 690.96,26.400003 690.96,25.8 C690.96,25.466665 690.900001,25.1933344 690.78,24.98 C690.659999,24.7666656 690.500001,24.6000006 690.3,24.48 C690.099999,24.3599994 689.870001,24.2766669 689.61,24.23 C689.349999,24.1833331 689.080001,24.16 688.8,24.16 L685.86,24.16 L685.86,27.5 Z M682.72,21.72 L689.44,21.72 C690.120003,21.72 690.739997,21.7799994 691.3,21.9 C691.860003,22.0200006 692.339998,22.2166653 692.74,22.49 C693.140002,22.7633347 693.449999,23.1266644 693.67,23.58 C693.890001,24.0333356 694,24.59333 694,25.26 C694,25.9800036 693.836668,26.5799976 693.51,27.06 C693.183332,27.5400024 692.700003,27.9333318 692.06,28.24 C692.940004,28.4933346 693.596664,28.9366635 694.03,29.57 C694.463335,30.2033365 694.68,30.9666622 694.68,31.86 C694.68,32.5800036 694.540001,33.2033307 694.26,33.73 C693.979999,34.2566693 693.603336,34.686665 693.13,35.02 C692.656664,35.353335 692.11667,35.5999992 691.51,35.76 C690.90333,35.9200008 690.280003,36 689.64,36 L682.72,36 L682.72,21.72 Z M685.86,33.56 L689.22,33.56 C689.526668,33.56 689.819999,33.5300003 690.1,33.47 C690.380001,33.4099997 690.626666,33.3100007 690.84,33.17 C691.053334,33.0299993 691.223333,32.8400012 691.35,32.6 C691.476667,32.3599988 691.54,32.0533352 691.54,31.68 C691.54,30.946663 691.333335,30.4233349 690.92,30.11 C690.506665,29.7966651 689.960003,29.64 689.28,29.64 L685.86,29.64 L685.86,33.56 Z M702.96,29.72 C702.826666,28.9999964 702.590002,28.4533352 702.25,28.08 C701.909998,27.7066648 701.393337,27.52 700.7,27.52 C700.246664,27.52 699.870001,27.5966659 699.57,27.75 C699.269999,27.9033341 699.030001,28.0933322 698.85,28.32 C698.669999,28.5466678 698.543334,28.7866654 698.47,29.04 C698.396666,29.2933346 698.353333,29.519999 698.34,29.72 L702.96,29.72 Z M698.34,31.52 C698.38,32.4400046 698.613331,33.1066646 699.04,33.52 C699.466669,33.9333354 700.079996,34.14 700.88,34.14 C701.453336,34.14 701.946665,33.9966681 702.36,33.71 C702.773335,33.4233319 703.026666,33.1200016 703.12,32.8 L705.62,32.8 C705.219998,34.0400062 704.606671,34.926664 703.78,35.46 C702.953329,35.993336 701.953339,36.26 700.78,36.26 C699.966663,36.26 699.233337,36.1300013 698.58,35.87 C697.926663,35.6099987 697.373336,35.2400024 696.92,34.76 C696.466664,34.2799976 696.116668,33.70667 695.87,33.04 C695.623332,32.37333 695.5,31.640004 695.5,30.84 C695.5,30.0666628 695.626665,29.34667 695.88,28.68 C696.133335,28.01333 696.493331,27.4366691 696.96,26.95 C697.426669,26.4633309 697.98333,26.0800014 698.63,25.8 C699.27667,25.5199986 699.993329,25.38 700.78,25.38 C701.660004,25.38 702.426663,25.5499983 703.08,25.89 C703.733337,26.2300017 704.269998,26.6866638 704.69,27.26 C705.110002,27.8333362 705.413332,28.486663 705.6,29.22 C705.786668,29.953337 705.853334,30.719996 705.8,31.52 L698.34,31.52 Z M712.08,37.28 C711.773332,38.1200042 711.346669,38.7199982 710.8,39.08 C710.253331,39.4400018 709.493338,39.62 708.52,39.62 C708.226665,39.62 707.936668,39.6100001 707.65,39.59 C707.363332,39.5699999 707.073335,39.5466668 706.78,39.52 L706.78,37.18 C707.046668,37.2066668 707.319999,37.2333332 707.6,37.26 C707.880001,37.2866668 708.159999,37.2933334 708.44,37.28 C708.813335,37.2399998 709.089999,37.0933346 709.27,36.84 C709.450001,36.5866654 709.54,36.3066682 709.54,36 C709.54,35.7733322 709.5,35.560001 709.42,35.36 L705.8,25.66 L708.82,25.66 L711.16,32.74 L711.2,32.74 L713.46,25.66 L716.4,25.66 L712.08,37.28 Z M719.38,30.84 C719.38,31.2533354 719.42,31.6566647 719.5,32.05 C719.58,32.4433353 719.716666,32.7966651 719.91,33.11 C720.103334,33.4233349 720.359998,33.6733324 720.68,33.86 C721.000002,34.0466676 721.399998,34.14 721.88,34.14 C722.360002,34.14 722.763332,34.0466676 723.09,33.86 C723.416668,33.6733324 723.676666,33.4233349 723.87,33.11 C724.063334,32.7966651 724.2,32.4433353 724.28,32.05 C724.36,31.6566647 724.4,31.2533354 724.4,30.84 C724.4,30.4266646 724.36,30.020002 724.28,29.62 C724.2,29.219998 724.063334,28.8666682 723.87,28.56 C723.676666,28.2533318 723.416668,28.0033343 723.09,27.81 C722.763332,27.6166657 722.360002,27.52 721.88,27.52 C721.399998,27.52 721.000002,27.6166657 720.68,27.81 C720.359998,28.0033343 720.103334,28.2533318 719.91,28.56 C719.716666,28.8666682 719.58,29.219998 719.5,29.62 C719.42,30.020002 719.38,30.4266646 719.38,30.84 Z M716.54,30.84 C716.54,30.0133292 716.666665,29.2633367 716.92,28.59 C717.173335,27.9166633 717.533331,27.3433357 718,26.87 C718.466669,26.3966643 719.026663,26.0300013 719.68,25.77 C720.333337,25.5099987 721.066663,25.38 721.88,25.38 C722.693337,25.38 723.429997,25.5099987 724.09,25.77 C724.750003,26.0300013 725.313331,26.3966643 725.78,26.87 C726.246669,27.3433357 726.606665,27.9166633 726.86,28.59 C727.113335,29.2633367 727.24,30.0133292 727.24,30.84 C727.24,31.6666708 727.113335,32.41333 726.86,33.08 C726.606665,33.74667 726.246669,34.3166643 725.78,34.79 C725.313331,35.2633357 724.750003,35.6266654 724.09,35.88 C723.429997,36.1333346 722.693337,36.26 721.88,36.26 C721.066663,36.26 720.333337,36.1333346 719.68,35.88 C719.026663,35.6266654 718.466669,35.2633357 718,34.79 C717.533331,34.3166643 717.173335,33.74667 716.92,33.08 C716.666665,32.41333 716.54,31.6666708 716.54,30.84 Z M728.58,25.66 L728.58,36 L731.42,36 L731.42,30.58 C731.42,29.5266614 731.593332,28.7700023 731.94,28.31 C732.286668,27.8499977 732.846663,27.62 733.62,27.62 C734.300003,27.62 734.773332,27.8299979 735.04,28.25 C735.306668,28.6700021 735.44,29.3066624 735.44,30.16 L735.44,36 L738.28,36 L738.28,29.64 C738.28,28.9999968 738.223334,28.4166693 738.11,27.89 C737.996666,27.3633307 737.800001,26.9166685 737.52,26.55 C737.239999,26.1833315 736.856669,25.8966677 736.37,25.69 C735.883331,25.4833323 735.260004,25.38 734.5,25.38 C733.899997,25.38 733.313336,25.5166653 732.74,25.79 C732.166664,26.0633347 731.700002,26.499997 731.34,27.1 L731.28,27.1 L731.28,25.66 L728.58,25.66 Z M747.28,30.8 C747.28,30.3733312 747.24,29.9633353 747.16,29.57 C747.08,29.1766647 746.943334,28.8300015 746.75,28.53 C746.556666,28.2299985 746.306668,27.9866676 746,27.8 C745.693332,27.6133324 745.306669,27.52 744.84,27.52 C744.373331,27.52 743.980002,27.6133324 743.66,27.8 C743.339998,27.9866676 743.083334,28.2333318 742.89,28.54 C742.696666,28.8466682 742.556667,29.1966647 742.47,29.59 C742.383333,29.9833353 742.34,30.3933312 742.34,30.82 C742.34,31.220002 742.386666,31.619998 742.48,32.02 C742.573334,32.420002 742.723332,32.7766651 742.93,33.09 C743.136668,33.4033349 743.396665,33.6566657 743.71,33.85 C744.023335,34.0433343 744.399998,34.14 744.84,34.14 C745.306669,34.14 745.696665,34.0466676 746.01,33.86 C746.323335,33.6733324 746.573332,33.4233349 746.76,33.11 C746.946668,32.7966651 747.08,32.440002 747.16,32.04 C747.24,31.639998 747.28,31.2266688 747.28,30.8 Z M747.32,34.68 L747.28,34.68 C746.946665,35.2400028 746.510003,35.6433321 745.97,35.89 C745.429997,36.1366679 744.820003,36.26 744.14,36.26 C743.366663,36.26 742.68667,36.1100015 742.1,35.81 C741.51333,35.5099985 741.030002,35.1033359 740.65,34.59 C740.269998,34.0766641 739.983334,33.48667 739.79,32.82 C739.596666,32.15333 739.5,31.4600036 739.5,30.74 C739.5,30.0466632 739.596666,29.3766699 739.79,28.73 C739.983334,28.0833301 740.269998,27.5133358 740.65,27.02 C741.030002,26.5266642 741.506664,26.1300015 742.08,25.83 C742.653336,25.5299985 743.319996,25.38 744.08,25.38 C744.693336,25.38 745.276664,25.5099987 745.83,25.77 C746.383336,26.0300013 746.819998,26.4133308 747.14,26.92 L747.18,26.92 L747.18,21.72 L750.02,21.72 L750.02,36 L747.32,36 L747.32,34.68 Z" id="text-about-3"></path>
            </g>
        </g>
    </g>
</svg>