<?xml version="1.0" encoding="UTF-8"?>
<svg width="91px" height="16px" viewBox="0 0 91 16" version="1.1" xmlns="http://www.w3.org/2000/svg" xmlns:xlink="http://www.w3.org/1999/xlink">
    <!-- Generator: Sketch 46.1 (44463) - http://www.bohemiancoding.com/sketch -->
    <title>text-about-2</title>
    <desc>Created with Sketch.</desc>
    <defs></defs>
    <g id="Desktop" stroke="none" stroke-width="1" fill="none" fill-rule="evenodd">
        <g id="01-MAIN" transform="translate(-571.000000, -637.000000)" fill="#212630">
            <g id="Sub" transform="translate(250.000000, 616.000000)">
                <path d="M324.52,28.18 L327.96,28.18 C328.680004,28.18 329.219998,28.0200016 329.58,27.7 C329.940002,27.3799984 330.12,26.8600036 330.12,26.14 C330.12,25.4466632 329.940002,24.9433349 329.58,24.63 C329.219998,24.3166651 328.680004,24.16 327.96,24.16 L324.52,24.16 L324.52,28.18 Z M321.38,21.72 L329.08,21.72 C329.720003,21.72 330.296664,21.8233323 330.81,22.03 C331.323336,22.2366677 331.763331,22.5199982 332.13,22.88 C332.496668,23.2400018 332.776666,23.6566643 332.97,24.13 C333.163334,24.6033357 333.26,25.1133306 333.26,25.66 C333.26,26.5000042 333.083335,27.2266636 332.73,27.84 C332.376665,28.4533364 331.800004,28.9199984 331,29.24 L331,29.28 C331.386669,29.3866672 331.706665,29.5499989 331.96,29.77 C332.213335,29.9900011 332.419999,30.2499985 332.58,30.55 C332.740001,30.8500015 332.856666,31.1799982 332.93,31.54 C333.003334,31.9000018 333.053333,32.2599982 333.08,32.62 C333.093333,32.8466678 333.106667,33.1133318 333.12,33.42 C333.133333,33.7266682 333.156667,34.0399984 333.19,34.36 C333.223334,34.6800016 333.276666,34.9833319 333.35,35.27 C333.423334,35.5566681 333.533333,35.799999 333.68,36 L330.54,36 C330.366666,35.5466644 330.26,35.0066698 330.22,34.38 C330.18,33.7533302 330.12,33.1533362 330.04,32.58 C329.933333,31.8333296 329.706668,31.2866684 329.36,30.94 C329.013332,30.5933316 328.446671,30.42 327.66,30.42 L324.52,30.42 L324.52,36 L321.38,36 L321.38,21.72 Z M341.98,29.72 C341.846666,28.9999964 341.610002,28.4533352 341.27,28.08 C340.929998,27.7066648 340.413337,27.52 339.72,27.52 C339.266664,27.52 338.890001,27.5966659 338.59,27.75 C338.289999,27.9033341 338.050001,28.0933322 337.87,28.32 C337.689999,28.5466678 337.563334,28.7866654 337.49,29.04 C337.416666,29.2933346 337.373333,29.519999 337.36,29.72 L341.98,29.72 Z M337.36,31.52 C337.4,32.4400046 337.633331,33.1066646 338.06,33.52 C338.486669,33.9333354 339.099996,34.14 339.9,34.14 C340.473336,34.14 340.966665,33.9966681 341.38,33.71 C341.793335,33.4233319 342.046666,33.1200016 342.14,32.8 L344.64,32.8 C344.239998,34.0400062 343.626671,34.926664 342.8,35.46 C341.973329,35.993336 340.973339,36.26 339.8,36.26 C338.986663,36.26 338.253337,36.1300013 337.6,35.87 C336.946663,35.6099987 336.393336,35.2400024 335.94,34.76 C335.486664,34.2799976 335.136668,33.70667 334.89,33.04 C334.643332,32.37333 334.52,31.640004 334.52,30.84 C334.52,30.0666628 334.646665,29.34667 334.9,28.68 C335.153335,28.01333 335.513331,27.4366691 335.98,26.95 C336.446669,26.4633309 337.00333,26.0800014 337.65,25.8 C338.29667,25.5199986 339.013329,25.38 339.8,25.38 C340.680004,25.38 341.446663,25.5499983 342.1,25.89 C342.753337,26.2300017 343.289998,26.6866638 343.71,27.26 C344.130002,27.8333362 344.433332,28.486663 344.62,29.22 C344.806668,29.953337 344.873334,30.719996 344.82,31.52 L337.36,31.52 Z M345.88,28.84 C345.92,28.17333 346.086665,27.6200022 346.38,27.18 C346.673335,26.7399978 347.046664,26.386668 347.5,26.12 C347.953336,25.853332 348.46333,25.6633339 349.03,25.55 C349.59667,25.4366661 350.166664,25.38 350.74,25.38 C351.260003,25.38 351.786664,25.4166663 352.32,25.49 C352.853336,25.5633337 353.339998,25.7066656 353.78,25.92 C354.220002,26.1333344 354.579999,26.4299981 354.86,26.81 C355.140001,27.1900019 355.28,27.6933302 355.28,28.32 L355.28,33.7 C355.28,34.166669 355.306666,34.6133312 355.36,35.04 C355.413334,35.4666688 355.506666,35.7866656 355.64,36 L352.76,36 C352.706666,35.8399992 352.663334,35.6766675 352.63,35.51 C352.596666,35.3433325 352.573333,35.1733342 352.56,35 C352.106664,35.466669 351.573336,35.7933324 350.96,35.98 C350.346664,36.1666676 349.720003,36.26 349.08,36.26 C348.586664,36.26 348.126669,36.2000006 347.7,36.08 C347.273331,35.9599994 346.900002,35.7733346 346.58,35.52 C346.259998,35.2666654 346.010001,34.9466686 345.83,34.56 C345.649999,34.1733314 345.56,33.713336 345.56,33.18 C345.56,32.5933304 345.663332,32.1100019 345.87,31.73 C346.076668,31.3499981 346.343332,31.0466678 346.67,30.82 C346.996668,30.5933322 347.369998,30.4233339 347.79,30.31 C348.210002,30.1966661 348.633331,30.106667 349.06,30.04 C349.486669,29.973333 349.906665,29.9200002 350.32,29.88 C350.733335,29.8399998 351.099998,29.7800004 351.42,29.7 C351.740002,29.6199996 351.993332,29.5033341 352.18,29.35 C352.366668,29.1966659 352.453333,28.9733348 352.44,28.68 C352.44,28.3733318 352.39,28.1300009 352.29,27.95 C352.189999,27.7699991 352.056668,27.6300005 351.89,27.53 C351.723333,27.4299995 351.530001,27.3633335 351.31,27.33 C351.089999,27.2966665 350.853335,27.28 350.6,27.28 C350.039997,27.28 349.600002,27.3999988 349.28,27.64 C348.959998,27.8800012 348.773334,28.2799972 348.72,28.84 L345.88,28.84 Z M352.44,30.94 C352.319999,31.0466672 352.170001,31.1299997 351.99,31.19 C351.809999,31.2500003 351.616668,31.2999998 351.41,31.34 C351.203332,31.3800002 350.986668,31.4133332 350.76,31.44 C350.533332,31.4666668 350.306668,31.4999998 350.08,31.54 C349.866666,31.5800002 349.656668,31.633333 349.45,31.7 C349.243332,31.766667 349.063334,31.8566661 348.91,31.97 C348.756666,32.0833339 348.633334,32.2266658 348.54,32.4 C348.446666,32.5733342 348.4,32.793332 348.4,33.06 C348.4,33.3133346 348.446666,33.5266658 348.54,33.7 C348.633334,33.8733342 348.759999,34.0099995 348.92,34.11 C349.080001,34.2100005 349.266666,34.2799998 349.48,34.32 C349.693334,34.3600002 349.913332,34.38 350.14,34.38 C350.700003,34.38 351.133332,34.2866676 351.44,34.1 C351.746668,33.9133324 351.973333,33.6900013 352.12,33.43 C352.266667,33.1699987 352.356667,32.906668 352.39,32.64 C352.423334,32.373332 352.44,32.1600008 352.44,32 L352.44,30.94 Z M364.02,29.3 L366.8,29.3 C366.76,28.63333 366.600001,28.0566691 366.32,27.57 C366.039999,27.0833309 365.676669,26.6766683 365.23,26.35 C364.783331,26.0233317 364.27667,25.7800008 363.71,25.62 C363.14333,25.4599992 362.553336,25.38 361.94,25.38 C361.099996,25.38 360.353337,25.5199986 359.7,25.8 C359.046663,26.0800014 358.493336,26.4699975 358.04,26.97 C357.586664,27.4700025 357.243335,28.0633299 357.01,28.75 C356.776666,29.4366701 356.66,30.179996 356.66,30.98 C356.66,31.7533372 356.786665,32.4633301 357.04,33.11 C357.293335,33.7566699 357.646664,34.313331 358.1,34.78 C358.553336,35.246669 359.10333,35.6099987 359.75,35.87 C360.39667,36.1300013 361.106663,36.26 361.88,36.26 C363.25334,36.26 364.379996,35.9000036 365.26,35.18 C366.140004,34.4599964 366.673332,33.4133402 366.86,32.04 L364.12,32.04 C364.026666,32.6800032 363.796669,33.1899981 363.43,33.57 C363.063332,33.9500019 362.540003,34.14 361.86,34.14 C361.419998,34.14 361.046668,34.040001 360.74,33.84 C360.433332,33.639999 360.190001,33.3833349 360.01,33.07 C359.829999,32.7566651 359.7,32.4066686 359.62,32.02 C359.54,31.6333314 359.5,31.2533352 359.5,30.88 C359.5,30.4933314 359.54,30.1033353 359.62,29.71 C359.7,29.3166647 359.836666,28.9566683 360.03,28.63 C360.223334,28.3033317 360.473332,28.0366677 360.78,27.83 C361.086668,27.6233323 361.466664,27.52 361.92,27.52 C363.133339,27.52 363.833332,28.1133274 364.02,29.3 Z M371.56,25.66 L371.56,22.56 L368.72,22.56 L368.72,25.66 L367,25.66 L367,27.56 L368.72,27.56 L368.72,33.66 C368.72,34.1800026 368.806666,34.5999984 368.98,34.92 C369.153334,35.2400016 369.389998,35.4866658 369.69,35.66 C369.990002,35.8333342 370.336665,35.9499997 370.73,36.01 C371.123335,36.0700003 371.539998,36.1 371.98,36.1 C372.260001,36.1 372.546665,36.0933334 372.84,36.08 C373.133335,36.0666666 373.399999,36.0400002 373.64,36 L373.64,33.8 C373.506666,33.8266668 373.366667,33.8466666 373.22,33.86 C373.073333,33.8733334 372.920001,33.88 372.76,33.88 C372.279998,33.88 371.960001,33.8000008 371.8,33.64 C371.639999,33.4799992 371.56,33.1600024 371.56,32.68 L371.56,27.56 L373.64,27.56 L373.64,25.66 L371.56,25.66 Z M377.42,24.06 L377.42,21.72 L374.58,21.72 L374.58,24.06 L377.42,24.06 Z M374.58,25.66 L374.58,36 L377.42,36 L377.42,25.66 L374.58,25.66 Z M381.68,30.84 C381.68,31.2533354 381.72,31.6566647 381.8,32.05 C381.88,32.4433353 382.016666,32.7966651 382.21,33.11 C382.403334,33.4233349 382.659998,33.6733324 382.98,33.86 C383.300002,34.0466676 383.699998,34.14 384.18,34.14 C384.660002,34.14 385.063332,34.0466676 385.39,33.86 C385.716668,33.6733324 385.976666,33.4233349 386.17,33.11 C386.363334,32.7966651 386.5,32.4433353 386.58,32.05 C386.66,31.6566647 386.7,31.2533354 386.7,30.84 C386.7,30.4266646 386.66,30.020002 386.58,29.62 C386.5,29.219998 386.363334,28.8666682 386.17,28.56 C385.976666,28.2533318 385.716668,28.0033343 385.39,27.81 C385.063332,27.6166657 384.660002,27.52 384.18,27.52 C383.699998,27.52 383.300002,27.6166657 382.98,27.81 C382.659998,28.0033343 382.403334,28.2533318 382.21,28.56 C382.016666,28.8666682 381.88,29.219998 381.8,29.62 C381.72,30.020002 381.68,30.4266646 381.68,30.84 Z M378.84,30.84 C378.84,30.0133292 378.966665,29.2633367 379.22,28.59 C379.473335,27.9166633 379.833331,27.3433357 380.3,26.87 C380.766669,26.3966643 381.326663,26.0300013 381.98,25.77 C382.633337,25.5099987 383.366663,25.38 384.18,25.38 C384.993337,25.38 385.729997,25.5099987 386.39,25.77 C387.050003,26.0300013 387.613331,26.3966643 388.08,26.87 C388.546669,27.3433357 388.906665,27.9166633 389.16,28.59 C389.413335,29.2633367 389.54,30.0133292 389.54,30.84 C389.54,31.6666708 389.413335,32.41333 389.16,33.08 C388.906665,33.74667 388.546669,34.3166643 388.08,34.79 C387.613331,35.2633357 387.050003,35.6266654 386.39,35.88 C385.729997,36.1333346 384.993337,36.26 384.18,36.26 C383.366663,36.26 382.633337,36.1333346 381.98,35.88 C381.326663,35.6266654 380.766669,35.2633357 380.3,34.79 C379.833331,34.3166643 379.473335,33.74667 379.22,33.08 C378.966665,32.41333 378.84,31.6666708 378.84,30.84 Z M390.88,25.66 L390.88,36 L393.72,36 L393.72,30.58 C393.72,29.5266614 393.893332,28.7700023 394.24,28.31 C394.586668,27.8499977 395.146663,27.62 395.92,27.62 C396.600003,27.62 397.073332,27.8299979 397.34,28.25 C397.606668,28.6700021 397.74,29.3066624 397.74,30.16 L397.74,36 L400.58,36 L400.58,29.64 C400.58,28.9999968 400.523334,28.4166693 400.41,27.89 C400.296666,27.3633307 400.100001,26.9166685 399.82,26.55 C399.539999,26.1833315 399.156669,25.8966677 398.67,25.69 C398.183331,25.4833323 397.560004,25.38 396.8,25.38 C396.199997,25.38 395.613336,25.5166653 395.04,25.79 C394.466664,26.0633347 394.000002,26.499997 393.64,27.1 L393.58,27.1 L393.58,25.66 L390.88,25.66 Z M404.44,32.64 L401.74,32.64 C401.766667,33.3333368 401.923332,33.9099977 402.21,34.37 C402.496668,34.8300023 402.863331,35.1999986 403.31,35.48 C403.756669,35.7600014 404.266664,35.9599994 404.84,36.08 C405.413336,36.2000006 405.999997,36.26 406.6,36.26 C407.18667,36.26 407.763331,36.2033339 408.33,36.09 C408.89667,35.9766661 409.399998,35.7800014 409.84,35.5 C410.280002,35.2199986 410.636665,34.8500023 410.91,34.39 C411.183335,33.9299977 411.32,33.3600034 411.32,32.68 C411.32,32.1999976 411.226668,31.7966683 411.04,31.47 C410.853332,31.1433317 410.606668,30.8700011 410.3,30.65 C409.993332,30.4299989 409.643335,30.253334 409.25,30.12 C408.856665,29.986666 408.453335,29.8733338 408.04,29.78 C407.639998,29.6866662 407.246669,29.6000004 406.86,29.52 C406.473331,29.4399996 406.130002,29.3500005 405.83,29.25 C405.529999,29.1499995 405.286668,29.0200008 405.1,28.86 C404.913332,28.6999992 404.82,28.4933346 404.82,28.24 C404.82,28.0266656 404.873333,27.8566673 404.98,27.73 C405.086667,27.6033327 405.216666,27.506667 405.37,27.44 C405.523334,27.373333 405.693332,27.3300001 405.88,27.31 C406.066668,27.2899999 406.239999,27.28 406.4,27.28 C406.906669,27.28 407.346665,27.3766657 407.72,27.57 C408.093335,27.7633343 408.3,28.1333306 408.34,28.68 L411.04,28.68 C410.986666,28.0399968 410.823335,27.5100021 410.55,27.09 C410.276665,26.6699979 409.933335,26.3333346 409.52,26.08 C409.106665,25.8266654 408.636669,25.6466672 408.11,25.54 C407.583331,25.4333328 407.040003,25.38 406.48,25.38 C405.919997,25.38 405.373336,25.4299995 404.84,25.53 C404.306664,25.6300005 403.826669,25.8033321 403.4,26.05 C402.973331,26.2966679 402.630001,26.6333312 402.37,27.06 C402.109999,27.4866688 401.98,28.03333 401.98,28.7 C401.98,29.1533356 402.073332,29.5366651 402.26,29.85 C402.446668,30.1633349 402.693332,30.4233323 403,30.63 C403.306668,30.8366677 403.656665,31.0033327 404.05,31.13 C404.443335,31.2566673 404.846665,31.3666662 405.26,31.46 C406.273338,31.6733344 407.063331,31.8866656 407.63,32.1 C408.196669,32.3133344 408.48,32.6333312 408.48,33.06 C408.48,33.3133346 408.420001,33.5233325 408.3,33.69 C408.179999,33.8566675 408.030001,33.9899995 407.85,34.09 C407.669999,34.1900005 407.470001,34.2633331 407.25,34.31 C407.029999,34.3566669 406.820001,34.38 406.62,34.38 C406.339999,34.38 406.070001,34.346667 405.81,34.28 C405.549999,34.213333 405.320001,34.1100007 405.12,33.97 C404.919999,33.8299993 404.756667,33.6500011 404.63,33.43 C404.503333,33.2099989 404.44,32.9466682 404.44,32.64 Z" id="text-about-2"></path>
            </g>
        </g>
    </g>
</svg>