<?xml version="1.0" encoding="UTF-8"?>
<svg width="148px" height="19px" viewBox="0 0 148 19" version="1.1" xmlns="http://www.w3.org/2000/svg" xmlns:xlink="http://www.w3.org/1999/xlink">
    <!-- Generator: Sketch 46.1 (44463) - http://www.bohemiancoding.com/sketch -->
    <title>text-about-1</title>
    <desc>Created with Sketch.</desc>
    <defs></defs>
    <g id="Desktop" stroke="none" stroke-width="1" fill="none" fill-rule="evenodd">
        <g id="01-MAIN" transform="translate(-251.000000, -637.000000)" fill="#212630">
            <g id="Sub" transform="translate(250.000000, 616.000000)">
                <path d="M4.52,28.44 L6.96,28.44 C7.3200018,28.44 7.666665,28.4133336 8,28.36 C8.333335,28.3066664 8.6266654,28.2033341 8.88,28.05 C9.1333346,27.8966659 9.3366659,27.6800014 9.49,27.4 C9.6433341,27.1199986 9.72,26.7533356 9.72,26.3 C9.72,25.8466644 9.6433341,25.4800014 9.49,25.2 C9.3366659,24.9199986 9.1333346,24.7033341 8.88,24.55 C8.6266654,24.3966659 8.333335,24.2933336 8,24.24 C7.666665,24.1866664 7.3200018,24.16 6.96,24.16 L4.52,24.16 L4.52,28.44 Z M1.38,21.72 L7.82,21.72 C8.7133378,21.72 9.4733302,21.8499987 10.1,22.11 C10.7266698,22.3700013 11.2366647,22.7133312 11.63,23.14 C12.0233353,23.5666688 12.3099991,24.0533306 12.49,24.6 C12.6700009,25.1466694 12.76,25.7133304 12.76,26.3 C12.76,26.8733362 12.6700009,27.4366639 12.49,27.99 C12.3099991,28.5433361 12.0233353,29.0333312 11.63,29.46 C11.2366647,29.8866688 10.7266698,30.2299987 10.1,30.49 C9.4733302,30.7500013 8.7133378,30.88 7.82,30.88 L4.52,30.88 L4.52,36 L1.38,36 L1.38,21.72 Z M20.88,29.72 C20.746666,28.9999964 20.5100017,28.4533352 20.17,28.08 C19.8299983,27.7066648 19.3133368,27.52 18.62,27.52 C18.1666644,27.52 17.7900015,27.5966659 17.49,27.75 C17.1899985,27.9033341 16.9500009,28.0933322 16.77,28.32 C16.5899991,28.5466678 16.4633337,28.7866654 16.39,29.04 C16.3166663,29.2933346 16.2733334,29.519999 16.26,29.72 L20.88,29.72 Z M16.26,31.52 C16.3000002,32.4400046 16.5333312,33.1066646 16.96,33.52 C17.3866688,33.9333354 17.999996,34.14 18.8,34.14 C19.3733362,34.14 19.8666646,33.9966681 20.28,33.71 C20.6933354,33.4233319 20.9466662,33.1200016 21.04,32.8 L23.54,32.8 C23.139998,34.0400062 22.5266708,34.926664 21.7,35.46 C20.8733292,35.993336 19.8733392,36.26 18.7,36.26 C17.8866626,36.26 17.1533366,36.1300013 16.5,35.87 C15.8466634,35.6099987 15.2933356,35.2400024 14.84,34.76 C14.3866644,34.2799976 14.0366679,33.70667 13.79,33.04 C13.5433321,32.37333 13.42,31.640004 13.42,30.84 C13.42,30.0666628 13.5466654,29.34667 13.8,28.68 C14.0533346,28.01333 14.413331,27.4366691 14.88,26.95 C15.346669,26.4633309 15.9033301,26.0800014 16.55,25.8 C17.1966699,25.5199986 17.9133294,25.38 18.7,25.38 C19.5800044,25.38 20.3466634,25.5499983 21,25.89 C21.6533366,26.2300017 22.1899979,26.6866638 22.61,27.26 C23.0300021,27.8333362 23.3333324,28.486663 23.52,29.22 C23.7066676,29.953337 23.7733336,30.719996 23.72,31.52 L16.26,31.52 Z M24.9,25.66 L24.9,36 L27.74,36 L27.74,31.34 C27.74,30.873331 27.7866662,30.440002 27.88,30.04 C27.9733338,29.639998 28.1299989,29.2900015 28.35,28.99 C28.5700011,28.6899985 28.8599982,28.4533342 29.22,28.28 C29.5800018,28.1066658 30.0199974,28.02 30.54,28.02 C30.7133342,28.02 30.8933324,28.0299999 31.08,28.05 C31.2666676,28.0700001 31.426666,28.0933332 31.56,28.12 L31.56,25.48 C31.3333322,25.413333 31.1266676,25.38 30.94,25.38 C30.5799982,25.38 30.233335,25.4333328 29.9,25.54 C29.566665,25.6466672 29.2533348,25.7966657 28.96,25.99 C28.6666652,26.1833343 28.4066678,26.4166653 28.18,26.69 C27.9533322,26.9633347 27.773334,27.2599984 27.64,27.58 L27.6,27.58 L27.6,25.66 L24.9,25.66 Z M34.38,32.64 L31.68,32.64 C31.7066668,33.3333368 31.8633319,33.9099977 32.15,34.37 C32.4366681,34.8300023 32.8033311,35.1999986 33.25,35.48 C33.6966689,35.7600014 34.2066638,35.9599994 34.78,36.08 C35.3533362,36.2000006 35.939997,36.26 36.54,36.26 C37.1266696,36.26 37.7033305,36.2033339 38.27,36.09 C38.8366695,35.9766661 39.3399978,35.7800014 39.78,35.5 C40.2200022,35.2199986 40.5766653,34.8500023 40.85,34.39 C41.1233347,33.9299977 41.26,33.3600034 41.26,32.68 C41.26,32.1999976 41.1666676,31.7966683 40.98,31.47 C40.7933324,31.1433317 40.5466682,30.8700011 40.24,30.65 C39.9333318,30.4299989 39.5833353,30.253334 39.19,30.12 C38.7966647,29.986666 38.3933354,29.8733338 37.98,29.78 C37.579998,29.6866662 37.1866686,29.6000004 36.8,29.52 C36.4133314,29.4399996 36.0700015,29.3500005 35.77,29.25 C35.4699985,29.1499995 35.2266676,29.0200008 35.04,28.86 C34.8533324,28.6999992 34.76,28.4933346 34.76,28.24 C34.76,28.0266656 34.8133328,27.8566673 34.92,27.73 C35.0266672,27.6033327 35.1566659,27.506667 35.31,27.44 C35.4633341,27.373333 35.6333324,27.3300001 35.82,27.31 C36.0066676,27.2899999 36.1799992,27.28 36.34,27.28 C36.8466692,27.28 37.2866648,27.3766657 37.66,27.57 C38.0333352,27.7633343 38.2399998,28.1333306 38.28,28.68 L40.98,28.68 C40.9266664,28.0399968 40.7633347,27.5100021 40.49,27.09 C40.2166653,26.6699979 39.8733354,26.3333346 39.46,26.08 C39.0466646,25.8266654 38.5766693,25.6466672 38.05,25.54 C37.5233307,25.4333328 36.9800028,25.38 36.42,25.38 C35.8599972,25.38 35.313336,25.4299995 34.78,25.53 C34.246664,25.6300005 33.7666688,25.8033321 33.34,26.05 C32.9133312,26.2966679 32.5700013,26.6333312 32.31,27.06 C32.0499987,27.4866688 31.92,28.03333 31.92,28.7 C31.92,29.1533356 32.0133324,29.5366651 32.2,29.85 C32.3866676,30.1633349 32.6333318,30.4233323 32.94,30.63 C33.2466682,30.8366677 33.5966647,31.0033327 33.99,31.13 C34.3833353,31.2566673 34.7866646,31.3666662 35.2,31.46 C36.2133384,31.6733344 37.0033305,31.8866656 37.57,32.1 C38.1366695,32.3133344 38.42,32.6333312 38.42,33.06 C38.42,33.3133346 38.3600006,33.5233325 38.24,33.69 C38.1199994,33.8566675 37.9700009,33.9899995 37.79,34.09 C37.6099991,34.1900005 37.4100011,34.2633331 37.19,34.31 C36.9699989,34.3566669 36.760001,34.38 36.56,34.38 C36.2799986,34.38 36.0100013,34.346667 35.75,34.28 C35.4899987,34.213333 35.260001,34.1100007 35.06,33.97 C34.859999,33.8299993 34.6966673,33.6500011 34.57,33.43 C34.4433327,33.2099989 34.38,32.9466682 34.38,32.64 Z M44.94,30.84 C44.94,31.2533354 44.9799996,31.6566647 45.06,32.05 C45.1400004,32.4433353 45.2766657,32.7966651 45.47,33.11 C45.6633343,33.4233349 45.9199984,33.6733324 46.24,33.86 C46.5600016,34.0466676 46.9599976,34.14 47.44,34.14 C47.9200024,34.14 48.3233317,34.0466676 48.65,33.86 C48.9766683,33.6733324 49.2366657,33.4233349 49.43,33.11 C49.6233343,32.7966651 49.7599996,32.4433353 49.84,32.05 C49.9200004,31.6566647 49.96,31.2533354 49.96,30.84 C49.96,30.4266646 49.9200004,30.020002 49.84,29.62 C49.7599996,29.219998 49.6233343,28.8666682 49.43,28.56 C49.2366657,28.2533318 48.9766683,28.0033343 48.65,27.81 C48.3233317,27.6166657 47.9200024,27.52 47.44,27.52 C46.9599976,27.52 46.5600016,27.6166657 46.24,27.81 C45.9199984,28.0033343 45.6633343,28.2533318 45.47,28.56 C45.2766657,28.8666682 45.1400004,29.219998 45.06,29.62 C44.9799996,30.020002 44.94,30.4266646 44.94,30.84 Z M42.1,30.84 C42.1,30.0133292 42.2266654,29.2633367 42.48,28.59 C42.7333346,27.9166633 43.093331,27.3433357 43.56,26.87 C44.026669,26.3966643 44.5866634,26.0300013 45.24,25.77 C45.8933366,25.5099987 46.6266626,25.38 47.44,25.38 C48.2533374,25.38 48.9899967,25.5099987 49.65,25.77 C50.3100033,26.0300013 50.873331,26.3966643 51.34,26.87 C51.806669,27.3433357 52.1666654,27.9166633 52.42,28.59 C52.6733346,29.2633367 52.8,30.0133292 52.8,30.84 C52.8,31.6666708 52.6733346,32.41333 52.42,33.08 C52.1666654,33.74667 51.806669,34.3166643 51.34,34.79 C50.873331,35.2633357 50.3100033,35.6266654 49.65,35.88 C48.9899967,36.1333346 48.2533374,36.26 47.44,36.26 C46.6266626,36.26 45.8933366,36.1333346 45.24,35.88 C44.5866634,35.6266654 44.026669,35.2633357 43.56,34.79 C43.093331,34.3166643 42.7333346,33.74667 42.48,33.08 C42.2266654,32.41333 42.1,31.6666708 42.1,30.84 Z M54.14,25.66 L54.14,36 L56.98,36 L56.98,30.58 C56.98,29.5266614 57.1533316,28.7700023 57.5,28.31 C57.8466684,27.8499977 58.4066628,27.62 59.18,27.62 C59.8600034,27.62 60.333332,27.8299979 60.6,28.25 C60.866668,28.6700021 61,29.3066624 61,30.16 L61,36 L63.84,36 L63.84,29.64 C63.84,28.9999968 63.7833339,28.4166693 63.67,27.89 C63.5566661,27.3633307 63.3600014,26.9166685 63.08,26.55 C62.7999986,26.1833315 62.4166691,25.8966677 61.93,25.69 C61.4433309,25.4833323 60.8200038,25.38 60.06,25.38 C59.459997,25.38 58.8733362,25.5166653 58.3,25.79 C57.7266638,26.0633347 57.2600018,26.499997 56.9,27.1 L56.84,27.1 L56.84,25.66 L54.14,25.66 Z M65.38,28.84 C65.4200002,28.17333 65.5866652,27.6200022 65.88,27.18 C66.1733348,26.7399978 66.5466644,26.386668 67,26.12 C67.4533356,25.853332 67.9633305,25.6633339 68.53,25.55 C69.0966695,25.4366661 69.6666638,25.38 70.24,25.38 C70.7600026,25.38 71.286664,25.4166663 71.82,25.49 C72.353336,25.5633337 72.8399978,25.7066656 73.28,25.92 C73.7200022,26.1333344 74.0799986,26.4299981 74.36,26.81 C74.6400014,27.1900019 74.78,27.6933302 74.78,28.32 L74.78,33.7 C74.78,34.166669 74.8066664,34.6133312 74.86,35.04 C74.9133336,35.4666688 75.006666,35.7866656 75.14,36 L72.26,36 C72.2066664,35.8399992 72.1633335,35.6766675 72.13,35.51 C72.0966665,35.3433325 72.0733334,35.1733342 72.06,35 C71.6066644,35.466669 71.0733364,35.7933324 70.46,35.98 C69.8466636,36.1666676 69.2200032,36.26 68.58,36.26 C68.0866642,36.26 67.6266688,36.2000006 67.2,36.08 C66.7733312,35.9599994 66.4000016,35.7733346 66.08,35.52 C65.7599984,35.2666654 65.5100009,34.9466686 65.33,34.56 C65.1499991,34.1733314 65.06,33.713336 65.06,33.18 C65.06,32.5933304 65.1633323,32.1100019 65.37,31.73 C65.5766677,31.3499981 65.8433317,31.0466678 66.17,30.82 C66.4966683,30.5933322 66.8699979,30.4233339 67.29,30.31 C67.7100021,30.1966661 68.1333312,30.106667 68.56,30.04 C68.9866688,29.973333 69.4066646,29.9200002 69.82,29.88 C70.2333354,29.8399998 70.5999984,29.7800004 70.92,29.7 C71.2400016,29.6199996 71.4933324,29.5033341 71.68,29.35 C71.8666676,29.1966659 71.9533334,28.9733348 71.94,28.68 C71.94,28.3733318 71.8900005,28.1300009 71.79,27.95 C71.6899995,27.7699991 71.5566675,27.6300005 71.39,27.53 C71.2233325,27.4299995 71.0300011,27.3633335 70.81,27.33 C70.5899989,27.2966665 70.3533346,27.28 70.1,27.28 C69.5399972,27.28 69.1000016,27.3999988 68.78,27.64 C68.4599984,27.8800012 68.2733336,28.2799972 68.22,28.84 L65.38,28.84 Z M71.94,30.94 C71.8199994,31.0466672 71.6700009,31.1299997 71.49,31.19 C71.3099991,31.2500003 71.1166677,31.2999998 70.91,31.34 C70.7033323,31.3800002 70.4866678,31.4133332 70.26,31.44 C70.0333322,31.4666668 69.8066678,31.4999998 69.58,31.54 C69.3666656,31.5800002 69.1566677,31.633333 68.95,31.7 C68.7433323,31.766667 68.5633341,31.8566661 68.41,31.97 C68.2566659,32.0833339 68.1333338,32.2266658 68.04,32.4 C67.9466662,32.5733342 67.9,32.793332 67.9,33.06 C67.9,33.3133346 67.9466662,33.5266658 68.04,33.7 C68.1333338,33.8733342 68.2599992,34.0099995 68.42,34.11 C68.5800008,34.2100005 68.7666656,34.2799998 68.98,34.32 C69.1933344,34.3600002 69.4133322,34.38 69.64,34.38 C70.2000028,34.38 70.6333318,34.2866676 70.94,34.1 C71.2466682,33.9133324 71.4733326,33.6900013 71.62,33.43 C71.7666674,33.1699987 71.8566665,32.906668 71.89,32.64 C71.9233335,32.373332 71.94,32.1600008 71.94,32 L71.94,30.94 Z M76.56,21.72 L76.56,36 L79.4,36 L79.4,21.72 L76.56,21.72 Z M96.82,34.38 L97.14,36 L99.14,36 L99.14,28.28 L93.14,28.28 L93.14,30.62 L96.3,30.62 C96.2066662,31.620005 95.8766695,32.3833307 95.31,32.91 C94.7433305,33.4366693 93.9400052,33.7 92.9,33.7 C92.1933298,33.7 91.5933358,33.5633347 91.1,33.29 C90.6066642,33.0166653 90.2066682,32.6533356 89.9,32.2 C89.5933318,31.7466644 89.3700007,31.2366695 89.23,30.67 C89.0899993,30.1033305 89.02,29.520003 89.02,28.92 C89.02,28.2933302 89.0899993,27.6866696 89.23,27.1 C89.3700007,26.5133304 89.5933318,25.9900023 89.9,25.53 C90.2066682,25.0699977 90.6066642,24.7033347 91.1,24.43 C91.5933358,24.1566653 92.1933298,24.02 92.9,24.02 C93.6600038,24.02 94.306664,24.219998 94.84,24.62 C95.373336,25.020002 95.7333324,25.619996 95.92,26.42 L98.92,26.42 C98.8399996,25.6066626 98.6200018,24.8866698 98.26,24.26 C97.8999982,23.6333302 97.4433361,23.1066688 96.89,22.68 C96.3366639,22.2533312 95.7166701,21.9300011 95.03,21.71 C94.3433299,21.4899989 93.633337,21.38 92.9,21.38 C91.8066612,21.38 90.8233377,21.5733314 89.95,21.96 C89.0766623,22.3466686 88.340003,22.8799966 87.74,23.56 C87.139997,24.2400034 86.6800016,25.0366621 86.36,25.95 C86.0399984,26.8633379 85.88,27.853328 85.88,28.92 C85.88,29.9600052 86.0399984,30.9299955 86.36,31.83 C86.6800016,32.7300045 87.139997,33.51333 87.74,34.18 C88.340003,34.84667 89.0766623,35.3699981 89.95,35.75 C90.8233377,36.1300019 91.8066612,36.32 92.9,36.32 C93.5933368,36.32 94.2799966,36.1766681 94.96,35.89 C95.6400034,35.6033319 96.2599972,35.1000036 96.82,34.38 Z M100.76,28.84 C100.8,28.17333 100.966665,27.6200022 101.26,27.18 C101.553335,26.7399978 101.926664,26.386668 102.38,26.12 C102.833336,25.853332 103.343331,25.6633339 103.91,25.55 C104.47667,25.4366661 105.046664,25.38 105.62,25.38 C106.140003,25.38 106.666664,25.4166663 107.2,25.49 C107.733336,25.5633337 108.219998,25.7066656 108.66,25.92 C109.100002,26.1333344 109.459999,26.4299981 109.74,26.81 C110.020001,27.1900019 110.16,27.6933302 110.16,28.32 L110.16,33.7 C110.16,34.166669 110.186666,34.6133312 110.24,35.04 C110.293334,35.4666688 110.386666,35.7866656 110.52,36 L107.64,36 C107.586666,35.8399992 107.543334,35.6766675 107.51,35.51 C107.476667,35.3433325 107.453333,35.1733342 107.44,35 C106.986664,35.466669 106.453336,35.7933324 105.84,35.98 C105.226664,36.1666676 104.600003,36.26 103.96,36.26 C103.466664,36.26 103.006669,36.2000006 102.58,36.08 C102.153331,35.9599994 101.780002,35.7733346 101.46,35.52 C101.139998,35.2666654 100.890001,34.9466686 100.71,34.56 C100.529999,34.1733314 100.44,33.713336 100.44,33.18 C100.44,32.5933304 100.543332,32.1100019 100.75,31.73 C100.956668,31.3499981 101.223332,31.0466678 101.55,30.82 C101.876668,30.5933322 102.249998,30.4233339 102.67,30.31 C103.090002,30.1966661 103.513331,30.106667 103.94,30.04 C104.366669,29.973333 104.786665,29.9200002 105.2,29.88 C105.613335,29.8399998 105.979998,29.7800004 106.3,29.7 C106.620002,29.6199996 106.873332,29.5033341 107.06,29.35 C107.246668,29.1966659 107.333333,28.9733348 107.32,28.68 C107.32,28.3733318 107.270001,28.1300009 107.17,27.95 C107.07,27.7699991 106.936668,27.6300005 106.77,27.53 C106.603333,27.4299995 106.410001,27.3633335 106.19,27.33 C105.969999,27.2966665 105.733335,27.28 105.48,27.28 C104.919997,27.28 104.480002,27.3999988 104.16,27.64 C103.839998,27.8800012 103.653334,28.2799972 103.6,28.84 L100.76,28.84 Z M107.32,30.94 C107.199999,31.0466672 107.050001,31.1299997 106.87,31.19 C106.689999,31.2500003 106.496668,31.2999998 106.29,31.34 C106.083332,31.3800002 105.866668,31.4133332 105.64,31.44 C105.413332,31.4666668 105.186668,31.4999998 104.96,31.54 C104.746666,31.5800002 104.536668,31.633333 104.33,31.7 C104.123332,31.766667 103.943334,31.8566661 103.79,31.97 C103.636666,32.0833339 103.513334,32.2266658 103.42,32.4 C103.326666,32.5733342 103.28,32.793332 103.28,33.06 C103.28,33.3133346 103.326666,33.5266658 103.42,33.7 C103.513334,33.8733342 103.639999,34.0099995 103.8,34.11 C103.960001,34.2100005 104.146666,34.2799998 104.36,34.32 C104.573334,34.3600002 104.793332,34.38 105.02,34.38 C105.580003,34.38 106.013332,34.2866676 106.32,34.1 C106.626668,33.9133324 106.853333,33.6900013 107,33.43 C107.146667,33.1699987 107.236667,32.906668 107.27,32.64 C107.303334,32.373332 107.32,32.1600008 107.32,32 L107.32,30.94 Z M111.94,21.72 L111.94,36 L114.78,36 L114.78,21.72 L111.94,21.72 Z M116.6,21.72 L116.6,36 L119.44,36 L119.44,21.72 L116.6,21.72 Z M128.14,29.72 C128.006666,28.9999964 127.770002,28.4533352 127.43,28.08 C127.089998,27.7066648 126.573337,27.52 125.88,27.52 C125.426664,27.52 125.050002,27.5966659 124.75,27.75 C124.449999,27.9033341 124.210001,28.0933322 124.03,28.32 C123.849999,28.5466678 123.723334,28.7866654 123.65,29.04 C123.576666,29.2933346 123.533333,29.519999 123.52,29.72 L128.14,29.72 Z M123.52,31.52 C123.56,32.4400046 123.793331,33.1066646 124.22,33.52 C124.646669,33.9333354 125.259996,34.14 126.06,34.14 C126.633336,34.14 127.126665,33.9966681 127.54,33.71 C127.953335,33.4233319 128.206666,33.1200016 128.3,32.8 L130.8,32.8 C130.399998,34.0400062 129.786671,34.926664 128.96,35.46 C128.133329,35.993336 127.133339,36.26 125.96,36.26 C125.146663,36.26 124.413337,36.1300013 123.76,35.87 C123.106663,35.6099987 122.553336,35.2400024 122.1,34.76 C121.646664,34.2799976 121.296668,33.70667 121.05,33.04 C120.803332,32.37333 120.68,31.640004 120.68,30.84 C120.68,30.0666628 120.806665,29.34667 121.06,28.68 C121.313335,28.01333 121.673331,27.4366691 122.14,26.95 C122.606669,26.4633309 123.16333,26.0800014 123.81,25.8 C124.45667,25.5199986 125.173329,25.38 125.96,25.38 C126.840004,25.38 127.606663,25.5499983 128.26,25.89 C128.913337,26.2300017 129.449998,26.6866638 129.87,27.26 C130.290002,27.8333362 130.593332,28.486663 130.78,29.22 C130.966668,29.953337 131.033334,30.719996 130.98,31.52 L123.52,31.52 Z M132.16,25.66 L134.86,25.66 L134.86,27.58 L134.9,27.58 C135.033334,27.2599984 135.213332,26.9633347 135.44,26.69 C135.666668,26.4166653 135.926665,26.1833343 136.22,25.99 C136.513335,25.7966657 136.826665,25.6466672 137.16,25.54 C137.493335,25.4333328 137.839998,25.38 138.2,25.38 C138.386668,25.38 138.593332,25.413333 138.82,25.48 L138.82,28.12 C138.686666,28.0933332 138.526668,28.0700001 138.34,28.05 C138.153332,28.0299999 137.973334,28.02 137.8,28.02 C137.279997,28.02 136.840002,28.1066658 136.48,28.28 C136.119998,28.4533342 135.830001,28.6899985 135.61,28.99 C135.389999,29.2900015 135.233334,29.639998 135.14,30.04 C135.046666,30.440002 135,30.873331 135,31.34 L135,36 L132.16,36 L132.16,25.66 Z M144.54,37.28 C144.233332,38.1200042 143.806669,38.7199982 143.26,39.08 C142.713331,39.4400018 141.953338,39.62 140.98,39.62 C140.686665,39.62 140.396668,39.6100001 140.11,39.59 C139.823332,39.5699999 139.533335,39.5466668 139.24,39.52 L139.24,37.18 C139.506668,37.2066668 139.779999,37.2333332 140.06,37.26 C140.340001,37.2866668 140.619999,37.2933334 140.9,37.28 C141.273335,37.2399998 141.549999,37.0933346 141.73,36.84 C141.910001,36.5866654 142,36.3066682 142,36 C142,35.7733322 141.96,35.560001 141.88,35.36 L138.26,25.66 L141.28,25.66 L143.62,32.74 L143.66,32.74 L145.92,25.66 L148.86,25.66 L144.54,37.28 Z" id="text-about-1"></path>
            </g>
        </g>
    </g>
</svg>