<?xml version="1.0" encoding="UTF-8"?>
<svg width="232px" height="39px" viewBox="0 0 232 39" version="1.1" xmlns="http://www.w3.org/2000/svg" xmlns:xlink="http://www.w3.org/1999/xlink">
    <!-- Generator: Sketch 46.1 (44463) - http://www.bohemiancoding.com/sketch -->
    <title>작품보기</title>
    <desc>Created with Sketch.</desc>
    <defs></defs>
    <g id="Desktop" stroke="none" stroke-width="1" fill="none" fill-rule="evenodd">
        <g id="03-UPLOAD" transform="translate(-250.000000, -119.000000)" fill="#212630">
            <g id="Header" transform="translate(0.000000, 112.000000)">
                <path d="M279.6,12.2 L279.6,20.68 C280.213336,20.6533332 280.799997,20.5866672 281.36,20.48 C281.920003,20.3733328 282.399998,20.1600016 282.8,19.84 C282.933334,19.6533324 283.379996,19.5466668 284.14,19.52 C284.900004,19.4933332 285.57333,19.5199996 286.16,19.6 C286.82667,19.7600008 287.313332,20.0199982 287.62,20.38 C287.926668,20.7400018 288.04,21.0933316 287.96,21.44 C287.906666,21.8133352 287.686669,22.133332 287.3,22.4 C286.913331,22.666668 286.38667,22.8 285.72,22.8 L279.6,22.8 L279.6,23.64 C279.546666,26.0933456 279.253336,27.8266616 278.72,28.84 C278.186664,29.8533384 277.613336,30.3733332 277,30.4 C276.466664,30.4266668 276.066668,30.0666704 275.8,29.32 C275.533332,28.5733296 275.386667,27.1200108 275.36,24.96 L275.36,12.88 C275.36,12.2933304 275.293334,11.7866688 275.16,11.36 C275.026666,10.9333312 274.800002,10.6000012 274.48,10.36 C274.053331,10.0399984 273.560003,9.780001 273,9.58 C272.439997,9.379999 271.86667,9.2266672 271.28,9.12 C271.066666,9.0933332 270.92,8.9866676 270.84,8.8 C270.76,8.6133324 270.746666,8.4133344 270.8,8.2 C270.853334,8.0133324 270.973332,7.8333342 271.16,7.66 C271.346668,7.4866658 271.586665,7.4 271.88,7.4 C272.360002,7.4 272.939997,7.433333 273.62,7.5 C274.300003,7.566667 274.986663,7.6399996 275.68,7.72 C276.373337,7.8266672 277.05333,7.9399994 277.72,8.06 C278.38667,8.1800006 278.973331,8.2933328 279.48,8.4 C279.693334,8.4800004 279.84,8.653332 279.92,8.92 C280,9.186668 280,9.453332 279.92,9.72 C279.786666,10.120002 279.7,10.5333312 279.66,10.96 C279.62,11.3866688 279.6,11.799998 279.6,12.2 Z M279.28,39.24 C279.28,41.1600096 279.000003,42.6799944 278.44,43.8 C277.879997,44.9200056 277.280003,45.4933332 276.64,45.52 C276.133331,45.5733336 275.706668,45.1600044 275.36,44.28 C275.013332,43.3999956 274.84,42.226674 274.84,40.76 L274.84,34.28 C273.399993,34.3066668 271.820009,34.3599996 270.1,34.44 C268.379991,34.5200004 266.840007,34.626666 265.48,34.76 C265.239999,34.7866668 265.026668,34.8266664 264.84,34.88 L264.28,35.04 C264.093332,35.0933336 263.920001,35.1599996 263.76,35.24 C263.599999,35.3200004 263.440001,35.3866664 263.28,35.44 C262.986665,35.5200004 262.673335,35.5866664 262.34,35.64 C262.006665,35.6933336 261.613336,35.6400008 261.16,35.48 C260.679998,35.3733328 260.140003,35.1800014 259.54,34.9 C258.939997,34.6199986 258.253337,34.2266692 257.48,33.72 C256.706663,33.2399976 256.419999,32.7800022 256.62,32.34 C256.820001,31.8999978 257.413328,31.7733324 258.4,31.96 C258.906669,32.0400004 259.613329,32.113333 260.52,32.18 C261.426671,32.246667 262.373328,32.28 263.36,32.28 L269.12,32.28 C270.026671,32.2533332 270.886663,32.2133336 271.7,32.16 C272.513337,32.1066664 273.239997,32.013334 273.88,31.88 C273.96,31.88 274.053333,31.8533336 274.16,31.8 C274.266667,31.7466664 274.373333,31.7066668 274.48,31.68 C274.586667,31.6266664 274.693333,31.5800002 274.8,31.54 C274.906667,31.4999998 275.026666,31.48 275.16,31.48 C275.453335,31.48 275.753332,31.4733334 276.06,31.46 C276.366668,31.4466666 276.679998,31.44 277,31.44 L277.82,31.44 C278.073335,31.44 278.306666,31.4533332 278.52,31.48 C279.053336,31.613334 279.386666,31.8333318 279.52,32.14 C279.653334,32.4466682 279.68,32.7733316 279.6,33.12 C279.52,33.386668 279.446667,33.6666652 279.38,33.96 C279.313333,34.2533348 279.28,34.5466652 279.28,34.84 L279.28,39.24 Z M265,21.48 C265.613336,21.880002 266.186664,22.2333318 266.72,22.54 C267.253336,22.8466682 267.639999,23.0533328 267.88,23.16 C268.013334,23.2133336 268.146666,23.2533332 268.28,23.28 C268.413334,23.3066668 268.533333,23.32 268.64,23.32 C268.72,23.3466668 268.806666,23.3533334 268.9,23.34 C268.993334,23.3266666 269.08,23.32 269.16,23.32 C269.24,23.3466668 269.353333,23.3866664 269.5,23.44 C269.646667,23.4933336 269.839999,23.5999992 270.08,23.76 C270.400002,23.9733344 270.713332,24.2399984 271.02,24.56 C271.326668,24.8800016 271.599999,25.1999984 271.84,25.52 C272.080001,25.8400016 272.279999,26.133332 272.44,26.4 C272.600001,26.666668 272.706666,26.8533328 272.76,26.96 C272.946668,27.4133356 273.006667,27.8266648 272.94,28.2 C272.873333,28.5733352 272.706668,28.8399992 272.44,29 C272.173332,29.1600008 271.813336,29.1866672 271.36,29.08 C270.906664,28.9733328 270.413336,28.6666692 269.88,28.16 C269.106663,27.5733304 268.100006,26.813338 266.86,25.88 C265.619994,24.946662 264.466672,24.1066704 263.4,23.36 C261.799992,24.7733404 260.106676,26.0933272 258.32,27.32 C256.533324,28.5466728 254.786675,29.5066632 253.08,30.2 C252.41333,30.5200016 251.886669,30.6866666 251.5,30.7 C251.113331,30.7133334 250.840001,30.653334 250.68,30.52 C250.519999,30.4133328 250.453333,30.2533344 250.48,30.04 C250.506667,29.8266656 250.626666,29.653334 250.84,29.52 C252.066673,28.7999964 253.359993,27.8866722 254.72,26.78 C256.080007,25.6733278 257.399994,24.4800064 258.68,23.2 C259.960006,21.8933268 261.139995,20.5200072 262.22,19.08 C263.300005,17.6399928 264.17333,16.2133404 264.84,14.8 C263.959996,14.8800004 263.20667,14.9466664 262.58,15 C261.95333,15.0533336 261.373336,15.1066664 260.84,15.16 C260.386664,15.2133336 259.880003,15.3199992 259.32,15.48 C258.759997,15.6400008 258.346668,15.786666 258.08,15.92 C257.919999,16.0800008 257.706668,16.1533334 257.44,16.14 C257.173332,16.1266666 256.853335,16.053334 256.48,15.92 C256.133332,15.8133328 255.726669,15.626668 255.26,15.36 C254.793331,15.093332 254.240003,14.760002 253.6,14.36 C252.799996,13.826664 252.486666,13.393335 252.66,13.06 C252.833334,12.726665 253.319996,12.5866664 254.12,12.64 C254.253334,12.6666668 254.486665,12.6933332 254.82,12.72 C255.153335,12.7466668 255.533331,12.7733332 255.96,12.8 C256.386669,12.8266668 256.846664,12.8466666 257.34,12.86 C257.833336,12.8733334 258.306664,12.88 258.76,12.88 C259.880006,12.88 260.866662,12.8733334 261.72,12.86 C262.573338,12.8466666 263.306664,12.773334 263.92,12.64 C263.973334,12.64 264.04,12.6333334 264.12,12.62 C264.2,12.6066666 264.28,12.5866668 264.36,12.56 C264.44,12.5333332 264.52,12.5133334 264.6,12.5 C264.68,12.4866666 264.76,12.4666668 264.84,12.44 C264.866667,12.44 264.913333,12.4200002 264.98,12.38 C265.046667,12.3399998 265.106666,12.3066668 265.16,12.28 C265.213334,12.2533332 265.28,12.2266668 265.36,12.2 C265.44,12.1733332 265.533333,12.16 265.64,12.16 C266.333337,12.16 267.039996,12.1733332 267.76,12.2 C268.480004,12.2266668 269.106664,12.2533332 269.64,12.28 C270.120002,12.3333336 270.393333,12.5733312 270.46,13 C270.526667,13.4266688 270.480001,13.839998 270.32,14.24 C270.24,14.4000008 270.16,14.5533326 270.08,14.7 C270,14.8466674 269.906667,14.986666 269.8,15.12 C269.693333,15.253334 269.593334,15.3933326 269.5,15.54 C269.406666,15.6866674 269.333334,15.8133328 269.28,15.92 C268.826664,16.7733376 268.240004,17.6733286 267.52,18.62 C266.799996,19.5666714 265.960005,20.5199952 265,21.48 Z M304.96,28.72 C303.599993,28.7466668 302.353339,28.7799998 301.22,28.82 C300.086661,28.8600002 299.14667,28.9066664 298.4,28.96 C298.159999,28.9866668 297.940001,29.0266664 297.74,29.08 C297.539999,29.1333336 297.346668,29.1866664 297.16,29.24 C296.973332,29.2933336 296.800001,29.353333 296.64,29.42 C296.479999,29.486667 296.320001,29.5466664 296.16,29.6 C295.759998,29.7600008 295.320002,29.8866662 294.84,29.98 C294.359998,30.0733338 293.800003,30.0000012 293.16,29.76 C292.653331,29.5999992 292.040004,29.3666682 291.32,29.06 C290.599996,28.7533318 289.880004,28.400002 289.16,28 C288.199995,27.4399972 287.813332,26.9333356 288,26.48 C288.186668,26.0266644 288.799995,25.866666 289.84,26 C290.720004,26.133334 291.813327,26.2399996 293.12,26.32 C294.426673,26.4000004 295.973324,26.44 297.76,26.44 C299.360008,26.44 300.926659,26.4466666 302.46,26.46 C303.993341,26.4733334 305.439993,26.48 306.8,26.48 C308.160007,26.48 309.386661,26.4733334 310.48,26.46 C311.573339,26.4466666 312.479996,26.4133336 313.2,26.36 C314.000004,26.3333332 314.659997,26.2933336 315.18,26.24 C315.700003,26.1866664 316.079999,26.1066672 316.32,26 C316.426667,25.9733332 316.566666,25.9200004 316.74,25.84 C316.913334,25.7599996 317.079999,25.6933336 317.24,25.64 C317.426668,25.5866664 317.606666,25.5333336 317.78,25.48 C317.953334,25.4266664 318.119999,25.3866668 318.28,25.36 C319.133338,25.3066664 320.006662,25.2999998 320.9,25.34 C321.793338,25.3800002 322.61333,25.4799992 323.36,25.64 C323.893336,25.773334 324.319998,25.9666654 324.64,26.22 C324.960002,26.4733346 325.093334,26.799998 325.04,27.2 C324.986666,27.7066692 324.773335,28.0799988 324.4,28.32 C324.026665,28.5600012 323.520003,28.68 322.88,28.68 C322.426664,28.68 321.90667,28.6733334 321.32,28.66 C320.73333,28.6466666 320.093337,28.64 319.4,28.64 C318.73333,28.6133332 318.020004,28.5933334 317.26,28.58 C316.499996,28.5666666 315.733337,28.56 314.96,28.56 C314.159996,28.56 313.306671,28.5666666 312.4,28.58 C311.493329,28.5933334 310.520005,28.6 309.48,28.6 L309.48,32.76 C309.720001,32.76 309.953332,32.7533334 310.18,32.74 C310.406668,32.7266666 310.626666,32.7066668 310.84,32.68 C311.026668,32.68 311.199999,32.6733334 311.36,32.66 C311.520001,32.6466666 311.679999,32.6266668 311.84,32.6 C311.92,32.6 311.993333,32.5866668 312.06,32.56 C312.126667,32.5333332 312.2,32.4933336 312.28,32.44 L312.52,32.36 C312.6,32.3333332 312.693333,32.3066668 312.8,32.28 C313.413336,32.2266664 314.133329,32.2133332 314.96,32.24 C315.786671,32.2666668 316.426664,32.3333328 316.88,32.44 C317.280002,32.6000008 317.506666,32.8199986 317.56,33.1 C317.613334,33.3800014 317.560001,33.6933316 317.4,34.04 C317.346666,34.173334 317.286667,34.306666 317.22,34.44 C317.153333,34.573334 317.093334,34.706666 317.04,34.84 C316.986666,34.973334 316.94,35.1133326 316.9,35.26 C316.86,35.4066674 316.84,35.5333328 316.84,35.64 L315.92,41.16 C316.320002,41.16 316.666665,41.2666656 316.96,41.48 C317.253335,41.6933344 317.4,41.9466652 317.4,42.24 C317.373333,42.5333348 317.193335,42.7999988 316.86,43.04 C316.526665,43.2800012 316.106669,43.4 315.6,43.4 C314.399994,43.4 313.120007,43.4066666 311.76,43.42 C310.399993,43.4333334 309.09334,43.44 307.84,43.44 C306.613327,43.4666668 305.513338,43.48 304.54,43.48 L302.48,43.48 C302.4,43.9600024 302.113336,44.3866648 301.62,44.76 C301.126664,45.1333352 300.720002,45.32 300.4,45.32 C299.893331,45.32 299.453335,45.1066688 299.08,44.68 C298.706665,44.2533312 298.493334,43.6666704 298.44,42.92 L297.84,35.88 C297.786666,35.3199972 297.586668,34.9200012 297.24,34.68 C296.893332,34.4399988 296.360004,34.2400008 295.64,34.08 C295.399999,34.0266664 295.24,33.9133342 295.16,33.74 C295.08,33.5666658 295.066666,33.3733344 295.12,33.16 C295.173334,32.9733324 295.293332,32.8000008 295.48,32.64 C295.666668,32.4799992 295.906665,32.3866668 296.2,32.36 C296.680002,32.3333332 297.25333,32.3399998 297.92,32.38 C298.58667,32.4200002 299.25333,32.4666664 299.92,32.52 C300.560003,32.5733336 301.153331,32.6266664 301.7,32.68 C302.246669,32.7333336 302.653332,32.7733332 302.92,32.8 C303.053334,32.8 303.193333,32.8066666 303.34,32.82 C303.486667,32.8333334 303.639999,32.84 303.8,32.84 L304.96,32.84 L304.96,28.72 Z M312.16,34.96 L302.4,35 L302.56,41.16 L312.12,41.16 L312.16,34.96 Z M318.76,10.76 C318.733333,11.2400024 318.553335,11.5866656 318.22,11.8 C317.886665,12.0133344 317.440003,12.1333332 316.88,12.16 C316.719999,12.1866668 316.313337,12.1933334 315.66,12.18 C315.006663,12.1666666 314.240004,12.16 313.36,12.16 C312.479996,12.1333332 311.553338,12.1133334 310.58,12.1 C309.606662,12.0866666 308.74667,12.08 308,12.08 C307.386664,12.08 306.820003,12.0933332 306.3,12.12 C305.779997,12.1466668 305.293336,12.1733332 304.84,12.2 C304.413331,12.2533336 304.006669,12.2999998 303.62,12.34 C303.233331,12.3800002 302.880002,12.4133332 302.56,12.44 C302.213332,12.4933336 301.880002,12.5733328 301.56,12.68 C301.239998,12.7866672 300.960001,12.906666 300.72,13.04 C300.559999,13.0933336 300.406667,13.1466664 300.26,13.2 C300.113333,13.2533336 299.946668,13.2933332 299.76,13.32 L299.24,13.32 C299.053332,13.32 298.840001,13.2800004 298.6,13.2 C298.119998,13.1199996 297.52667,12.9000018 296.82,12.54 C296.11333,12.1799982 295.480003,11.800002 294.92,11.4 C294.17333,10.8933308 293.846666,10.440002 293.94,10.04 C294.033334,9.639998 294.573328,9.4933328 295.56,9.6 C296.440004,9.7066672 297.393328,9.8066662 298.42,9.9 C299.446672,9.9933338 300.639993,10.04 302,10.04 L305.88,10.08 C306.840005,10.08 307.846661,10.0666668 308.9,10.04 C309.953339,10.0133332 310.733331,9.8933344 311.24,9.68 C311.293334,9.6533332 311.366666,9.6200002 311.46,9.58 C311.553334,9.5399998 311.653333,9.4933336 311.76,9.44 C311.866667,9.3866664 311.973333,9.3400002 312.08,9.3 C312.186667,9.2599998 312.293333,9.2266668 312.4,9.2 C312.960003,9.1199996 313.606663,9.08 314.34,9.08 C315.073337,9.08 315.77333,9.1199996 316.44,9.2 C317.10667,9.2800004 317.659998,9.4399988 318.1,9.68 C318.540002,9.9200012 318.76,10.2799976 318.76,10.76 Z M306.8,21.04 C307.38667,21.0666668 308.019997,21.0733334 308.7,21.06 C309.380003,21.0466666 309.999997,21.0133336 310.56,20.96 L310.8,16.28 C310.8,15.7733308 310.660001,15.4066678 310.38,15.18 C310.099999,14.9533322 309.66667,14.7200012 309.08,14.48 C308.49333,14.2666656 308.286666,13.9800018 308.46,13.62 C308.633334,13.2599982 308.986664,13.08 309.52,13.08 C310.240004,13.08 311.033329,13.1199996 311.9,13.2 C312.766671,13.2800004 313.613329,13.4266656 314.44,13.64 C314.840002,13.773334 315.099999,13.9666654 315.22,14.22 C315.340001,14.4733346 315.346667,14.7466652 315.24,15.04 C315.186666,15.1466672 315.14,15.266666 315.1,15.4 C315.06,15.533334 315.013334,15.666666 314.96,15.8 C314.933333,15.933334 314.9,16.066666 314.86,16.2 C314.82,16.333334 314.8,16.4533328 314.8,16.56 L314.32,20.08 C314.853336,20.0533332 315.419997,20.04 316.02,20.04 C316.620003,20.04 317.159998,20.0799996 317.64,20.16 C318.280003,20.2400004 318.813331,20.413332 319.24,20.68 C319.666669,20.946668 319.88,21.3199976 319.88,21.8 C319.853333,22.2800024 319.673335,22.619999 319.34,22.82 C319.006665,23.020001 318.600002,23.1333332 318.12,23.16 C317.986666,23.1866668 317.500004,23.2 316.66,23.2 C315.819996,23.2 314.853339,23.1866668 313.76,23.16 C312.639994,23.16 311.513339,23.1466668 310.38,23.12 C309.246661,23.0933332 308.320004,23.08 307.6,23.08 C306.399994,23.08 305.266672,23.1266662 304.2,23.22 C303.133328,23.3133338 302.280003,23.3999996 301.64,23.48 C301.266665,23.5333336 300.933335,23.6133328 300.64,23.72 C300.346665,23.8266672 300.080001,23.946666 299.84,24.08 C299.519998,24.1866672 299.193335,24.273333 298.86,24.34 C298.526665,24.406667 298.146669,24.373334 297.72,24.24 C297.239998,24.1599996 296.660003,23.9400018 295.98,23.58 C295.299997,23.2199982 294.680003,22.840002 294.12,22.44 C293.399996,21.9333308 293.08,21.4733354 293.16,21.06 C293.24,20.6466646 293.759995,20.4933328 294.72,20.6 C295.093335,20.6533336 295.479998,20.7066664 295.88,20.76 C296.280002,20.8133336 296.706664,20.8533332 297.16,20.88 C297.586669,20.9333336 298.046664,20.9733332 298.54,21 C299.033336,21.0266668 299.57333,21.04 300.16,21.04 L299.64,17.08 C299.613333,16.813332 299.546667,16.5933342 299.44,16.42 C299.333333,16.2466658 299.200001,16.093334 299.04,15.96 C298.853332,15.8533328 298.640001,15.7533338 298.4,15.66 C298.159999,15.5666662 297.893335,15.453334 297.6,15.32 C297.01333,15.1066656 296.806666,14.800002 296.98,14.4 C297.153334,13.999998 297.506664,13.8 298.04,13.8 C298.680003,13.8 299.513328,13.8266664 300.54,13.88 C301.566672,13.9333336 302.493329,14.0533324 303.32,14.24 C303.720002,14.373334 303.986666,14.5666654 304.12,14.82 C304.253334,15.0733346 304.28,15.3466652 304.2,15.64 C304.146666,15.7466672 304.1,15.8599994 304.06,15.98 C304.02,16.1000006 303.973334,16.226666 303.92,16.36 C303.866666,16.493334 303.826667,16.6333326 303.8,16.78 C303.773333,16.9266674 303.76,17.0533328 303.76,17.16 L303.92,21.04 L306.8,21.04 Z M356.76,42.44 C358.01334,42.44 359.033329,41.9933378 359.82,41.1 C360.606671,40.2066622 361,39.0800068 361,37.72 C361,36.4133268 360.613337,35.3066712 359.84,34.4 C359.066663,33.4933288 358.040006,33.04 356.76,33.04 C355.453327,33.04 354.420004,33.4933288 353.66,34.4 C352.899996,35.3066712 352.52,36.4133268 352.52,37.72 C352.52,39.0266732 352.899996,40.1399954 353.66,41.06 C354.420004,41.9800046 355.453327,42.44 356.76,42.44 Z M348.12,38.08 C348.12,35.946656 348.919992,34.2200066 350.52,32.9 C352.120008,31.5799934 354.199987,30.92 356.76,30.92 C359.320013,30.92 361.399992,31.5733268 363,32.88 C364.600008,34.1866732 365.4,35.9199892 365.4,38.08 C365.4,40.2666776 364.600008,42.0066602 363,43.3 C361.399992,44.5933398 359.320013,45.24 356.76,45.24 C354.199987,45.24 352.120008,44.5866732 350.52,43.28 C348.919992,41.9733268 348.12,40.2400108 348.12,38.08 Z M366.04,21.48 L350.4,21.64 C349.893331,21.6666668 349.393336,21.6400004 348.9,21.56 C348.406664,21.4799996 347.960002,21.3200012 347.56,21.08 C347.159998,20.8666656 346.840001,20.5666686 346.6,20.18 C346.359999,19.7933314 346.24,19.2933364 346.24,18.68 L346.24,14.32 C346.24,13.4399956 346.020002,12.8266684 345.58,12.48 C345.139998,12.1333316 344.453338,11.9066672 343.52,11.8 C343.199998,11.7733332 342.973334,11.660001 342.84,11.46 C342.706666,11.259999 342.666666,11.0400012 342.72,10.8 C342.8,10.5866656 342.959999,10.3866676 343.2,10.2 C343.440001,10.0133324 343.786664,9.92 344.24,9.92 C344.586668,9.9466668 345.033331,9.9733332 345.58,10 C346.126669,10.0266668 346.719997,10.0533332 347.36,10.08 C347.973336,10.1333336 348.59333,10.1866664 349.22,10.24 C349.84667,10.2933336 350.439997,10.3466664 351,10.4 L358.08,10.28 C358.400002,10.28 358.859997,10.246667 359.46,10.18 C360.060003,10.113333 360.613331,9.9600012 361.12,9.72 C361.146667,9.6933332 361.193333,9.6600002 361.26,9.62 C361.326667,9.5799998 361.4,9.5466668 361.48,9.52 C361.56,9.4666664 361.646666,9.4266668 361.74,9.4 C361.833334,9.3733332 361.933333,9.3466668 362.04,9.32 C362.600003,9.2666664 363.273329,9.2599998 364.06,9.3 C364.846671,9.3400002 365.479998,9.3866664 365.96,9.44 C366.54667,9.5200004 366.993332,9.7399982 367.3,10.1 C367.606668,10.4600018 367.746667,10.8266648 367.72,11.2 C367.72,11.5733352 367.553335,11.9133318 367.22,12.22 C366.886665,12.5266682 366.400003,12.68 365.76,12.68 L350.8,12.76 L350.8,17.88 C350.8,18.3866692 350.959998,18.7333324 351.28,18.92 C351.600002,19.1066676 351.946665,19.2 352.32,19.2 L358.52,19.12 C358.733334,19.12 359.139997,19.0733338 359.74,18.98 C360.340003,18.8866662 360.906664,18.6933348 361.44,18.4 C361.466667,18.4 361.506666,18.3866668 361.56,18.36 L361.72,18.28 C361.773334,18.2533332 361.84,18.2266668 361.92,18.2 L362.16,18.12 C362.720003,18.0666664 363.433329,18.0666664 364.3,18.12 C365.166671,18.1733336 365.826664,18.2266664 366.28,18.28 C366.920003,18.413334 367.386665,18.646665 367.68,18.98 C367.973335,19.313335 368.106667,19.6666648 368.08,20.04 C368.026666,20.4133352 367.826668,20.7466652 367.48,21.04 C367.133332,21.3333348 366.653336,21.48 366.04,21.48 Z M374.84,26.36 C374.786666,26.8666692 374.566669,27.2399988 374.18,27.48 C373.793331,27.7200012 373.293336,27.84 372.68,27.84 C372.226664,27.84 371.70667,27.8333334 371.12,27.82 C370.53333,27.8066666 369.893337,27.8 369.2,27.8 C368.53333,27.7733332 367.820004,27.7533334 367.06,27.74 C366.299996,27.7266666 365.533337,27.72 364.76,27.72 C363.479994,27.72 362.066674,27.7333332 360.52,27.76 C358.973326,27.7866668 357.440008,27.8133332 355.92,27.84 C354.399992,27.8666668 352.966673,27.9066664 351.62,27.96 C350.273327,28.0133336 349.160004,28.0666664 348.28,28.12 C348.039999,28.1466668 347.820001,28.1866664 347.62,28.24 C347.419999,28.2933336 347.226668,28.3466664 347.04,28.4 C346.853332,28.4533336 346.680001,28.513333 346.52,28.58 C346.359999,28.646667 346.200001,28.7066664 346.04,28.76 C345.639998,28.9200008 345.200002,29.0466662 344.72,29.14 C344.239998,29.2333338 343.680003,29.1600012 343.04,28.92 C342.533331,28.7599992 341.920004,28.5266682 341.2,28.22 C340.479996,27.9133318 339.760004,27.560002 339.04,27.16 C338.079995,26.5999972 337.693332,26.0933356 337.88,25.64 C338.066668,25.1866644 338.679995,25.026666 339.72,25.16 C340.600004,25.293334 341.693327,25.3999996 343,25.48 C344.306673,25.5600004 345.853324,25.6 347.64,25.6 C349.240008,25.6 350.806659,25.6066666 352.34,25.62 C353.873341,25.6333334 355.30666,25.64 356.64,25.64 C357.97334,25.64 359.186661,25.6333334 360.28,25.62 C361.373339,25.6066666 362.279996,25.5733336 363,25.52 C363.773337,25.4933332 364.419997,25.4533336 364.94,25.4 C365.460003,25.3466664 365.853332,25.2666672 366.12,25.16 C366.226667,25.1333332 366.359999,25.0800004 366.52,25 C366.680001,24.9199996 366.853332,24.8533336 367.04,24.8 C367.226668,24.7466664 367.406666,24.6933336 367.58,24.64 C367.753334,24.5866664 367.919999,24.5466668 368.08,24.52 C368.906671,24.4666664 369.773329,24.4599998 370.68,24.5 C371.586671,24.5400002 372.41333,24.6399992 373.16,24.8 C373.693336,24.933334 374.113332,25.1266654 374.42,25.38 C374.726668,25.6333346 374.866667,25.959998 374.84,26.36 Z M392,27.68 L392,23.88 L388,23.88 C387.466664,23.88 386.946669,23.8600002 386.44,23.82 C385.933331,23.7799998 385.493335,23.6666676 385.12,23.48 C384.719998,23.2933324 384.406668,23.0266684 384.18,22.68 C383.953332,22.3333316 383.84,21.8400032 383.84,21.2 L383.84,19.2 C383.84,18.53333 383.666668,18.0400016 383.32,17.72 C382.973332,17.3999984 382.400004,17.1600008 381.6,17 C380.959997,16.8399992 380.693333,16.526669 380.8,16.06 C380.906667,15.593331 381.239997,15.3466668 381.8,15.32 C382.226669,15.32 382.739997,15.3333332 383.34,15.36 C383.940003,15.3866668 384.559997,15.4133332 385.2,15.44 C385.840003,15.4933336 386.459997,15.5466664 387.06,15.6 C387.660003,15.6533336 388.173331,15.6933332 388.6,15.72 C390.306675,15.8000004 392.133324,15.8333334 394.08,15.82 C396.026676,15.8066666 397.826658,15.7600004 399.48,15.68 L399.64,12.12 L395.2,12.12 C394.293329,12.12 393.406671,12.1266666 392.54,12.14 C391.673329,12.1533334 390.933336,12.1733332 390.32,12.2 C390.053332,12.2266668 389.793335,12.2666664 389.54,12.32 C389.286665,12.3733336 389.053334,12.4399996 388.84,12.52 C388.626666,12.6000004 388.446667,12.673333 388.3,12.74 C388.153333,12.806667 388.053334,12.84 388,12.84 C387.759999,12.973334 387.473335,13.0666664 387.14,13.12 C386.806665,13.1733336 386.400002,13.1200008 385.92,12.96 C385.439998,12.8533328 384.913336,12.6533348 384.34,12.36 C383.766664,12.0666652 383.080004,11.6266696 382.28,11.04 C381.799998,10.639998 381.639999,10.2866682 381.8,9.98 C381.960001,9.6733318 382.493329,9.5599996 383.4,9.64 C384.093337,9.7200004 384.959995,9.793333 386,9.86 C387.040005,9.926667 388.013329,9.96 388.92,9.96 C389.560003,9.9866668 390.299996,10.0066666 391.14,10.02 C391.980004,10.0333334 392.813329,10.04 393.64,10.04 C394.493338,10.04 395.313329,10.0266668 396.1,10 C396.886671,9.9733332 397.559997,9.9200004 398.12,9.84 C398.226667,9.84 398.326666,9.8333334 398.42,9.82 C398.513334,9.8066666 398.6,9.7866668 398.68,9.76 C398.76,9.76 398.833333,9.7533334 398.9,9.74 C398.966667,9.7266666 399.04,9.7066668 399.12,9.68 C399.2,9.6266664 399.339999,9.5533338 399.54,9.46 C399.740001,9.3666662 399.973332,9.32 400.24,9.32 L402.3,9.32 C403.033337,9.32 403.573332,9.3599996 403.92,9.44 C404.373336,9.573334 404.659999,9.7866652 404.78,10.08 C404.900001,10.3733348 404.893334,10.653332 404.76,10.92 C404.653333,11.1333344 404.533334,11.3999984 404.4,11.72 C404.266666,12.0400016 404.16,12.333332 404.08,12.6 L403.24,15.68 C403.613335,15.7066668 403.946665,15.786666 404.24,15.92 C404.533335,16.053334 404.68,16.3333312 404.68,16.76 C404.68,17.1333352 404.520002,17.4133324 404.2,17.6 C403.879998,17.7866676 403.360004,17.88 402.64,17.88 C402.026664,17.88 401.03334,17.8866666 399.66,17.9 C398.28666,17.9133334 396.840008,17.92 395.32,17.92 C393.799992,17.9466668 392.37334,17.96 391.04,17.96 L388.28,17.96 L388.28,20.36 C388.28,20.8400024 388.433332,21.179999 388.74,21.38 C389.046668,21.580001 389.399998,21.68 389.8,21.68 L396.24,21.64 L396.94,21.64 C397.193335,21.64 397.453332,21.6266668 397.72,21.6 C397.986668,21.5733332 398.253332,21.526667 398.52,21.46 C398.786668,21.393333 399.053332,21.293334 399.32,21.16 C399.373334,21.1333332 399.473333,21.0800004 399.62,21 C399.766667,20.9199996 399.919999,20.8666668 400.08,20.84 C400.640003,20.7866664 401.366662,20.7666666 402.26,20.78 C403.153338,20.7933334 403.839998,20.8266664 404.32,20.88 C404.933336,21.013334 405.379999,21.2399984 405.66,21.56 C405.940001,21.8800016 406.053334,22.2133316 406,22.56 C405.946666,22.8800016 405.733335,23.173332 405.36,23.44 C404.986665,23.706668 404.46667,23.84 403.8,23.84 L396.52,23.84 L396.52,27.64 C397.400004,27.64 398.17333,27.6333334 398.84,27.62 C399.50667,27.6066666 400.079998,27.5866668 400.56,27.56 C401.360004,27.5333332 402.019997,27.4933336 402.54,27.44 C403.060003,27.3866664 403.439999,27.3066672 403.68,27.2 C403.786667,27.1733332 403.926666,27.1200004 404.1,27.04 C404.273334,26.9599996 404.439999,26.8933336 404.6,26.84 C404.786668,26.7866664 404.966666,26.7333336 405.14,26.68 C405.313334,26.6266664 405.479999,26.5866668 405.64,26.56 C406.493338,26.5066664 407.366662,26.4999998 408.26,26.54 C409.153338,26.5800002 409.97333,26.6799992 410.72,26.84 C411.253336,26.973334 411.679998,27.1666654 412,27.42 C412.320002,27.6733346 412.453334,27.999998 412.4,28.4 C412.346666,28.9066692 412.133335,29.2799988 411.76,29.52 C411.386665,29.7600012 410.880003,29.88 410.24,29.88 C409.786664,29.88 409.26667,29.8733334 408.68,29.86 C408.09333,29.8466666 407.453337,29.84 406.76,29.84 C406.09333,29.8133332 405.380004,29.7933334 404.62,29.78 C403.859996,29.7666666 403.093337,29.76 402.32,29.76 C401.039994,29.76 399.626674,29.7733332 398.08,29.8 L393.44,29.88 C391.919992,29.9066668 390.480007,29.9466664 389.12,30 C387.759993,30.0533336 386.640004,30.1066664 385.76,30.16 C385.519999,30.1866668 385.300001,30.2266664 385.1,30.28 C384.899999,30.3333336 384.706668,30.3866664 384.52,30.44 C384.333332,30.4933336 384.160001,30.553333 384,30.62 C383.839999,30.686667 383.680001,30.7466664 383.52,30.8 C383.119998,30.9600008 382.680002,31.0866662 382.2,31.18 C381.719998,31.2733338 381.160003,31.2000012 380.52,30.96 C380.013331,30.7999992 379.400004,30.5666682 378.68,30.26 C377.959996,29.9533318 377.240004,29.600002 376.52,29.2 C375.559995,28.6399972 375.173332,28.1333356 375.36,27.68 C375.546668,27.2266644 376.159995,27.066666 377.2,27.2 C378.080004,27.333334 379.173327,27.4399996 380.48,27.52 C381.786673,27.6000004 383.333324,27.64 385.12,27.64 C386.266672,27.64 387.419994,27.6466666 388.58,27.66 C389.740006,27.6733334 390.879994,27.68 392,27.68 Z M404.56,39.12 C404.56,41.0400096 404.280003,42.5599944 403.72,43.68 C403.159997,44.8000056 402.560003,45.3733332 401.92,45.4 C401.413331,45.4533336 400.993335,45.0400044 400.66,44.16 C400.326665,43.2799956 400.16,42.106674 400.16,40.64 L400.16,35.6 C398.719993,35.6266668 397.080009,35.6799996 395.24,35.76 C393.399991,35.8400004 391.800007,35.946666 390.44,36.08 C390.199999,36.1066668 389.980001,36.1466664 389.78,36.2 C389.579999,36.2533336 389.400001,36.3066664 389.24,36.36 C389.053332,36.4133336 388.880001,36.4799996 388.72,36.56 C388.559999,36.6400004 388.400001,36.7066664 388.24,36.76 C387.946665,36.8400004 387.633335,36.9066664 387.3,36.96 C386.966665,37.0133336 386.573336,36.9600008 386.12,36.8 C385.639998,36.6933328 385.100003,36.5000014 384.5,36.22 C383.899997,35.9399986 383.213337,35.5466692 382.44,35.04 C381.666663,34.5599976 381.379999,34.1000022 381.58,33.66 C381.780001,33.2199978 382.359995,33.0933324 383.32,33.28 C383.826669,33.3600004 384.539995,33.433333 385.46,33.5 C386.380005,33.566667 387.333328,33.6 388.32,33.6 L394.24,33.6 C395.200005,33.5733332 396.106662,33.5333336 396.96,33.48 C397.813338,33.4266664 398.559997,33.333334 399.2,33.2 C399.28,33.2 399.366666,33.1733336 399.46,33.12 C399.553334,33.0666664 399.653333,33.0266668 399.76,33 C399.866667,32.9466664 399.973333,32.9000002 400.08,32.86 C400.186667,32.8199998 400.306666,32.8 400.44,32.8 C400.733335,32.8 401.033332,32.7933334 401.34,32.78 C401.646668,32.7666666 401.959998,32.76 402.28,32.76 L403.1,32.76 C403.353335,32.76 403.586666,32.7733332 403.8,32.8 C404.333336,32.933334 404.666666,33.1533318 404.8,33.46 C404.933334,33.7666682 404.96,34.0933316 404.88,34.44 C404.8,34.706668 404.726667,34.9866652 404.66,35.28 C404.593333,35.5733348 404.56,35.8666652 404.56,36.16 L404.56,39.12 Z M425.56,21.6 C426.81334,21.6 427.959995,21.7933314 429,22.18 C430.040005,22.5666686 430.919996,23.0799968 431.64,23.72 C432.38667,24.3600032 432.959998,25.113329 433.36,25.98 C433.760002,26.846671 433.96,27.7733284 433.96,28.76 C433.96,29.7466716 433.760002,30.6666624 433.36,31.52 C432.959998,32.3733376 432.400004,33.1199968 431.68,33.76 C430.959996,34.4000032 430.080005,34.8999982 429.04,35.26 C427.999995,35.6200018 426.840006,35.8 425.56,35.8 C424.253327,35.8 423.080005,35.6200018 422.04,35.26 C420.999995,34.8999982 420.120004,34.4000032 419.4,33.76 C418.679996,33.1199968 418.126669,32.3733376 417.74,31.52 C417.353331,30.6666624 417.16,29.7466716 417.16,28.76 C417.16,27.7733284 417.353331,26.846671 417.74,25.98 C418.126669,25.113329 418.69333,24.3600032 419.44,23.72 C420.160004,23.0799968 421.039995,22.5666686 422.08,22.18 C423.120005,21.7933314 424.279994,21.6 425.56,21.6 Z M425.56,33 C426.920007,33 427.95333,32.5733376 428.66,31.72 C429.36667,30.8666624 429.72,29.8000064 429.72,28.52 C429.72,27.3466608 429.373337,26.3133378 428.68,25.42 C427.986663,24.5266622 426.946674,24.08 425.56,24.08 C424.22666,24.08 423.200004,24.4999958 422.48,25.34 C421.759996,26.1800042 421.4,27.2399936 421.4,28.52 C421.4,29.7733396 421.759996,30.833329 422.48,31.7 C423.200004,32.566671 424.22666,33 425.56,33 Z M434.92,19.24 L429.52,19.24 C428.906664,19.2666668 428.240004,19.28 427.52,19.28 C426.799996,19.28 426.080004,19.2933332 425.36,19.32 C424.639996,19.3466668 423.96667,19.3733332 423.34,19.4 C422.71333,19.4266668 422.186669,19.4666664 421.76,19.52 C421.413332,19.5733336 421.080002,19.666666 420.76,19.8 C420.439998,19.933334 420.160001,20.0533328 419.92,20.16 C419.679999,20.2400004 419.413335,20.2933332 419.12,20.32 C418.826665,20.3466668 418.520002,20.3200004 418.2,20.24 C417.799998,20.1866664 417.233337,20.0066682 416.5,19.7 C415.766663,19.3933318 415.080003,19.040002 414.44,18.64 C413.639996,18.106664 413.353332,17.6466686 413.58,17.26 C413.806668,16.8733314 414.266663,16.7199996 414.96,16.8 C415.600003,16.8800004 416.346662,16.953333 417.2,17.02 C418.053338,17.086667 418.973328,17.12 419.96,17.12 C420.280002,17.12 420.766663,17.1266666 421.42,17.14 C422.073337,17.1533334 422.77333,17.16 423.52,17.16 C424.26667,17.16 425.006663,17.1533334 425.74,17.14 C426.473337,17.1266666 427.093331,17.0933336 427.6,17.04 C428.053336,17.0133332 428.486665,16.966667 428.9,16.9 C429.313335,16.833333 429.639999,16.7466672 429.88,16.64 C429.96,16.6133332 430.046666,16.5733336 430.14,16.52 C430.233334,16.4666664 430.32,16.4133336 430.4,16.36 C430.506667,16.3066664 430.606666,16.2666668 430.7,16.24 C430.793334,16.2133332 430.88,16.1866668 430.96,16.16 C431.733337,16.0799996 432.586662,16.0799996 433.52,16.16 C434.453338,16.2400004 435.053332,16.3333328 435.32,16.44 C435.746669,16.6533344 436.046666,16.9133318 436.22,17.22 C436.393334,17.5266682 436.453334,17.8399984 436.4,18.16 C436.346666,18.4533348 436.186668,18.7066656 435.92,18.92 C435.653332,19.1333344 435.320002,19.24 434.92,19.24 Z M428.84,14 C427.906662,14.0800004 427.006671,14.12 426.14,14.12 C425.273329,14.12 424.493337,14.0933336 423.8,14.04 C423.373331,14.04 422.860003,13.8533352 422.26,13.48 C421.659997,13.1066648 421.000004,12.5600036 420.28,11.84 C419.719997,11.3333308 419.579999,10.9066684 419.86,10.56 C420.140001,10.2133316 420.706662,10.1599988 421.56,10.4 C422.626672,10.6933348 423.719994,10.8866662 424.84,10.98 C425.960006,11.0733338 427.213326,11.12 428.6,11.12 C429.293337,11.12 429.819998,11.2666652 430.18,11.56 C430.540002,11.8533348 430.733333,12.1733316 430.76,12.52 C430.76,12.8666684 430.600002,13.1933318 430.28,13.5 C429.959998,13.8066682 429.480003,13.9733332 428.84,14 Z M442.48,12.16 L442.48,25.16 C443.040003,25.1333332 443.619997,25.0666672 444.22,24.96 C444.820003,24.8533328 445.279998,24.6400016 445.6,24.32 C445.760001,24.1066656 446.219996,23.9866668 446.98,23.96 C447.740004,23.9333332 448.439997,23.9599996 449.08,24.04 C449.74667,24.2000008 450.226665,24.4599982 450.52,24.82 C450.813335,25.1800018 450.92,25.5466648 450.84,25.92 C450.786666,26.2933352 450.566669,26.613332 450.18,26.88 C449.793331,27.146668 449.253337,27.28 448.56,27.28 L442.48,27.28 L442.48,36.2 C442.48,39.266682 442.260002,41.6199918 441.82,43.26 C441.379998,44.9000082 440.746671,45.7466664 439.92,45.8 C439.359997,45.8533336 438.926668,45.246673 438.62,43.98 C438.313332,42.713327 438.16,40.813346 438.16,38.28 L438.16,12.88 C438.16,12.2933304 438.086667,11.7866688 437.94,11.36 C437.793333,10.9333312 437.560002,10.6000012 437.24,10.36 C436.813331,10.0399984 436.320003,9.780001 435.76,9.58 C435.199997,9.379999 434.62667,9.2266672 434.04,9.12 C433.826666,9.0933332 433.686667,8.9866676 433.62,8.8 C433.553333,8.6133324 433.546666,8.4133344 433.6,8.2 C433.653334,8.0133324 433.773332,7.8333342 433.96,7.66 C434.146668,7.4866658 434.386665,7.4 434.68,7.4 C435.186669,7.4 435.779997,7.433333 436.46,7.5 C437.140003,7.566667 437.839996,7.6399996 438.56,7.72 C439.280004,7.8266672 439.97333,7.9399994 440.64,8.06 C441.30667,8.1800006 441.893331,8.2933328 442.4,8.4 C442.640001,8.4800004 442.8,8.653332 442.88,8.92 C442.96,9.186668 442.96,9.453332 442.88,9.72 C442.746666,10.120002 442.646667,10.5266646 442.58,10.94 C442.513333,11.3533354 442.48,11.759998 442.48,12.16 Z M481.36,12.16 L481.36,36.2 C481.36,39.266682 481.153335,41.6199918 480.74,43.26 C480.326665,44.9000082 479.693338,45.7466664 478.84,45.8 C478.25333,45.8533336 477.820001,45.246673 477.54,43.98 C477.259999,42.713327 477.12,40.813346 477.12,38.28 L477.12,12.88 C477.12,12.2933304 477.040001,11.7866688 476.88,11.36 C476.719999,10.9333312 476.480002,10.6000012 476.16,10.36 C475.733331,10.0399984 475.240003,9.780001 474.68,9.58 C474.119997,9.379999 473.54667,9.2266672 472.96,9.12 C472.746666,9.0933332 472.606667,8.9866676 472.54,8.8 C472.473333,8.6133324 472.466666,8.4133344 472.52,8.2 C472.573334,8.0133324 472.693332,7.8333342 472.88,7.66 C473.066668,7.4866658 473.306665,7.4 473.6,7.4 C474.080002,7.4 474.659997,7.433333 475.34,7.5 C476.020003,7.566667 476.719996,7.6399996 477.44,7.72 C478.160004,7.8266672 478.859997,7.9399994 479.54,8.06 C480.220003,8.1800006 480.813331,8.2933328 481.32,8.4 C481.533334,8.4800004 481.68,8.653332 481.76,8.92 C481.84,9.186668 481.84,9.453332 481.76,9.72 C481.653333,10.120002 481.566667,10.5266646 481.5,10.94 C481.433333,11.3533354 481.386667,11.759998 481.36,12.16 Z M471.6,14.08 C472.106669,14.1600004 472.426666,14.3866648 472.56,14.76 C472.693334,15.1333352 472.626668,15.586664 472.36,16.12 C472.253333,16.3066676 472.140001,16.5066656 472.02,16.72 C471.899999,16.9333344 471.786667,17.1333324 471.68,17.32 C471.546666,17.5333344 471.426667,17.7333324 471.32,17.92 C471.213333,18.1066676 471.12,18.2799992 471.04,18.44 C470.079995,20.2533424 469.006673,22.0333246 467.82,23.78 C466.633327,25.5266754 465.37334,27.1866588 464.04,28.76 C462.70666,30.3066744 461.300007,31.7266602 459.82,33.02 C458.339993,34.3133398 456.826674,35.3999956 455.28,36.28 C454.666664,36.7066688 454.146669,36.953333 453.72,37.02 C453.293331,37.086667 452.973334,37.053334 452.76,36.92 C452.546666,36.8133328 452.44,36.6400012 452.44,36.4 C452.44,36.1599988 452.559999,35.9333344 452.8,35.72 C454.106673,34.6799948 455.42666,33.460007 456.76,32.06 C458.09334,30.659993 459.373327,29.1466748 460.6,27.52 C461.826673,25.8933252 462.973328,24.180009 464.04,22.38 C465.106672,20.579991 466.026663,18.746676 466.8,16.88 C465.599994,16.9333336 464.560004,16.9866664 463.68,17.04 C462.799996,17.0933336 462.080003,17.1466664 461.52,17.2 C461.093331,17.2533336 460.56667,17.379999 459.94,17.58 C459.31333,17.780001 458.920001,17.9199996 458.76,18 C458.546666,18.0800004 458.326668,18.1333332 458.1,18.16 C457.873332,18.1866668 457.613335,18.1466672 457.32,18.04 C456.919998,17.9333328 456.380003,17.7000018 455.7,17.34 C455.019997,16.9799982 454.453336,16.6266684 454,16.28 C453.199996,15.6666636 452.919999,15.1800018 453.16,14.82 C453.400001,14.4599982 453.999995,14.3199996 454.96,14.4 C455.066667,14.4266668 455.266665,14.4533332 455.56,14.48 C455.853335,14.5066668 456.199998,14.5466664 456.6,14.6 C456.973335,14.6266668 457.393331,14.6533332 457.86,14.68 C458.326669,14.7066668 458.799998,14.72 459.28,14.72 C460.02667,14.72 460.739997,14.7333332 461.42,14.76 C462.100003,14.7866668 462.746664,14.7866668 463.36,14.76 C463.973336,14.7333332 464.559997,14.686667 465.12,14.62 C465.680003,14.553333 466.226664,14.4400008 466.76,14.28 C466.813334,14.28 466.88,14.2600002 466.96,14.22 C467.04,14.1799998 467.133333,14.1466668 467.24,14.12 C467.32,14.0666664 467.413333,14.0266668 467.52,14 C467.626667,13.9733332 467.746666,13.9466668 467.88,13.92 C468.600004,13.8933332 469.31333,13.9066664 470.02,13.96 C470.72667,14.0133336 471.253332,14.0533332 471.6,14.08 Z" id="작품보기"></path>
            </g>
        </g>
    </g>
</svg>