<?xml version="1.0" encoding="UTF-8"?>
<svg width="157px" height="39px" viewBox="0 0 157 39" version="1.1" xmlns="http://www.w3.org/2000/svg" xmlns:xlink="http://www.w3.org/1999/xlink">
    <!-- Generator: Sketch 46.1 (44463) - http://www.bohemiancoding.com/sketch -->
    <title>title-mypage</title>
    <desc>Created with Sketch.</desc>
    <defs></defs>
    <g id="Desktop" stroke="none" stroke-width="1" fill="none" fill-rule="evenodd">
        <g id="04-MYPAGE" transform="translate(-251.000000, -119.000000)" fill="#212630">
            <g id="Header" transform="translate(250.000000, 112.000000)">
                <path d="M29.48,12.16 L29.48,22.92 C30.0933364,22.8933332 30.6866638,22.8200006 31.26,22.7 C31.8333362,22.5799994 32.2799984,22.3600016 32.6,22.04 C32.7600008,21.8799992 33.2266628,21.7866668 34,21.76 C34.7733372,21.7333332 35.4666636,21.7599996 36.08,21.84 C36.74667,22.0000008 37.2333318,22.2599982 37.54,22.62 C37.8466682,22.9800018 37.9600004,23.3333316 37.88,23.68 C37.8266664,24.0533352 37.6066686,24.373332 37.22,24.64 C36.8333314,24.906668 36.30667,25.04 35.64,25.04 L29.48,25.04 L29.48,36.2 C29.48,39.266682 29.2666688,41.6199918 28.84,43.26 C28.4133312,44.9000082 27.7733376,45.7466664 26.92,45.8 C26.3599972,45.8533336 25.9400014,45.246673 25.66,43.98 C25.3799986,42.713327 25.24,40.8400124 25.24,38.36 L25.24,29.4 C23.9866604,29.8800024 22.6400072,30.3599976 21.2,30.84 C19.7599928,31.3200024 18.306674,31.759998 16.84,32.16 C15.3999928,32.560002 13.9933402,32.8999986 12.62,33.18 C11.2466598,33.4600014 10.0133388,33.6399996 8.92,33.72 C7.7733276,33.8266672 6.8866698,33.6733354 6.26,33.26 C5.6333302,32.8466646 5.32,32.040006 5.32,30.84 L5.32,19.4 C5.32,18.9199976 5.2600006,18.480002 5.14,18.08 C5.0199994,17.679998 4.8400012,17.3733344 4.6,17.16 C4.3066652,16.9466656 3.8800028,16.7666674 3.32,16.62 C2.7599972,16.4733326 2.213336,16.3600004 1.68,16.28 C1.4933324,16.28 1.3533338,16.1866676 1.26,16 C1.1666662,15.8133324 1.1333332,15.6133344 1.16,15.4 C1.16,15.1599988 1.226666,14.9533342 1.36,14.78 C1.493334,14.6066658 1.7066652,14.5066668 2,14.48 C2.4266688,14.48 2.9866632,14.4866666 3.68,14.5 C4.3733368,14.5133334 5.0933296,14.5333332 5.84,14.56 C6.5866704,14.6133336 7.2999966,14.6799996 7.98,14.76 C8.6600034,14.8400004 9.2133312,14.9199996 9.64,15 C9.8533344,15.0800004 9.993333,15.2666652 10.06,15.56 C10.126667,15.8533348 10.1200004,16.133332 10.04,16.4 C9.9599996,16.7466684 9.9066668,17.1799974 9.88,17.7 C9.8533332,18.2200026 9.84,18.679998 9.84,19.08 L9.84,28.84 C9.84,29.4000028 9.9933318,29.7666658 10.3,29.94 C10.6066682,30.1133342 10.959998,30.2 11.36,30.2 C12.0000032,30.2 12.886661,30.1133342 14.02,29.94 C15.153339,29.7666658 16.3599936,29.546668 17.64,29.28 C18.9466732,28.9866652 20.26666,28.6666684 21.6,28.32 C22.93334,27.9733316 24.1466612,27.6133352 25.24,27.24 L25.24,12.88 C25.24,12.2933304 25.1666674,11.7866688 25.02,11.36 C24.8733326,10.9333312 24.6400016,10.6000012 24.32,10.36 C23.8933312,10.0399984 23.4000028,9.780001 22.84,9.58 C22.2799972,9.379999 21.7066696,9.2266672 21.12,9.12 C20.9066656,9.0933332 20.7600004,8.9866676 20.68,8.8 C20.5999996,8.6133324 20.5999996,8.4133344 20.68,8.2 C20.7333336,8.0133324 20.8466658,7.8333342 21.02,7.66 C21.1933342,7.4866658 21.4266652,7.4 21.72,7.4 C22.2266692,7.4 22.8199966,7.433333 23.5,7.5 C24.1800034,7.566667 24.8799964,7.6399996 25.6,7.72 C26.3200036,7.8266672 27.0199966,7.9399994 27.7,8.06 C28.3800034,8.1800006 28.9733308,8.2933328 29.48,8.4 C29.6933344,8.4800004 29.8399996,8.653332 29.92,8.92 C30.0000004,9.186668 30.0000004,9.453332 29.92,9.72 C29.8133328,10.120002 29.7200004,10.5266646 29.64,10.94 C29.5599996,11.3533354 29.5066668,11.759998 29.48,12.16 Z M52.52,27.68 C49.6399856,27.68 47.4066746,26.9400074 45.82,25.46 C44.2333254,23.9799926 43.44,22.0533452 43.44,19.68 C43.44,18.5066608 43.6599978,17.4266716 44.1,16.44 C44.5400022,15.4533284 45.159996,14.6133368 45.96,13.92 C46.760004,13.2266632 47.7133278,12.680002 48.82,12.28 C49.9266722,11.879998 51.1599932,11.68 52.52,11.68 C55.2400136,11.68 57.4199918,12.4199926 59.06,13.9 C60.7000082,15.3800074 61.52,17.3066548 61.52,19.68 C61.52,22.0533452 60.7400078,23.9799926 59.18,25.46 C57.6199922,26.9400074 55.4000144,27.68 52.52,27.68 Z M52.52,14.32 C51.0799928,14.32 49.926671,14.8066618 49.06,15.78 C48.193329,16.7533382 47.76,18.039992 47.76,19.64 C47.76,21.106674 48.1799958,22.373328 49.02,23.44 C49.8600042,24.506672 51.0266592,25.04 52.52,25.04 C54.0133408,25.04 55.1666626,24.506672 55.98,23.44 C56.7933374,22.373328 57.2,21.106674 57.2,19.64 C57.2,18.039992 56.7800042,16.7533382 55.94,15.78 C55.0999958,14.8066618 53.9600072,14.32 52.52,14.32 Z M65.68,30.52 L65.68,12.88 C65.68,12.2933304 65.6200006,11.7866688 65.5,11.36 C65.3799994,10.9333312 65.1600016,10.6000012 64.84,10.36 C64.4133312,10.0399984 63.9200028,9.780001 63.36,9.58 C62.7999972,9.379999 62.2266696,9.2266672 61.64,9.12 C61.4266656,9.0933332 61.2800004,8.9866676 61.2,8.8 C61.1199996,8.6133324 61.1066664,8.4133344 61.16,8.2 C61.2133336,8.0133324 61.3266658,7.8333342 61.5,7.66 C61.6733342,7.4866658 61.9066652,7.4 62.2,7.4 C62.7066692,7.4 63.29333,7.433333 63.96,7.5 C64.62667,7.566667 65.3199964,7.6399996 66.04,7.72 C66.7333368,7.8266672 67.41333,7.9399994 68.08,8.06 C68.74667,8.1800006 69.3333308,8.2933328 69.84,8.4 C70.0533344,8.4800004 70.1999996,8.653332 70.28,8.92 C70.3600004,9.186668 70.3600004,9.453332 70.28,9.72 C70.1733328,10.120002 70.0933336,10.5266646 70.04,10.94 C69.9866664,11.3533354 69.96,11.759998 69.96,12.16 L69.96,36.2 C69.96,39.266682 69.7466688,41.6199918 69.32,43.26 C68.8933312,44.9000082 68.2400044,45.7466664 67.36,45.8 C66.7999972,45.8533336 66.3800014,45.246673 66.1,43.98 C65.8199986,42.713327 65.68,40.813346 65.68,38.28 L65.68,32.44 C64.5599944,32.7333348 63.2800072,33.0333318 61.84,33.34 C60.3999928,33.6466682 58.9333408,33.9466652 57.44,34.24 C55.9466592,34.5333348 54.4800072,34.8066654 53.04,35.06 C51.5999928,35.3133346 50.3200056,35.5199992 49.2,35.68 C48.9599988,35.7333336 48.7333344,35.7866664 48.52,35.84 C48.3066656,35.8933336 48.1066676,35.9599996 47.92,36.04 C47.7066656,36.0933336 47.5066676,36.1599996 47.32,36.24 C47.1333324,36.3200004 46.9600008,36.3999996 46.8,36.48 C46.5066652,36.613334 46.193335,36.6999998 45.86,36.74 C45.526665,36.7800002 45.1466688,36.7200008 44.72,36.56 C44.05333,36.3733324 43.3466704,36.113335 42.6,35.78 C41.8533296,35.446665 41.1333368,35.0533356 40.44,34.6 C39.7199964,34.1466644 39.393333,33.6666692 39.46,33.16 C39.526667,32.6533308 40.0133288,32.466666 40.92,32.6 C41.5333364,32.6800004 42.373328,32.753333 43.44,32.82 C44.506672,32.886667 45.439996,32.9066668 46.24,32.88 C47.5466732,32.8533332 49.0133252,32.773334 50.64,32.64 C52.2666748,32.506666 53.9333248,32.3333344 55.64,32.12 C57.373342,31.9066656 59.0999914,31.666668 60.82,31.4 C62.5400086,31.133332 64.1599924,30.8400016 65.68,30.52 Z M120.56,12.16 L120.56,36.2 C120.586667,39.2933488 120.386669,41.6599918 119.96,43.3 C119.533331,44.9400082 118.920004,45.7733332 118.12,45.8 C117.559997,45.8533336 117.146668,45.2533396 116.88,44 C116.613332,42.7466604 116.48,40.8400128 116.48,38.28 L116.48,12.88 C116.48,12.2933304 116.420001,11.7800022 116.3,11.34 C116.179999,10.8999978 115.960002,10.5600012 115.64,10.32 C115.266665,10.053332 114.833336,9.8333342 114.34,9.66 C113.846664,9.4866658 113.30667,9.3466672 112.72,9.24 C112.506666,9.2133332 112.366667,9.1066676 112.3,8.92 C112.233333,8.7333324 112.226666,8.5333344 112.28,8.32 C112.333334,8.1333324 112.453332,7.9533342 112.64,7.78 C112.826668,7.6066658 113.066665,7.52 113.36,7.52 C114.346672,7.52 115.52666,7.6066658 116.9,7.78 C118.27334,7.9533342 119.453328,8.1599988 120.44,8.4 C120.680001,8.4800004 120.84,8.653332 120.92,8.92 C121,9.186668 121,9.453332 120.92,9.72 C120.813333,10.120002 120.733334,10.5266646 120.68,10.94 C120.626666,11.3533354 120.586667,11.759998 120.56,12.16 Z M109.6,22.68 L109.4,22.68 C108.919998,22.7066668 108.473335,22.7733328 108.06,22.88 C107.646665,22.9866672 107.280002,23.106666 106.96,23.24 C106.719999,23.3466672 106.473335,23.4199998 106.22,23.46 C105.966665,23.5000002 105.640002,23.453334 105.24,23.32 C105.16,23.32 105.08,23.3066668 105,23.28 C104.92,23.2533332 104.826667,23.2133336 104.72,23.16 C104.64,23.1333332 104.546667,23.1066668 104.44,23.08 C104.333333,23.0533332 104.213334,23.0266668 104.08,23 C102.613326,25.6400132 100.866677,28.1466548 98.84,30.52 C96.8133232,32.8933452 94.6400116,34.74666 92.32,36.08 C91.7333304,36.480002 91.2466686,36.713333 90.86,36.78 C90.4733314,36.846667 90.1866676,36.8266672 90,36.72 C89.8133324,36.6133328 89.7266666,36.4466678 89.74,36.22 C89.7533334,35.9933322 89.8799988,35.7733344 90.12,35.56 C91.186672,34.6533288 92.286661,33.5400066 93.42,32.22 C94.553339,30.8999934 95.6399948,29.4533412 96.68,27.88 C97.7200052,26.279992 98.6799956,24.5933422 99.56,22.82 C100.440004,21.0466578 101.146664,19.2533424 101.68,17.44 C101.01333,17.4666668 100.413336,17.4933332 99.88,17.52 C99.346664,17.5466668 98.8400024,17.5866664 98.36,17.64 C98.1466656,17.6666668 97.906668,17.7199996 97.64,17.8 C97.373332,17.8800004 97.1200012,17.9599996 96.88,18.04 L95.8,18.4 C95.666666,18.4533336 95.5400006,18.4933332 95.42,18.52 C95.2999994,18.5466668 95.173334,18.56 95.04,18.56 C94.906666,18.56 94.7666674,18.5466668 94.62,18.52 C94.4733326,18.4933332 94.3066676,18.4400004 94.12,18.36 C93.7733316,18.226666 93.3466692,18.0200014 92.84,17.74 C92.3333308,17.4599986 91.8533356,17.1600016 91.4,16.84 C90.6533296,16.3333308 90.3599992,15.880002 90.52,15.48 C90.6800008,15.079998 91.2666616,14.9199996 92.28,15 C92.3866672,15.0266668 92.5799986,15.0533332 92.86,15.08 C93.1400014,15.1066668 93.4666648,15.1333332 93.84,15.16 C94.2133352,15.1866668 94.6133312,15.2066666 95.04,15.22 C95.4666688,15.2333334 95.8933312,15.24 96.32,15.24 C96.586668,15.24 96.9266646,15.2466666 97.34,15.26 C97.7533354,15.2733334 98.1866644,15.2666668 98.64,15.24 C99.0933356,15.24 99.5399978,15.2200002 99.98,15.18 C100.420002,15.1399998 100.799998,15.0800004 101.12,15 C101.173334,15 101.259999,14.9733336 101.38,14.92 C101.500001,14.8666664 101.626666,14.8266668 101.76,14.8 C101.893334,14.7466664 102.026666,14.7000002 102.16,14.66 C102.293334,14.6199998 102.4,14.5866668 102.48,14.56 C103.120003,14.5333332 103.77333,14.5333332 104.44,14.56 C105.10667,14.5866668 105.719997,14.6266664 106.28,14.68 C106.653335,14.7600004 106.873333,14.9799982 106.94,15.34 C107.006667,15.7000018 106.986667,16.0666648 106.88,16.44 C106.826666,16.6533344 106.753334,16.8666656 106.66,17.08 C106.566666,17.2933344 106.466667,17.5066656 106.36,17.72 C106.28,17.9333344 106.186667,18.1333324 106.08,18.32 C105.973333,18.5066676 105.893334,18.6799992 105.84,18.84 C105.733333,19.1333348 105.620001,19.413332 105.5,19.68 C105.379999,19.946668 105.240001,20.1999988 105.08,20.44 C105.320001,20.44 105.559999,20.4466666 105.8,20.46 C106.040001,20.4733334 106.279999,20.48 106.52,20.48 L109.6,20.48 L109.6,14.84 C109.6,14.2533304 109.533334,13.7400022 109.4,13.3 C109.266666,12.8599978 109.040002,12.5200012 108.72,12.28 C108.373332,12.0399988 107.973336,11.8333342 107.52,11.66 C107.066664,11.4866658 106.586669,11.3466672 106.08,11.24 C105.839999,11.1866664 105.686667,11.0666676 105.62,10.88 C105.553333,10.6933324 105.546666,10.5066676 105.6,10.32 C105.653334,10.1066656 105.766666,9.9200008 105.94,9.76 C106.113334,9.5999992 106.346665,9.52 106.64,9.52 C107.653338,9.52 108.799994,9.6066658 110.08,9.78 C111.360006,9.9533342 112.493328,10.1599988 113.48,10.4 C113.693334,10.4800004 113.846666,10.6466654 113.94,10.9 C114.033334,11.1533346 114.04,11.413332 113.96,11.68 C113.853333,12.080002 113.773334,12.479998 113.72,12.88 C113.666666,13.280002 113.64,13.679998 113.64,14.08 L113.64,34.84 C113.666667,37.9333488 113.460002,40.2933252 113.02,41.92 C112.579998,43.5466748 111.973337,44.3866664 111.2,44.44 C110.639997,44.4666668 110.233335,43.846673 109.98,42.58 C109.726665,41.313327 109.6,39.4400124 109.6,36.96 L109.6,31.16 C109.439999,31.16 109.286667,31.1666666 109.14,31.18 C108.993333,31.1933334 108.866667,31.2 108.76,31.2 C108.279998,31.2266668 107.846669,31.2933328 107.46,31.4 C107.073331,31.5066672 106.720002,31.626666 106.4,31.76 C106.159999,31.8666672 105.906668,31.9399998 105.64,31.98 C105.373332,32.0200002 105.040002,31.973334 104.64,31.84 C104.319998,31.7599996 103.913336,31.5800014 103.42,31.3 C102.926664,31.0199986 102.400003,30.6533356 101.84,30.2 C101.386664,29.799998 101.239999,29.466668 101.4,29.2 C101.560001,28.933332 101.946664,28.8133332 102.56,28.84 C102.746668,28.8666668 103.019998,28.8866666 103.38,28.9 C103.740002,28.9133334 104.133331,28.9333332 104.56,28.96 C104.986669,28.9866668 105.439998,29 105.92,29 L109.6,29 L109.6,22.68 Z M141.12,21.24 C141.360001,21.4266676 141.599999,21.6066658 141.84,21.78 C142.080001,21.9533342 142.293332,22.106666 142.48,22.24 C142.693334,22.373334 142.873333,22.4999994 143.02,22.62 C143.166667,22.7400006 143.293333,22.8133332 143.4,22.84 C143.693335,22.973334 143.953332,23.0666664 144.18,23.12 C144.406668,23.1733336 144.639999,23.2 144.88,23.2 C144.96,23.2 145.066666,23.2266664 145.2,23.28 C145.333334,23.3333336 145.506666,23.4399992 145.72,23.6 C145.960001,23.7866676 146.206665,24.0333318 146.46,24.34 C146.713335,24.6466682 146.946666,24.9733316 147.16,25.32 C147.373334,25.6666684 147.573332,26.006665 147.76,26.34 C147.946668,26.673335 148.08,26.9333324 148.16,27.12 C148.346668,27.5733356 148.406667,27.9866648 148.34,28.36 C148.273333,28.7333352 148.093335,28.9999992 147.8,29.16 C147.533332,29.3200008 147.193335,29.3466672 146.78,29.24 C146.366665,29.1333328 145.920002,28.813336 145.44,28.28 C145.093332,27.9866652 144.693336,27.6266688 144.24,27.2 C143.786664,26.7733312 143.306669,26.3333356 142.8,25.88 C142.293331,25.4266644 141.760003,24.966669 141.2,24.5 C140.639997,24.033331 140.106669,23.600002 139.6,23.2 C138.053326,24.5866736 136.400009,25.8866606 134.64,27.1 C132.879991,28.3133394 131.133342,29.2799964 129.4,30 C128.73333,30.3200016 128.213335,30.4933332 127.84,30.52 C127.466665,30.5466668 127.200001,30.493334 127.04,30.36 C126.879999,30.226666 126.82,30.060001 126.86,29.86 C126.9,29.659999 127.026666,29.493334 127.24,29.36 C128.680007,28.426662 130.08666,27.3733392 131.46,26.2 C132.83334,25.0266608 134.119994,23.8000064 135.32,22.52 C136.520006,21.2133268 137.599995,19.8733402 138.56,18.5 C139.520005,17.1266598 140.319997,15.77334 140.96,14.44 C140.079996,14.5200004 139.32667,14.5866664 138.7,14.64 C138.07333,14.6933336 137.506669,14.7466664 137,14.8 C136.546664,14.8533336 136.040003,14.9599992 135.48,15.12 C134.919997,15.2800008 134.520001,15.426666 134.28,15.56 C134.093332,15.7200008 133.873335,15.7933334 133.62,15.78 C133.366665,15.7666666 133.053335,15.7066672 132.68,15.6 C132.333332,15.4399992 131.926669,15.2400012 131.46,15 C130.993331,14.7599988 130.440003,14.4533352 129.8,14.08 C128.999996,13.546664 128.686666,13.1066684 128.86,12.76 C129.033334,12.4133316 129.533329,12.2666664 130.36,12.32 C130.466667,12.3466668 130.686665,12.3733332 131.02,12.4 C131.353335,12.4266668 131.733331,12.4533332 132.16,12.48 C132.586669,12.5066668 133.039998,12.5266666 133.52,12.54 C134.000002,12.5533334 134.466664,12.56 134.92,12.56 C136.040006,12.56 137.019996,12.5533334 137.86,12.54 C138.700004,12.5266666 139.426664,12.453334 140.04,12.32 C140.093334,12.32 140.16,12.3133334 140.24,12.3 C140.32,12.2866666 140.4,12.2666668 140.48,12.24 C140.56,12.2133332 140.64,12.1933334 140.72,12.18 C140.8,12.1666666 140.88,12.1466668 140.96,12.12 C140.986667,12.12 141.033333,12.1000002 141.1,12.06 C141.166667,12.0199998 141.226666,11.9866668 141.28,11.96 C141.333334,11.9333332 141.4,11.9066668 141.48,11.88 C141.56,11.8533332 141.653333,11.84 141.76,11.84 C142.42667,11.84 143.126663,11.8533332 143.86,11.88 C144.593337,11.9066668 145.226664,11.9333332 145.76,11.96 C146.240002,12.0133336 146.506666,12.2599978 146.56,12.7 C146.613334,13.1400022 146.560001,13.5466648 146.4,13.92 C146.32,14.0800008 146.24,14.226666 146.16,14.36 C146.08,14.493334 145.986667,14.626666 145.88,14.76 C145.8,14.9200008 145.713334,15.066666 145.62,15.2 C145.526666,15.333334 145.44,15.4533328 145.36,15.56 C144.879998,16.493338 144.280004,17.4399952 143.56,18.4 C142.839996,19.3600048 142.026671,20.306662 141.12,21.24 Z M152.48,21.24 L152.28,21.24 C151.799998,21.2666668 151.280003,21.3533326 150.72,21.5 C150.159997,21.6466674 149.720002,21.786666 149.4,21.92 C149.159999,22.0266672 148.906668,22.0999998 148.64,22.14 C148.373332,22.1800002 148.040002,22.133334 147.64,22 C147.319998,21.9199996 146.886669,21.7200016 146.34,21.4 C145.793331,21.0799984 145.253336,20.6933356 144.72,20.24 C144.239998,19.839998 144.059999,19.4933348 144.18,19.2 C144.300001,18.9066652 144.679997,18.7866664 145.32,18.84 C145.720002,18.8933336 146.399995,18.9333332 147.36,18.96 C148.320005,18.9866668 149.253329,19 150.16,19 L152.48,19 L152.48,12.88 C152.48,12.2933304 152.413334,11.7866688 152.28,11.36 C152.146666,10.9333312 151.920002,10.6000012 151.6,10.36 C151.173331,10.0399984 150.680003,9.780001 150.12,9.58 C149.559997,9.379999 148.98667,9.2266672 148.4,9.12 C148.186666,9.0933332 148.04,8.9866676 147.96,8.8 C147.88,8.6133324 147.88,8.4133344 147.96,8.2 C148.013334,8.0133324 148.126666,7.8333342 148.3,7.66 C148.473334,7.4866658 148.706665,7.4 149,7.4 C149.506669,7.4 150.09333,7.433333 150.76,7.5 C151.42667,7.566667 152.106663,7.6399996 152.8,7.72 C153.520004,7.8266672 154.206663,7.9399994 154.86,8.06 C155.513337,8.1800006 156.093331,8.2933328 156.6,8.4 C156.840001,8.4800004 157,8.653332 157.08,8.92 C157.16,9.186668 157.16,9.453332 157.08,9.72 C156.919999,10.120002 156.82,10.5333312 156.78,10.96 C156.74,11.3866688 156.72,11.799998 156.72,12.2 L156.72,24.88 C156.746667,27.4666796 156.486669,29.259995 155.94,30.26 C155.393331,31.260005 154.82667,31.7733332 154.24,31.8 C153.679997,31.8266668 153.253335,31.4466706 152.96,30.66 C152.666665,29.8733294 152.506667,28.5066764 152.48,26.56 L152.48,21.24 Z M148.44,42.6 C149.640006,42.6 150.59333,42.166671 151.3,41.3 C152.00667,40.433329 152.36,39.3733396 152.36,38.12 C152.36,36.919994 152.013337,35.8666712 151.32,34.96 C150.626663,34.0533288 149.666673,33.6 148.44,33.6 C147.293328,33.6 146.36667,34.0199958 145.66,34.86 C144.95333,35.7000042 144.6,36.78666 144.6,38.12 C144.6,39.3466728 144.95333,40.3999956 145.66,41.28 C146.36667,42.1600044 147.293328,42.6 148.44,42.6 Z M140.16,38.4 C140.16,36.3199896 140.939992,34.6533396 142.5,33.4 C144.060008,32.1466604 146.039988,31.52 148.44,31.52 C150.920012,31.52 152.919992,32.1466604 154.44,33.4 C155.960008,34.6533396 156.72,36.3199896 156.72,38.4 C156.72,40.4800104 155.960008,42.1466604 154.44,43.4 C152.919992,44.6533396 150.920012,45.28 148.44,45.28 C147.239994,45.28 146.133338,45.1200016 145.12,44.8 C144.106662,44.4799984 143.22667,44.0133364 142.48,43.4 C141.73333,42.8133304 141.160002,42.0933376 140.76,41.24 C140.359998,40.3866624 140.16,39.4400052 140.16,38.4 Z" id="title-mypage"></path>
            </g>
        </g>
    </g>
</svg>