<?xml version="1.0" encoding="UTF-8"?>
<svg width="192px" height="23px" viewBox="0 0 192 23" version="1.1" xmlns="http://www.w3.org/2000/svg" xmlns:xlink="http://www.w3.org/1999/xlink">
    <!-- Generator: Sketch 46.1 (44463) - http://www.bohemiancoding.com/sketch -->
    <title>Upcoming Events</title>
    <desc>Created with Sketch.</desc>
    <defs></defs>
    <g id="Desktop" stroke="none" stroke-width="1" fill="none" fill-rule="evenodd">
        <g id="01-MAIN" transform="translate(-251.000000, -876.000000)" fill="#212630">
            <path d="M266.2,887.52 L266.2,876.864 L262.432,876.864 L262.432,887.52 C262.432,888.800006 262.176003,889.739997 261.664,890.34 C261.151997,890.940003 260.224007,891.24 258.88,891.24 C258.111996,891.24 257.500002,891.132001 257.044,890.916 C256.587998,890.699999 256.232001,890.420002 255.976,890.076 C255.719999,889.731998 255.552,889.336002 255.472,888.888 C255.392,888.439998 255.352,887.984002 255.352,887.52 L255.352,876.864 L251.584,876.864 L251.584,887.52 C251.584,889.856012 252.219994,891.583994 253.492,892.704 C254.764006,893.824006 256.559988,894.384 258.88,894.384 C261.168011,894.384 262.959994,893.820006 264.256,892.692 C265.552006,891.563994 266.2,889.840012 266.2,887.52 Z M274.744,891.768 C275.304003,891.768 275.771998,891.656001 276.148,891.432 C276.524002,891.207999 276.827999,890.916002 277.06,890.556 C277.292001,890.195998 277.455999,889.776002 277.552,889.296 C277.648,888.815998 277.696,888.328002 277.696,887.832 C277.696,887.335998 277.644,886.848002 277.54,886.368 C277.435999,885.887998 277.264001,885.460002 277.024,885.084 C276.783999,884.707998 276.476002,884.404001 276.1,884.172 C275.723998,883.939999 275.264003,883.824 274.72,883.824 C274.159997,883.824 273.692002,883.939999 273.316,884.172 C272.939998,884.404001 272.636001,884.703998 272.404,885.072 C272.171999,885.440002 272.008,885.863998 271.912,886.344 C271.815999,886.824002 271.768,887.319997 271.768,887.832 C271.768,888.328002 271.819999,888.815998 271.924,889.296 C272.028,889.776002 272.195999,890.195998 272.428,890.556 C272.660001,890.916002 272.967998,891.207999 273.352,891.432 C273.736002,891.656001 274.199997,891.768 274.744,891.768 Z M268.48,881.592 L271.72,881.592 L271.72,883.176 L271.768,883.176 C272.184002,882.503997 272.711997,882.016002 273.352,881.712 C273.992003,881.407998 274.695996,881.256 275.464,881.256 C276.440005,881.256 277.279996,881.439998 277.984,881.808 C278.688003,882.176002 279.271998,882.663997 279.736,883.272 C280.200002,883.880003 280.543999,884.587996 280.768,885.396 C280.992001,886.204004 281.104,887.047996 281.104,887.928 C281.104,888.760004 280.992001,889.559996 280.768,890.328 C280.543999,891.096004 280.204002,891.775997 279.748,892.368 C279.291998,892.960003 278.724003,893.431998 278.044,893.784 C277.363997,894.136002 276.568005,894.312 275.656,894.312 C274.887996,894.312 274.180003,894.156002 273.532,893.844 C272.883997,893.531998 272.352002,893.072003 271.936,892.464 L271.888,892.464 L271.888,898.344 L268.48,898.344 L268.48,881.592 Z M290.992,885.96 L294.328,885.96 C294.28,885.159996 294.088002,884.468003 293.752,883.884 C293.415998,883.299997 292.980003,882.812002 292.444,882.42 C291.907997,882.027998 291.300003,881.736001 290.62,881.544 C289.939997,881.351999 289.232004,881.256 288.496,881.256 C287.487995,881.256 286.592004,881.423998 285.808,881.76 C285.023996,882.096002 284.360003,882.563997 283.816,883.164 C283.271997,883.764003 282.860001,884.475996 282.58,885.3 C282.299999,886.124004 282.16,887.015995 282.16,887.976 C282.16,888.904005 282.311998,889.755996 282.616,890.532 C282.920001,891.308004 283.343997,891.975997 283.888,892.536 C284.432003,893.096003 285.091996,893.531998 285.868,893.844 C286.644004,894.156002 287.495995,894.312 288.424,894.312 C290.072008,894.312 291.423995,893.880004 292.48,893.016 C293.536005,892.151996 294.175999,890.896008 294.4,889.248 L291.112,889.248 C290.999999,890.016004 290.724002,890.627998 290.284,891.084 C289.843998,891.540002 289.216004,891.768 288.4,891.768 C287.871997,891.768 287.424002,891.648001 287.056,891.408 C286.687998,891.167999 286.396001,890.860002 286.18,890.484 C285.963999,890.107998 285.808,889.688002 285.712,889.224 C285.615999,888.759998 285.568,888.304002 285.568,887.856 C285.568,887.391998 285.615999,886.924002 285.712,886.452 C285.808,885.979998 285.971999,885.548002 286.204,885.156 C286.436001,884.763998 286.735998,884.444001 287.104,884.196 C287.472002,883.947999 287.927997,883.824 288.472,883.824 C289.928007,883.824 290.767999,884.535993 290.992,885.96 Z M298.744,887.808 C298.744,888.304002 298.791999,888.787998 298.888,889.26 C298.984,889.732002 299.147999,890.155998 299.38,890.532 C299.612001,890.908002 299.919998,891.207999 300.304,891.432 C300.688002,891.656001 301.167997,891.768 301.744,891.768 C302.320003,891.768 302.803998,891.656001 303.196,891.432 C303.588002,891.207999 303.899999,890.908002 304.132,890.532 C304.364001,890.155998 304.527999,889.732002 304.624,889.26 C304.72,888.787998 304.768,888.304002 304.768,887.808 C304.768,887.311998 304.72,886.824002 304.624,886.344 C304.527999,885.863998 304.364001,885.440002 304.132,885.072 C303.899999,884.703998 303.588002,884.404001 303.196,884.172 C302.803998,883.939999 302.320003,883.824 301.744,883.824 C301.167997,883.824 300.688002,883.939999 300.304,884.172 C299.919998,884.404001 299.612001,884.703998 299.38,885.072 C299.147999,885.440002 298.984,885.863998 298.888,886.344 C298.791999,886.824002 298.744,887.311998 298.744,887.808 Z M295.336,887.808 C295.336,886.815995 295.487998,885.916004 295.792,885.108 C296.096001,884.299996 296.527997,883.612003 297.088,883.044 C297.648003,882.475997 298.319996,882.036002 299.104,881.724 C299.888004,881.411998 300.767995,881.256 301.744,881.256 C302.720005,881.256 303.603996,881.411998 304.396,881.724 C305.188004,882.036002 305.863997,882.475997 306.424,883.044 C306.984003,883.612003 307.415998,884.299996 307.72,885.108 C308.024001,885.916004 308.176,886.815995 308.176,887.808 C308.176,888.800005 308.024001,889.695996 307.72,890.496 C307.415998,891.296004 306.984003,891.979997 306.424,892.548 C305.863997,893.116003 305.188004,893.551998 304.396,893.856 C303.603996,894.160002 302.720005,894.312 301.744,894.312 C300.767995,894.312 299.888004,894.160002 299.104,893.856 C298.319996,893.551998 297.648003,893.116003 297.088,892.548 C296.527997,891.979997 296.096001,891.296004 295.792,890.496 C295.487998,889.695996 295.336,888.800005 295.336,887.808 Z M309.88,881.592 L309.88,894 L313.288,894 L313.288,886.8 C313.288,886.191997 313.375999,885.700002 313.552,885.324 C313.728001,884.947998 313.939999,884.660001 314.188,884.46 C314.436001,884.259999 314.691999,884.124 314.956,884.052 C315.220001,883.98 315.431999,883.944 315.592,883.944 C316.136003,883.944 316.547999,884.035999 316.828,884.22 C317.108001,884.404001 317.307999,884.647998 317.428,884.952 C317.548001,885.256002 317.616,885.587998 317.632,885.948 C317.648,886.308002 317.656,886.671998 317.656,887.04 L317.656,894 L321.064,894 L321.064,887.088 C321.064,886.703998 321.092,886.324002 321.148,885.948 C321.204,885.571998 321.315999,885.236001 321.484,884.94 C321.652001,884.643999 321.883998,884.404001 322.18,884.22 C322.476001,884.035999 322.863998,883.944 323.344,883.944 C323.824002,883.944 324.203999,884.023999 324.484,884.184 C324.764001,884.344001 324.975999,884.559999 325.12,884.832 C325.264001,885.104001 325.352,885.423998 325.384,885.792 C325.416,886.160002 325.432,886.551998 325.432,886.968 L325.432,894 L328.84,894 L328.84,885.696 C328.84,884.895996 328.728001,884.212003 328.504,883.644 C328.279999,883.075997 327.968002,882.616002 327.568,882.264 C327.167998,881.911998 326.688003,881.656001 326.128,881.496 C325.567997,881.335999 324.960003,881.256 324.304,881.256 C323.439996,881.256 322.692003,881.463998 322.06,881.88 C321.427997,882.296002 320.928002,882.775997 320.56,883.32 C320.223998,882.551996 319.732003,882.016002 319.084,881.712 C318.435997,881.407998 317.720004,881.256 316.936,881.256 C316.119996,881.256 315.396003,881.431998 314.764,881.784 C314.131997,882.136002 313.592002,882.631997 313.144,883.272 L313.096,883.272 L313.096,881.592 L309.88,881.592 Z M334.432,879.672 L334.432,876.864 L331.024,876.864 L331.024,879.672 L334.432,879.672 Z M331.024,881.592 L331.024,894 L334.432,894 L334.432,881.592 L331.024,881.592 Z M336.52,881.592 L336.52,894 L339.928,894 L339.928,887.496 C339.928,886.231994 340.135998,885.324003 340.552,884.772 C340.968002,884.219997 341.639995,883.944 342.568,883.944 C343.384004,883.944 343.951998,884.195997 344.272,884.7 C344.592001,885.204003 344.752,885.967995 344.752,886.992 L344.752,894 L348.16,894 L348.16,886.368 C348.16,885.599996 348.092001,884.900003 347.956,884.268 C347.819999,883.635997 347.584002,883.100002 347.248,882.66 C346.911998,882.219998 346.452003,881.876001 345.868,881.628 C345.283997,881.379999 344.536004,881.256 343.624,881.256 C342.903996,881.256 342.200003,881.419998 341.512,881.748 C340.823996,882.076002 340.264002,882.599996 339.832,883.32 L339.76,883.32 L339.76,881.592 L336.52,881.592 Z M355.936,891.072 C356.416002,891.072 356.839998,890.976001 357.208,890.784 C357.576002,890.591999 357.879999,890.336002 358.12,890.016 C358.360001,889.695998 358.539999,889.332002 358.66,888.924 C358.78,888.515998 358.84,888.088002 358.84,887.64 C358.84,887.127997 358.792,886.644002 358.696,886.188 C358.599999,885.731998 358.440001,885.328002 358.216,884.976 C357.991999,884.623998 357.696002,884.344001 357.328,884.136 C356.959998,883.927999 356.496003,883.824 355.936,883.824 C355.455997,883.824 355.044002,883.919999 354.7,884.112 C354.355998,884.304001 354.068001,884.563998 353.836,884.892 C353.603999,885.220002 353.436,885.595998 353.332,886.02 C353.227999,886.444002 353.176,886.887998 353.176,887.352 C353.176,887.800002 353.219999,888.243998 353.308,888.684 C353.396,889.124002 353.547999,889.519998 353.764,889.872 C353.980001,890.224002 354.263998,890.511999 354.616,890.736 C354.968002,890.960001 355.407997,891.072 355.936,891.072 Z M362.08,893.208 C362.08,893.704002 362.012001,894.271997 361.876,894.912 C361.739999,895.552003 361.448002,896.147997 361,896.7 C360.551998,897.252003 359.904004,897.719998 359.056,898.104 C358.207996,898.488002 357.072007,898.68 355.648,898.68 C355.039997,898.68 354.420003,898.604001 353.788,898.452 C353.155997,898.299999 352.580002,898.064002 352.06,897.744 C351.539997,897.423998 351.108002,897.012003 350.764,896.508 C350.419998,896.003997 350.224,895.400004 350.176,894.696 L353.56,894.696 C353.720001,895.336003 354.031998,895.779999 354.496,896.028 C354.960002,896.276001 355.495997,896.4 356.104,896.4 C357.064005,896.4 357.763998,896.112003 358.204,895.536 C358.644002,894.959997 358.856,894.232004 358.84,893.352 L358.84,891.72 L358.792,891.72 C358.423998,892.376003 357.900003,892.859998 357.22,893.172 C356.539996,893.484002 355.824004,893.64 355.072,893.64 C354.143995,893.64 353.344003,893.476002 352.672,893.148 C351.999996,892.819998 351.448002,892.372003 351.016,891.804 C350.583998,891.235997 350.268001,890.572004 350.068,889.812 C349.867999,889.051996 349.768,888.248004 349.768,887.4 C349.768,886.599996 349.883999,885.828004 350.116,885.084 C350.348001,884.339996 350.687998,883.684003 351.136,883.116 C351.584002,882.547997 352.139997,882.096002 352.804,881.76 C353.468003,881.423998 354.231996,881.256 355.096,881.256 C355.912004,881.256 356.627997,881.407998 357.244,881.712 C357.860003,882.016002 358.375998,882.527996 358.792,883.248 L358.84,883.248 L358.84,881.592 L362.08,881.592 L362.08,893.208 Z M370.648,876.864 L370.648,894 L383.656,894 L383.656,890.832 L374.416,890.832 L374.416,886.632 L382.72,886.632 L382.72,883.704 L374.416,883.704 L374.416,880.032 L383.464,880.032 L383.464,876.864 L370.648,876.864 Z M392.104,894 L396.304,881.592 L392.92,881.592 L390.304,890.064 L390.256,890.064 L387.64,881.592 L384.064,881.592 L388.312,894 L392.104,894 Z M405.472,886.464 C405.311999,885.599996 405.028002,884.944002 404.62,884.496 C404.211998,884.047998 403.592004,883.824 402.76,883.824 C402.215997,883.824 401.764002,883.915999 401.404,884.1 C401.043998,884.284001 400.756001,884.511999 400.54,884.784 C400.323999,885.056001 400.172,885.343998 400.084,885.648 C399.995999,885.952002 399.944,886.223999 399.928,886.464 L405.472,886.464 Z M399.928,888.624 C399.976,889.728006 400.255997,890.527998 400.768,891.024 C401.280002,891.520002 402.015995,891.768 402.976,891.768 C403.664003,891.768 404.255997,891.596002 404.752,891.252 C405.248002,890.907998 405.551999,890.544002 405.664,890.16 L408.664,890.16 C408.183997,891.648007 407.448005,892.711997 406.456,893.352 C405.463995,893.992003 404.264007,894.312 402.856,894.312 C401.879995,894.312 401.000004,894.156002 400.216,893.844 C399.431996,893.531998 398.768002,893.088003 398.224,892.512 C397.679997,891.935997 397.260001,891.248004 396.964,890.448 C396.667998,889.647996 396.52,888.768005 396.52,887.808 C396.52,886.879995 396.671998,886.016004 396.976,885.216 C397.280001,884.415996 397.711997,883.724003 398.272,883.14 C398.832003,882.555997 399.499996,882.096002 400.276,881.76 C401.052004,881.423998 401.911995,881.256 402.856,881.256 C403.912005,881.256 404.831996,881.459998 405.616,881.868 C406.400004,882.276002 407.043997,882.823997 407.548,883.512 C408.052002,884.200003 408.415999,884.983996 408.64,885.864 C408.864001,886.744004 408.944,887.663995 408.88,888.624 L399.928,888.624 Z M410.296,881.592 L410.296,894 L413.704,894 L413.704,887.496 C413.704,886.231994 413.911998,885.324003 414.328,884.772 C414.744002,884.219997 415.415995,883.944 416.344,883.944 C417.160004,883.944 417.727998,884.195997 418.048,884.7 C418.368001,885.204003 418.528,885.967995 418.528,886.992 L418.528,894 L421.936,894 L421.936,886.368 C421.936,885.599996 421.868,884.900003 421.732,884.268 C421.595999,883.635997 421.360001,883.100002 421.024,882.66 C420.687998,882.219998 420.228003,881.876001 419.644,881.628 C419.059997,881.379999 418.312004,881.256 417.4,881.256 C416.679996,881.256 415.976003,881.419998 415.288,881.748 C414.599996,882.076002 414.040002,882.599996 413.608,883.32 L413.536,883.32 L413.536,881.592 L410.296,881.592 Z M428.248,881.592 L428.248,877.872 L424.84,877.872 L424.84,881.592 L422.776,881.592 L422.776,883.872 L424.84,883.872 L424.84,891.192 C424.84,891.816003 424.943999,892.319998 425.152,892.704 C425.360001,893.088002 425.643998,893.383999 426.004,893.592 C426.364001,893.800001 426.779997,893.94 427.252,894.012 C427.724002,894.084 428.223997,894.12 428.752,894.12 C429.088001,894.12 429.431998,894.112 429.784,894.096 C430.136001,894.08 430.455998,894.048 430.744,894 L430.744,891.36 C430.583999,891.392 430.416001,891.416 430.24,891.432 C430.063999,891.448 429.880001,891.456 429.688,891.456 C429.111997,891.456 428.728001,891.360001 428.536,891.168 C428.343999,890.975999 428.248,890.592003 428.248,890.016 L428.248,883.872 L430.744,883.872 L430.744,881.592 L428.248,881.592 Z M434.416,889.968 L431.176,889.968 C431.208,890.800004 431.395998,891.491997 431.74,892.044 C432.084001,892.596003 432.523997,893.039998 433.06,893.376 C433.596002,893.712002 434.207996,893.951999 434.896,894.096 C435.584003,894.240001 436.287996,894.312 437.008,894.312 C437.712003,894.312 438.403996,894.244001 439.084,894.108 C439.764003,893.971999 440.367997,893.736002 440.896,893.4 C441.424002,893.063998 441.851998,892.620003 442.18,892.068 C442.508001,891.515997 442.672,890.832004 442.672,890.016 C442.672,889.439997 442.560001,888.956002 442.336,888.564 C442.111999,888.171998 441.816002,887.844001 441.448,887.58 C441.079998,887.315999 440.660002,887.104001 440.188,886.944 C439.715997,886.783999 439.232002,886.648001 438.736,886.536 C438.255997,886.423999 437.784002,886.32 437.32,886.224 C436.855997,886.128 436.444001,886.020001 436.084,885.9 C435.723998,885.779999 435.432001,885.624001 435.208,885.432 C434.983999,885.239999 434.872,884.992002 434.872,884.688 C434.872,884.431999 434.935999,884.228001 435.064,884.076 C435.192,883.923999 435.347999,883.808 435.532,883.728 C435.716001,883.648 435.919999,883.596 436.144,883.572 C436.368001,883.548 436.575999,883.536 436.768,883.536 C437.376003,883.536 437.903997,883.651999 438.352,883.884 C438.800002,884.116001 439.047999,884.559997 439.096,885.216 L442.336,885.216 C442.271999,884.447996 442.076001,883.812003 441.748,883.308 C441.419998,882.803997 441.008002,882.400002 440.512,882.096 C440.015997,881.791998 439.452003,881.576001 438.82,881.448 C438.187997,881.319999 437.536003,881.256 436.864,881.256 C436.191996,881.256 435.536003,881.315999 434.896,881.436 C434.255996,881.556001 433.680002,881.763999 433.168,882.06 C432.655997,882.356001 432.244001,882.759997 431.932,883.272 C431.619998,883.784003 431.464,884.439996 431.464,885.24 C431.464,885.784003 431.575999,886.243998 431.8,886.62 C432.024001,886.996002 432.319998,887.307999 432.688,887.556 C433.056002,887.804001 433.475997,888.003999 433.948,888.156 C434.420002,888.308001 434.903997,888.439999 435.4,888.552 C436.616006,888.808001 437.563996,889.063999 438.244,889.32 C438.924003,889.576001 439.264,889.959997 439.264,890.472 C439.264,890.776002 439.192,891.027999 439.048,891.228 C438.903999,891.428001 438.724001,891.587999 438.508,891.708 C438.291999,891.828001 438.052001,891.916 437.788,891.972 C437.523998,892.028 437.272001,892.056 437.032,892.056 C436.695998,892.056 436.372001,892.016 436.06,891.936 C435.747998,891.856 435.472001,891.732001 435.232,891.564 C434.991998,891.395999 434.796,891.180001 434.644,890.916 C434.491999,890.651999 434.416,890.336002 434.416,889.968 Z" id="Upcoming-Events"></path>
        </g>
    </g>
</svg>