<?xml version="1.0" encoding="UTF-8"?>
<svg width="145px" height="39px" viewBox="0 0 145 39" version="1.1" xmlns="http://www.w3.org/2000/svg" xmlns:xlink="http://www.w3.org/1999/xlink">
    <!-- Generator: Sketch 46.1 (44463) - http://www.bohemiancoding.com/sketch -->
    <title>작품보기</title>
    <desc>Created with Sketch.</desc>
    <defs></defs>
    <g id="Desktop" stroke="none" stroke-width="1" fill="none" fill-rule="evenodd">
        <g id="02-WORKS" transform="translate(-250.000000, -119.000000)" fill="#212630">
            <g id="Header" transform="translate(0.000000, 112.000000)">
                <path d="M279.6,12.2 L279.6,20.68 C280.213336,20.6533332 280.799997,20.5866672 281.36,20.48 C281.920003,20.3733328 282.399998,20.1600016 282.8,19.84 C282.933334,19.6533324 283.379996,19.5466668 284.14,19.52 C284.900004,19.4933332 285.57333,19.5199996 286.16,19.6 C286.82667,19.7600008 287.313332,20.0199982 287.62,20.38 C287.926668,20.7400018 288.04,21.0933316 287.96,21.44 C287.906666,21.8133352 287.686669,22.133332 287.3,22.4 C286.913331,22.666668 286.38667,22.8 285.72,22.8 L279.6,22.8 L279.6,23.64 C279.546666,26.0933456 279.253336,27.8266616 278.72,28.84 C278.186664,29.8533384 277.613336,30.3733332 277,30.4 C276.466664,30.4266668 276.066668,30.0666704 275.8,29.32 C275.533332,28.5733296 275.386667,27.1200108 275.36,24.96 L275.36,12.88 C275.36,12.2933304 275.293334,11.7866688 275.16,11.36 C275.026666,10.9333312 274.800002,10.6000012 274.48,10.36 C274.053331,10.0399984 273.560003,9.780001 273,9.58 C272.439997,9.379999 271.86667,9.2266672 271.28,9.12 C271.066666,9.0933332 270.92,8.9866676 270.84,8.8 C270.76,8.6133324 270.746666,8.4133344 270.8,8.2 C270.853334,8.0133324 270.973332,7.8333342 271.16,7.66 C271.346668,7.4866658 271.586665,7.4 271.88,7.4 C272.360002,7.4 272.939997,7.433333 273.62,7.5 C274.300003,7.566667 274.986663,7.6399996 275.68,7.72 C276.373337,7.8266672 277.05333,7.9399994 277.72,8.06 C278.38667,8.1800006 278.973331,8.2933328 279.48,8.4 C279.693334,8.4800004 279.84,8.653332 279.92,8.92 C280,9.186668 280,9.453332 279.92,9.72 C279.786666,10.120002 279.7,10.5333312 279.66,10.96 C279.62,11.3866688 279.6,11.799998 279.6,12.2 Z M279.28,39.24 C279.28,41.1600096 279.000003,42.6799944 278.44,43.8 C277.879997,44.9200056 277.280003,45.4933332 276.64,45.52 C276.133331,45.5733336 275.706668,45.1600044 275.36,44.28 C275.013332,43.3999956 274.84,42.226674 274.84,40.76 L274.84,34.28 C273.399993,34.3066668 271.820009,34.3599996 270.1,34.44 C268.379991,34.5200004 266.840007,34.626666 265.48,34.76 C265.239999,34.7866668 265.026668,34.8266664 264.84,34.88 L264.28,35.04 C264.093332,35.0933336 263.920001,35.1599996 263.76,35.24 C263.599999,35.3200004 263.440001,35.3866664 263.28,35.44 C262.986665,35.5200004 262.673335,35.5866664 262.34,35.64 C262.006665,35.6933336 261.613336,35.6400008 261.16,35.48 C260.679998,35.3733328 260.140003,35.1800014 259.54,34.9 C258.939997,34.6199986 258.253337,34.2266692 257.48,33.72 C256.706663,33.2399976 256.419999,32.7800022 256.62,32.34 C256.820001,31.8999978 257.413328,31.7733324 258.4,31.96 C258.906669,32.0400004 259.613329,32.113333 260.52,32.18 C261.426671,32.246667 262.373328,32.28 263.36,32.28 L269.12,32.28 C270.026671,32.2533332 270.886663,32.2133336 271.7,32.16 C272.513337,32.1066664 273.239997,32.013334 273.88,31.88 C273.96,31.88 274.053333,31.8533336 274.16,31.8 C274.266667,31.7466664 274.373333,31.7066668 274.48,31.68 C274.586667,31.6266664 274.693333,31.5800002 274.8,31.54 C274.906667,31.4999998 275.026666,31.48 275.16,31.48 C275.453335,31.48 275.753332,31.4733334 276.06,31.46 C276.366668,31.4466666 276.679998,31.44 277,31.44 L277.82,31.44 C278.073335,31.44 278.306666,31.4533332 278.52,31.48 C279.053336,31.613334 279.386666,31.8333318 279.52,32.14 C279.653334,32.4466682 279.68,32.7733316 279.6,33.12 C279.52,33.386668 279.446667,33.6666652 279.38,33.96 C279.313333,34.2533348 279.28,34.5466652 279.28,34.84 L279.28,39.24 Z M265,21.48 C265.613336,21.880002 266.186664,22.2333318 266.72,22.54 C267.253336,22.8466682 267.639999,23.0533328 267.88,23.16 C268.013334,23.2133336 268.146666,23.2533332 268.28,23.28 C268.413334,23.3066668 268.533333,23.32 268.64,23.32 C268.72,23.3466668 268.806666,23.3533334 268.9,23.34 C268.993334,23.3266666 269.08,23.32 269.16,23.32 C269.24,23.3466668 269.353333,23.3866664 269.5,23.44 C269.646667,23.4933336 269.839999,23.5999992 270.08,23.76 C270.400002,23.9733344 270.713332,24.2399984 271.02,24.56 C271.326668,24.8800016 271.599999,25.1999984 271.84,25.52 C272.080001,25.8400016 272.279999,26.133332 272.44,26.4 C272.600001,26.666668 272.706666,26.8533328 272.76,26.96 C272.946668,27.4133356 273.006667,27.8266648 272.94,28.2 C272.873333,28.5733352 272.706668,28.8399992 272.44,29 C272.173332,29.1600008 271.813336,29.1866672 271.36,29.08 C270.906664,28.9733328 270.413336,28.6666692 269.88,28.16 C269.106663,27.5733304 268.100006,26.813338 266.86,25.88 C265.619994,24.946662 264.466672,24.1066704 263.4,23.36 C261.799992,24.7733404 260.106676,26.0933272 258.32,27.32 C256.533324,28.5466728 254.786675,29.5066632 253.08,30.2 C252.41333,30.5200016 251.886669,30.6866666 251.5,30.7 C251.113331,30.7133334 250.840001,30.653334 250.68,30.52 C250.519999,30.4133328 250.453333,30.2533344 250.48,30.04 C250.506667,29.8266656 250.626666,29.653334 250.84,29.52 C252.066673,28.7999964 253.359993,27.8866722 254.72,26.78 C256.080007,25.6733278 257.399994,24.4800064 258.68,23.2 C259.960006,21.8933268 261.139995,20.5200072 262.22,19.08 C263.300005,17.6399928 264.17333,16.2133404 264.84,14.8 C263.959996,14.8800004 263.20667,14.9466664 262.58,15 C261.95333,15.0533336 261.373336,15.1066664 260.84,15.16 C260.386664,15.2133336 259.880003,15.3199992 259.32,15.48 C258.759997,15.6400008 258.346668,15.786666 258.08,15.92 C257.919999,16.0800008 257.706668,16.1533334 257.44,16.14 C257.173332,16.1266666 256.853335,16.053334 256.48,15.92 C256.133332,15.8133328 255.726669,15.626668 255.26,15.36 C254.793331,15.093332 254.240003,14.760002 253.6,14.36 C252.799996,13.826664 252.486666,13.393335 252.66,13.06 C252.833334,12.726665 253.319996,12.5866664 254.12,12.64 C254.253334,12.6666668 254.486665,12.6933332 254.82,12.72 C255.153335,12.7466668 255.533331,12.7733332 255.96,12.8 C256.386669,12.8266668 256.846664,12.8466666 257.34,12.86 C257.833336,12.8733334 258.306664,12.88 258.76,12.88 C259.880006,12.88 260.866662,12.8733334 261.72,12.86 C262.573338,12.8466666 263.306664,12.773334 263.92,12.64 C263.973334,12.64 264.04,12.6333334 264.12,12.62 C264.2,12.6066666 264.28,12.5866668 264.36,12.56 C264.44,12.5333332 264.52,12.5133334 264.6,12.5 C264.68,12.4866666 264.76,12.4666668 264.84,12.44 C264.866667,12.44 264.913333,12.4200002 264.98,12.38 C265.046667,12.3399998 265.106666,12.3066668 265.16,12.28 C265.213334,12.2533332 265.28,12.2266668 265.36,12.2 C265.44,12.1733332 265.533333,12.16 265.64,12.16 C266.333337,12.16 267.039996,12.1733332 267.76,12.2 C268.480004,12.2266668 269.106664,12.2533332 269.64,12.28 C270.120002,12.3333336 270.393333,12.5733312 270.46,13 C270.526667,13.4266688 270.480001,13.839998 270.32,14.24 C270.24,14.4000008 270.16,14.5533326 270.08,14.7 C270,14.8466674 269.906667,14.986666 269.8,15.12 C269.693333,15.253334 269.593334,15.3933326 269.5,15.54 C269.406666,15.6866674 269.333334,15.8133328 269.28,15.92 C268.826664,16.7733376 268.240004,17.6733286 267.52,18.62 C266.799996,19.5666714 265.960005,20.5199952 265,21.48 Z M304.96,28.72 C303.599993,28.7466668 302.353339,28.7799998 301.22,28.82 C300.086661,28.8600002 299.14667,28.9066664 298.4,28.96 C298.159999,28.9866668 297.940001,29.0266664 297.74,29.08 C297.539999,29.1333336 297.346668,29.1866664 297.16,29.24 C296.973332,29.2933336 296.800001,29.353333 296.64,29.42 C296.479999,29.486667 296.320001,29.5466664 296.16,29.6 C295.759998,29.7600008 295.320002,29.8866662 294.84,29.98 C294.359998,30.0733338 293.800003,30.0000012 293.16,29.76 C292.653331,29.5999992 292.040004,29.3666682 291.32,29.06 C290.599996,28.7533318 289.880004,28.400002 289.16,28 C288.199995,27.4399972 287.813332,26.9333356 288,26.48 C288.186668,26.0266644 288.799995,25.866666 289.84,26 C290.720004,26.133334 291.813327,26.2399996 293.12,26.32 C294.426673,26.4000004 295.973324,26.44 297.76,26.44 C299.360008,26.44 300.926659,26.4466666 302.46,26.46 C303.993341,26.4733334 305.439993,26.48 306.8,26.48 C308.160007,26.48 309.386661,26.4733334 310.48,26.46 C311.573339,26.4466666 312.479996,26.4133336 313.2,26.36 C314.000004,26.3333332 314.659997,26.2933336 315.18,26.24 C315.700003,26.1866664 316.079999,26.1066672 316.32,26 C316.426667,25.9733332 316.566666,25.9200004 316.74,25.84 C316.913334,25.7599996 317.079999,25.6933336 317.24,25.64 C317.426668,25.5866664 317.606666,25.5333336 317.78,25.48 C317.953334,25.4266664 318.119999,25.3866668 318.28,25.36 C319.133338,25.3066664 320.006662,25.2999998 320.9,25.34 C321.793338,25.3800002 322.61333,25.4799992 323.36,25.64 C323.893336,25.773334 324.319998,25.9666654 324.64,26.22 C324.960002,26.4733346 325.093334,26.799998 325.04,27.2 C324.986666,27.7066692 324.773335,28.0799988 324.4,28.32 C324.026665,28.5600012 323.520003,28.68 322.88,28.68 C322.426664,28.68 321.90667,28.6733334 321.32,28.66 C320.73333,28.6466666 320.093337,28.64 319.4,28.64 C318.73333,28.6133332 318.020004,28.5933334 317.26,28.58 C316.499996,28.5666666 315.733337,28.56 314.96,28.56 C314.159996,28.56 313.306671,28.5666666 312.4,28.58 C311.493329,28.5933334 310.520005,28.6 309.48,28.6 L309.48,32.76 C309.720001,32.76 309.953332,32.7533334 310.18,32.74 C310.406668,32.7266666 310.626666,32.7066668 310.84,32.68 C311.026668,32.68 311.199999,32.6733334 311.36,32.66 C311.520001,32.6466666 311.679999,32.6266668 311.84,32.6 C311.92,32.6 311.993333,32.5866668 312.06,32.56 C312.126667,32.5333332 312.2,32.4933336 312.28,32.44 L312.52,32.36 C312.6,32.3333332 312.693333,32.3066668 312.8,32.28 C313.413336,32.2266664 314.133329,32.2133332 314.96,32.24 C315.786671,32.2666668 316.426664,32.3333328 316.88,32.44 C317.280002,32.6000008 317.506666,32.8199986 317.56,33.1 C317.613334,33.3800014 317.560001,33.6933316 317.4,34.04 C317.346666,34.173334 317.286667,34.306666 317.22,34.44 C317.153333,34.573334 317.093334,34.706666 317.04,34.84 C316.986666,34.973334 316.94,35.1133326 316.9,35.26 C316.86,35.4066674 316.84,35.5333328 316.84,35.64 L315.92,41.16 C316.320002,41.16 316.666665,41.2666656 316.96,41.48 C317.253335,41.6933344 317.4,41.9466652 317.4,42.24 C317.373333,42.5333348 317.193335,42.7999988 316.86,43.04 C316.526665,43.2800012 316.106669,43.4 315.6,43.4 C314.399994,43.4 313.120007,43.4066666 311.76,43.42 C310.399993,43.4333334 309.09334,43.44 307.84,43.44 C306.613327,43.4666668 305.513338,43.48 304.54,43.48 L302.48,43.48 C302.4,43.9600024 302.113336,44.3866648 301.62,44.76 C301.126664,45.1333352 300.720002,45.32 300.4,45.32 C299.893331,45.32 299.453335,45.1066688 299.08,44.68 C298.706665,44.2533312 298.493334,43.6666704 298.44,42.92 L297.84,35.88 C297.786666,35.3199972 297.586668,34.9200012 297.24,34.68 C296.893332,34.4399988 296.360004,34.2400008 295.64,34.08 C295.399999,34.0266664 295.24,33.9133342 295.16,33.74 C295.08,33.5666658 295.066666,33.3733344 295.12,33.16 C295.173334,32.9733324 295.293332,32.8000008 295.48,32.64 C295.666668,32.4799992 295.906665,32.3866668 296.2,32.36 C296.680002,32.3333332 297.25333,32.3399998 297.92,32.38 C298.58667,32.4200002 299.25333,32.4666664 299.92,32.52 C300.560003,32.5733336 301.153331,32.6266664 301.7,32.68 C302.246669,32.7333336 302.653332,32.7733332 302.92,32.8 C303.053334,32.8 303.193333,32.8066666 303.34,32.82 C303.486667,32.8333334 303.639999,32.84 303.8,32.84 L304.96,32.84 L304.96,28.72 Z M312.16,34.96 L302.4,35 L302.56,41.16 L312.12,41.16 L312.16,34.96 Z M318.76,10.76 C318.733333,11.2400024 318.553335,11.5866656 318.22,11.8 C317.886665,12.0133344 317.440003,12.1333332 316.88,12.16 C316.719999,12.1866668 316.313337,12.1933334 315.66,12.18 C315.006663,12.1666666 314.240004,12.16 313.36,12.16 C312.479996,12.1333332 311.553338,12.1133334 310.58,12.1 C309.606662,12.0866666 308.74667,12.08 308,12.08 C307.386664,12.08 306.820003,12.0933332 306.3,12.12 C305.779997,12.1466668 305.293336,12.1733332 304.84,12.2 C304.413331,12.2533336 304.006669,12.2999998 303.62,12.34 C303.233331,12.3800002 302.880002,12.4133332 302.56,12.44 C302.213332,12.4933336 301.880002,12.5733328 301.56,12.68 C301.239998,12.7866672 300.960001,12.906666 300.72,13.04 C300.559999,13.0933336 300.406667,13.1466664 300.26,13.2 C300.113333,13.2533336 299.946668,13.2933332 299.76,13.32 L299.24,13.32 C299.053332,13.32 298.840001,13.2800004 298.6,13.2 C298.119998,13.1199996 297.52667,12.9000018 296.82,12.54 C296.11333,12.1799982 295.480003,11.800002 294.92,11.4 C294.17333,10.8933308 293.846666,10.440002 293.94,10.04 C294.033334,9.639998 294.573328,9.4933328 295.56,9.6 C296.440004,9.7066672 297.393328,9.8066662 298.42,9.9 C299.446672,9.9933338 300.639993,10.04 302,10.04 L305.88,10.08 C306.840005,10.08 307.846661,10.0666668 308.9,10.04 C309.953339,10.0133332 310.733331,9.8933344 311.24,9.68 C311.293334,9.6533332 311.366666,9.6200002 311.46,9.58 C311.553334,9.5399998 311.653333,9.4933336 311.76,9.44 C311.866667,9.3866664 311.973333,9.3400002 312.08,9.3 C312.186667,9.2599998 312.293333,9.2266668 312.4,9.2 C312.960003,9.1199996 313.606663,9.08 314.34,9.08 C315.073337,9.08 315.77333,9.1199996 316.44,9.2 C317.10667,9.2800004 317.659998,9.4399988 318.1,9.68 C318.540002,9.9200012 318.76,10.2799976 318.76,10.76 Z M306.8,21.04 C307.38667,21.0666668 308.019997,21.0733334 308.7,21.06 C309.380003,21.0466666 309.999997,21.0133336 310.56,20.96 L310.8,16.28 C310.8,15.7733308 310.660001,15.4066678 310.38,15.18 C310.099999,14.9533322 309.66667,14.7200012 309.08,14.48 C308.49333,14.2666656 308.286666,13.9800018 308.46,13.62 C308.633334,13.2599982 308.986664,13.08 309.52,13.08 C310.240004,13.08 311.033329,13.1199996 311.9,13.2 C312.766671,13.2800004 313.613329,13.4266656 314.44,13.64 C314.840002,13.773334 315.099999,13.9666654 315.22,14.22 C315.340001,14.4733346 315.346667,14.7466652 315.24,15.04 C315.186666,15.1466672 315.14,15.266666 315.1,15.4 C315.06,15.533334 315.013334,15.666666 314.96,15.8 C314.933333,15.933334 314.9,16.066666 314.86,16.2 C314.82,16.333334 314.8,16.4533328 314.8,16.56 L314.32,20.08 C314.853336,20.0533332 315.419997,20.04 316.02,20.04 C316.620003,20.04 317.159998,20.0799996 317.64,20.16 C318.280003,20.2400004 318.813331,20.413332 319.24,20.68 C319.666669,20.946668 319.88,21.3199976 319.88,21.8 C319.853333,22.2800024 319.673335,22.619999 319.34,22.82 C319.006665,23.020001 318.600002,23.1333332 318.12,23.16 C317.986666,23.1866668 317.500004,23.2 316.66,23.2 C315.819996,23.2 314.853339,23.1866668 313.76,23.16 C312.639994,23.16 311.513339,23.1466668 310.38,23.12 C309.246661,23.0933332 308.320004,23.08 307.6,23.08 C306.399994,23.08 305.266672,23.1266662 304.2,23.22 C303.133328,23.3133338 302.280003,23.3999996 301.64,23.48 C301.266665,23.5333336 300.933335,23.6133328 300.64,23.72 C300.346665,23.8266672 300.080001,23.946666 299.84,24.08 C299.519998,24.1866672 299.193335,24.273333 298.86,24.34 C298.526665,24.406667 298.146669,24.373334 297.72,24.24 C297.239998,24.1599996 296.660003,23.9400018 295.98,23.58 C295.299997,23.2199982 294.680003,22.840002 294.12,22.44 C293.399996,21.9333308 293.08,21.4733354 293.16,21.06 C293.24,20.6466646 293.759995,20.4933328 294.72,20.6 C295.093335,20.6533336 295.479998,20.7066664 295.88,20.76 C296.280002,20.8133336 296.706664,20.8533332 297.16,20.88 C297.586669,20.9333336 298.046664,20.9733332 298.54,21 C299.033336,21.0266668 299.57333,21.04 300.16,21.04 L299.64,17.08 C299.613333,16.813332 299.546667,16.5933342 299.44,16.42 C299.333333,16.2466658 299.200001,16.093334 299.04,15.96 C298.853332,15.8533328 298.640001,15.7533338 298.4,15.66 C298.159999,15.5666662 297.893335,15.453334 297.6,15.32 C297.01333,15.1066656 296.806666,14.800002 296.98,14.4 C297.153334,13.999998 297.506664,13.8 298.04,13.8 C298.680003,13.8 299.513328,13.8266664 300.54,13.88 C301.566672,13.9333336 302.493329,14.0533324 303.32,14.24 C303.720002,14.373334 303.986666,14.5666654 304.12,14.82 C304.253334,15.0733346 304.28,15.3466652 304.2,15.64 C304.146666,15.7466672 304.1,15.8599994 304.06,15.98 C304.02,16.1000006 303.973334,16.226666 303.92,16.36 C303.866666,16.493334 303.826667,16.6333326 303.8,16.78 C303.773333,16.9266674 303.76,17.0533328 303.76,17.16 L303.92,21.04 L306.8,21.04 Z M354.52,14.44 L354.52,26.48 C354.52,27.680006 354.220003,28.6399964 353.62,29.36 C353.019997,30.0800036 352.440003,30.4666664 351.88,30.52 C351.373331,30.5466668 350.953335,30.4133348 350.62,30.12 C350.286665,29.8266652 350.066667,29.480002 349.96,29.08 L346.76,29.16 L346.76,37.32 L348.74,37.32 C349.393337,37.32 349.919998,37.3066668 350.32,37.28 C351.093337,37.2533332 351.739997,37.2133336 352.26,37.16 C352.780003,37.1066664 353.173332,37.0266672 353.44,36.92 C353.546667,36.8933332 353.679999,36.8400004 353.84,36.76 C354.000001,36.6799996 354.173332,36.6133336 354.36,36.56 C354.546668,36.5066664 354.726666,36.4533336 354.9,36.4 C355.073334,36.3466664 355.239999,36.3066668 355.4,36.28 C356.226671,36.2266664 357.093329,36.2199998 358,36.26 C358.906671,36.3000002 359.719996,36.3999992 360.44,36.56 C361.000003,36.693334 361.433332,36.8866654 361.74,37.14 C362.046668,37.3933346 362.186667,37.719998 362.16,38.12 C362.106666,38.6266692 361.886669,38.9999988 361.5,39.24 C361.113331,39.4800012 360.613336,39.6 360,39.6 C359.546664,39.6 359.020003,39.5933334 358.42,39.58 C357.819997,39.5666666 357.173337,39.56 356.48,39.56 C355.81333,39.5333332 355.100004,39.5133334 354.34,39.5 C353.579996,39.4866666 352.813337,39.48 352.04,39.48 C350.759994,39.48 349.386674,39.4933332 347.92,39.52 C346.453326,39.5466668 345.000007,39.5733332 343.56,39.6 C342.093326,39.6266668 340.71334,39.6666664 339.42,39.72 C338.12666,39.7733336 337.040004,39.8266664 336.16,39.88 C335.919999,39.9066668 335.700001,39.9466664 335.5,40 C335.299999,40.0533336 335.106668,40.1066664 334.92,40.16 C334.759999,40.2133336 334.593334,40.273333 334.42,40.34 C334.246666,40.406667 334.080001,40.4666664 333.92,40.52 C333.519998,40.6800008 333.080002,40.8066662 332.6,40.9 C332.119998,40.9933338 331.560003,40.9200012 330.92,40.68 C330.413331,40.5199992 329.800004,40.2866682 329.08,39.98 C328.359996,39.6733318 327.640004,39.320002 326.92,38.92 C325.959995,38.3599972 325.573332,37.8533356 325.76,37.4 C325.946668,36.9466644 326.559995,36.786666 327.6,36.92 C328.480004,37.053334 329.573327,37.1599996 330.88,37.24 C332.186673,37.3200004 333.746658,37.36 335.56,37.36 L342.36,37.36 L342.36,29.24 L338.52,29.32 C338.44,29.6666684 338.166669,30.0466646 337.7,30.46 C337.233331,30.8733354 336.746669,31.0933332 336.24,31.12 C335.759998,31.1466668 335.266669,30.8666696 334.76,30.28 C334.253331,29.6933304 333.986667,28.7466732 333.96,27.44 L333.96,16.08 C333.933333,15.7333316 333.866667,15.4466678 333.76,15.22 C333.653333,14.9933322 333.506668,14.8000008 333.32,14.64 C333.079999,14.4799992 332.800002,14.3400006 332.48,14.22 C332.159998,14.0999994 331.840002,14.0133336 331.52,13.96 C331.333332,13.9333332 331.193334,13.8266676 331.1,13.64 C331.006666,13.4533324 330.973333,13.2666676 331,13.08 C331,12.8666656 331.066666,12.6800008 331.2,12.52 C331.333334,12.3599992 331.546665,12.2666668 331.84,12.24 C332.266669,12.24 332.779997,12.2466666 333.38,12.26 C333.980003,12.2733334 334.586664,12.3199996 335.2,12.4 C335.813336,12.4533336 336.399997,12.5266662 336.96,12.62 C337.520003,12.7133338 337.999998,12.8133328 338.4,12.92 C338.586668,13.0000004 338.713333,13.173332 338.78,13.44 C338.846667,13.706668 338.84,13.973332 338.76,14.24 C338.626666,14.5600016 338.546667,14.8599986 338.52,15.14 C338.493333,15.4200014 338.48,15.693332 338.48,15.96 L338.48,18 L350,17.8 L350,15.04 C350,14.5599976 349.933334,14.1600016 349.8,13.84 C349.666666,13.5199984 349.506668,13.2666676 349.32,13.08 C349.053332,12.8933324 348.733335,12.7466672 348.36,12.64 C347.986665,12.5333328 347.600002,12.4400004 347.2,12.36 C347.013332,12.3333332 346.873334,12.2266676 346.78,12.04 C346.686666,11.8533324 346.653333,11.6666676 346.68,11.48 C346.68,11.2666656 346.746666,11.0800008 346.88,10.92 C347.013334,10.7599992 347.226665,10.6666668 347.52,10.64 C347.946669,10.64 348.479997,10.6533332 349.12,10.68 C349.760003,10.7066668 350.399997,10.7466664 351.04,10.8 C351.70667,10.8800004 352.346664,10.9666662 352.96,11.06 C353.573336,11.1533338 354.079998,11.2533328 354.48,11.36 C354.640001,11.4400004 354.753333,11.613332 354.82,11.88 C354.886667,12.146668 354.88,12.413332 354.8,12.68 C354.72,13.0000016 354.653334,13.2999986 354.6,13.58 C354.546666,13.8600014 354.52,14.1466652 354.52,14.44 Z M350,20.24 L338.48,20.4 L338.48,26.84 L350,26.68 L350,20.24 Z M394,12.16 L394,36.2 C394,39.266682 393.793335,41.6199918 393.38,43.26 C392.966665,44.9000082 392.333338,45.7466664 391.48,45.8 C390.89333,45.8533336 390.460001,45.246673 390.18,43.98 C389.899999,42.713327 389.76,40.813346 389.76,38.28 L389.76,12.88 C389.76,12.2933304 389.680001,11.7866688 389.52,11.36 C389.359999,10.9333312 389.120002,10.6000012 388.8,10.36 C388.373331,10.0399984 387.880003,9.780001 387.32,9.58 C386.759997,9.379999 386.18667,9.2266672 385.6,9.12 C385.386666,9.0933332 385.246667,8.9866676 385.18,8.8 C385.113333,8.6133324 385.106666,8.4133344 385.16,8.2 C385.213334,8.0133324 385.333332,7.8333342 385.52,7.66 C385.706668,7.4866658 385.946665,7.4 386.24,7.4 C386.720002,7.4 387.299997,7.433333 387.98,7.5 C388.660003,7.566667 389.359996,7.6399996 390.08,7.72 C390.800004,7.8266672 391.499997,7.9399994 392.18,8.06 C392.860003,8.1800006 393.453331,8.2933328 393.96,8.4 C394.173334,8.4800004 394.32,8.653332 394.4,8.92 C394.48,9.186668 394.48,9.453332 394.4,9.72 C394.293333,10.120002 394.206667,10.5266646 394.14,10.94 C394.073333,11.3533354 394.026667,11.759998 394,12.16 Z M384.24,14.08 C384.746669,14.1600004 385.066666,14.3866648 385.2,14.76 C385.333334,15.1333352 385.266668,15.586664 385,16.12 C384.893333,16.3066676 384.780001,16.5066656 384.66,16.72 C384.539999,16.9333344 384.426667,17.1333324 384.32,17.32 C384.186666,17.5333344 384.066667,17.7333324 383.96,17.92 C383.853333,18.1066676 383.76,18.2799992 383.68,18.44 C382.719995,20.2533424 381.646673,22.0333246 380.46,23.78 C379.273327,25.5266754 378.01334,27.1866588 376.68,28.76 C375.34666,30.3066744 373.940007,31.7266602 372.46,33.02 C370.979993,34.3133398 369.466674,35.3999956 367.92,36.28 C367.306664,36.7066688 366.786669,36.953333 366.36,37.02 C365.933331,37.086667 365.613334,37.053334 365.4,36.92 C365.186666,36.8133328 365.08,36.6400012 365.08,36.4 C365.08,36.1599988 365.199999,35.9333344 365.44,35.72 C366.746673,34.6799948 368.06666,33.460007 369.4,32.06 C370.73334,30.659993 372.013327,29.1466748 373.24,27.52 C374.466673,25.8933252 375.613328,24.180009 376.68,22.38 C377.746672,20.579991 378.666663,18.746676 379.44,16.88 C378.239994,16.9333336 377.200004,16.9866664 376.32,17.04 C375.439996,17.0933336 374.720003,17.1466664 374.16,17.2 C373.733331,17.2533336 373.20667,17.379999 372.58,17.58 C371.95333,17.780001 371.560001,17.9199996 371.4,18 C371.186666,18.0800004 370.966668,18.1333332 370.74,18.16 C370.513332,18.1866668 370.253335,18.1466672 369.96,18.04 C369.559998,17.9333328 369.020003,17.7000018 368.34,17.34 C367.659997,16.9799982 367.093336,16.6266684 366.64,16.28 C365.839996,15.6666636 365.559999,15.1800018 365.8,14.82 C366.040001,14.4599982 366.639995,14.3199996 367.6,14.4 C367.706667,14.4266668 367.906665,14.4533332 368.2,14.48 C368.493335,14.5066668 368.839998,14.5466664 369.24,14.6 C369.613335,14.6266668 370.033331,14.6533332 370.5,14.68 C370.966669,14.7066668 371.439998,14.72 371.92,14.72 C372.66667,14.72 373.379997,14.7333332 374.06,14.76 C374.740003,14.7866668 375.386664,14.7866668 376,14.76 C376.613336,14.7333332 377.199997,14.686667 377.76,14.62 C378.320003,14.553333 378.866664,14.4400008 379.4,14.28 C379.453334,14.28 379.52,14.2600002 379.6,14.22 C379.68,14.1799998 379.773333,14.1466668 379.88,14.12 C379.96,14.0666664 380.053333,14.0266668 380.16,14 C380.266667,13.9733332 380.386666,13.9466668 380.52,13.92 C381.240004,13.8933332 381.95333,13.9066664 382.66,13.96 C383.36667,14.0133336 383.893332,14.0533332 384.24,14.08 Z" id="작품보기"></path>
            </g>
        </g>
    </g>
</svg>